{
.formatVersion = 3;
classes = (
{
code = "zero.dnom one.dnom two.dnom three.dnom four.dnom five.dnom six.dnom seven.dnom eight.dnom nine.dnom equal.dnom hyphen.dnom minus.dnom parenleft.dnom parenright.dnom plus.dnom";
name = dnom_frac;
},
{
code = "zero one two three four five six seven eight nine";
name = dnom_frac_numr_ordn_sinf_subs_sups;
},
{
code = "slash zero one two three four five six seven eight nine";
name = frac;
},
{
code = "A O a o zero.numr one.numr two.numr three.numr four.numr five.numr six.numr seven.numr eight.numr nine.numr equal.numr hyphen.numr minus.numr parenleft.numr parenright.numr plus.numr";
name = frac_ordn;
},
{
code = "ordfeminine ordmasculine ordfeminine ordmasculine zero.dnom one.dnom two.dnom three.dnom four.dnom five.dnom six.dnom seven.dnom eight.dnom nine.dnom equal.dnom hyphen.dnom minus.dnom parenleft.dnom parenright.dnom plus.dnom";
name = frac_ordn2;
},
{
code = "zero.numr one.numr two.numr three.numr four.numr five.numr six.numr seven.numr eight.numr nine.numr equal.numr hyphen.numr minus.numr parenleft.numr parenright.numr plus.numr";
name = frac_numr;
},
{
code = "zero.inferior one.inferior two.inferior three.inferior four.inferior five.inferior six.inferior seven.inferior eight.inferior nine.inferior plus.inferior minus.inferior equal.inferior parenleft.inferior parenright.inferior hyphen.inferior";
name = sinf_subs;
},
{
code = "zero.superior onesuperior twosuperior threesuperior four.superior five.superior six.superior seven.superior eight.superior nine.superior plus.superior minus.superior equal.superior parenleft.superior parenright.superior hyphen.superior";
name = sups;
},
{

glyphs = (
{
glyphname = .notdef;
layers = (
{
hints = (
{
place = (474,88);
type = Stem;
},
{
place = (544,51);
type = Stem;
},
{
place = (577,85);
type = Stem;
},
{
horizontal = 1;
place = (-1,94);
type = Stem;
},
{
horizontal = 1;
place = (157,20);
type = Stem;
},
{
horizontal = 1;
place = (163,218);
type = Stem;
},
{
horizontal = 1;
place = (157,220);
type = Stem;
}
);
layerId = "F681C90F-60C6-46B5-9262-264E5CA00432";
shapes = (
{
closed = 1;
nodes = (
(435,379,l),
(432,379,l),
(423,368,o),
(382,355,o),
(351,358,c),
(344,328,l),
(349,379,o),
(301,392,o),
(257,376,cs),
(216,361,o),
(185,323,o),
(173,264,cs),
(155,174,o),
(207,157,o),
(241,157,cs),
(283,157,o),
(301,184,o),
(316,212,c),
(313,195,o),
(312,166,o),
(337,161,c),
(402,161,l),
(402,162,o),
(402,162,o),
(402,162,c),
(388,172,o),
(387,179,o),
(394,208,cs)
);
},
{
closed = 1;
nodes = (
(326,256,ls),
(317,219,o),
(288,168,o),
(266,168,cs),
(249,168,o),
(242,199,o),
(260,274,cs),
(276,337,o),
(294,367,o),
(316,367,cs),
(343,367,o),
(341,319,o),
(334,288,cs)
);
},
{
closed = 1;
nodes = (
(472,380,o),
(434,380,o),
(434,380,c),
(429,375,l),
(476,375,l),
(443,209,ls),
(437,180,o),
(433,173,o),
(415,163,c),
(531,162,l),
(522,168,o),
(518,174,o),
(518,184,cs),
(518,191,o),
(520,198,o),
(522,209,cs),
(556,373,l),
(556,373,o),
(537,380,o),
(527,396,cs),
(505,432,o),
(556,471,o),
(602,480,cs),
(641,487,o),
(703,477,o),
(693,438,c),
(693,438,o),
(696,438,o),
(697,438,c),
(707,482,o),
(648,493,o),
(600,485,cs),
(540,475,o),
(488,433,o),
(478,380,c)
);
},
{
closed = 1;
nodes = (
(686,384,l),
(697,438,l),
(693,438,l),
(684,410,o),
(625,378,o),
(585,377,c),
(584,374,l),
(605,374,l),
(572,219,ls),
(566,191,o),
(566,157,o),
(622,157,cs),
(667,157,o),
(690,179,o),
(706,219,c),
(706,219,o),
(704,226,o),
(704,231,c),
(700,220,o),
(681,177,o),
(655,177,cs),
(644,177,o),
(644,185,o),
(649,209,cs),
(683,374,l),
(731,374,l),
(733,384,l)
);
},
{
closed = 1;
nodes = (
(152,384,l),
(163,438,l),
(159,438,l),
(150,410,o),
(91,378,o),
(51,377,c),
(50,374,l),
(71,374,l),
(38,219,ls),
(32,191,o),
(32,157,o),
(88,157,cs),
(133,157,o),
(156,179,o),
(172,219,c),
(172,219,o),
(171,228,o),
(171,233,c),
(167,222,o),
(147,177,o),
(121,177,cs),
(110,177,o),
(110,185,o),
(115,209,cs),
(149,374,l),
(197,374,l),
(199,384,l)
);
},
{
closed = 1;
nodes = (
(316,23,o),
(310,20,o),
(310,11,cs),
(310,2,o),
(316,-2,o),
(322,-2,cs),
(328,-2,o),
(334,2,o),
(334,11,cs),
(334,20,o),
(328,23,o),
(322,23,cs)
);
},
{
closed = 1;
nodes = (
(335,92,l),
(362,0,l),
(383,0,l),
(401,70,l),
(420,0,l),
(440,0,l),
(468,92,l),
(450,92,l),
(433,25,l),
(432,23,o),
(432,21,o),
(432,20,c),
(429,20,l),
(429,21,o),
(428,23,o),
(428,25,c),
(413,92,l),
(390,92,l),
(375,25,l),
(375,23,o),
(374,21,o),
(374,20,c),
(371,20,l),
(371,21,o),
(370,23,o),
(370,25,c),
(353,92,l)
);
},
{
closed = 1;
nodes = (
(490,93,o),
(474,82,o),
(474,46,cs),
(474,10,o),
(490,-1,o),
(517,-1,cs),
(544,-1,o),
(562,10,o),
(562,46,cs),
(562,82,o),
(544,93,o),
(517,93,cs)
);
},
{
closed = 1;
nodes = (
(500,13,o),
(491,23,o),
(491,47,cs),
(491,71,o),
(500,79,o),
(516,79,cs),
(534,79,o),
(544,70,o),
(544,46,cs),
(544,22,o),
(534,13,o),
(517,13,cs)
);
},
{
closed = 1;
nodes = (
(633,92,l),
(631,93,o),
(629,93,o),
(629,93,cs),
(606,93,o),
(595,80,o),
(595,69,c),
(591,92,l),
(577,90,l),
(577,0,l),
(595,0,l),
(595,50,ls),
(595,68,o),
(606,78,o),
(622,78,cs),
(627,78,o),
(632,77,o),
(633,76,c)
);
},
{
closed = 1;
nodes = (
(662,0,l),
(662,34,l),
(674,46,l),
(707,0,l),
(728,0,l),
(687,58,l),
(724,92,l),
(699,92,l),
(662,53,l),
(662,128,l),
(645,126,l),
(645,0,l)
);
}
);
width = 755;
}
);
},
{
glyphname = m;
layers = (
{
anchors = (
{
name = top;
position = "{472, 520}";
},
{
name = bottom;
position = "{472, -20}";
}
);
hints = (
{
place = (64,165);
type = Stem;
},
{
place = (389,165);
type = Stem;
},
{
place = (714,165);
type = Stem;
},
{
horizontal = 1;
place = (409,111);
type = Stem;
},
{
horizontal = 1;
place = (0,21);
target = up;
type = BottomGhost;
},
{
horizontal = 1;
place = (500,-20);
target = down;
type = TopGhost;
}
);
layerId = "F681C90F-60C6-46B5-9262-264E5CA00432";
shapes = (
{
closed = 1;
nodes = (
(64,0,l),
(229,0,l),
(229,500,l),
(64,500,l)
);
},
{
closed = 1;
nodes = (
(217,278,l),
(229,217,l),
(229,312,o),
(260,396,o),
(326,396,cs),
(364,396,o),
(389,367,o),
(389,272,cs),
(389,0,l),
(554,0,l),
(554,304,ls),
(554,448,o),
(497,520,o),
(400,520,cs),
(291,520,o),
(231,428,o),
(215,350,c)
);
},
{
closed = 1;
nodes = (
(542,278,l),
(554,217,l),
(554,312,o),
(585,396,o),
(651,396,cs),
(689,396,o),
(714,367,o),
(714,272,cs),
(714,0,l),
(879,0,l),
(879,304,ls),
(879,448,o),
(822,520,o),
(725,520,cs),
(616,520,o),
(556,428,o),
(540,350,c)
);
}
);
width = 943;
}
);
leftKerningGroup = i;
rightKerningGroup = h;
unicode = 109;
},
{
glyphname = u;
layers = (
{
anchors = (
{
name = top;
position = "{300, 520}";
},
{
name = bottom;
position = "{300, -20}";
},
{
name = ogonek;
position = "{408, -3}";
}
);
hints = (
{
place = (56,165);
type = Stem;
},
{
place = (378,165);
type = Stem;
},
{
horizontal = 1;
place = (-20,111);
type = Stem;
},
{
horizontal = 1;
place = (500,-20);
target = down;
type = TopGhost;
}
);
layerId = "F681C90F-60C6-46B5-9262-264E5CA00432";
shapes = (
{
closed = 1;
nodes = (
(57,500,l),
(57,185,ls),
(57,62,o),
(154,-20,o),
(301,-20,cs),
(449,-20,o),
(544,65,o),
(544,185,cs),
(544,500,l),
(379,500,l),
(379,228,ls),
(379,137,o),
(355,104,o),
(301,104,cs),
(247,104,o),
(222,138,o),
(222,228,cs),
(222,500,l)
);
}
);
width = 600;
}
);
leftKerningGroup = u;
unicode = 117;
},
{
glyphname = h;
layers = (
{
anchors = (
{
name = bottom;
position = "{318, -20}";
},
{
name = top;
position = "{141, 750}";
}
);
hints = (
{
place = (59,165);
type = Stem;
},
{
place = (412,165);
type = Stem;
},
{
horizontal = 1;
place = (409,111);
type = Stem;
},
{
horizontal = 1;
place = (0,21);
target = up;
type = BottomGhost;
},
{
horizontal = 1;
place = (750,-20);
target = down;
type = TopGhost;
}
);
layerId = "F681C90F-60C6-46B5-9262-264E5CA00432";
shapes = (
{
closed = 1;
nodes = (
(59,0,l),
(224,0,l),
(224,750,l),
(59,750,l)
);
},
{
closed = 1;
nodes = (
(212,278,l),
(224,217,l),
(224,312,o),
(260,396,o),
(337,396,cs),
(383,396,o),
(411,367,o),
(411,272,cs),
(411,0,l),
(576,0,l),
(576,304,ls),
(576,448,o),
(515,520,o),
(400,520,cs),
(291,520,o),
(227,428,o),
(210,350,c)
);
}
);
width = 635;
}
);
leftKerningGroup = b;
rightKerningGroup = h;
unicode = 104;
},
{
glyphname = l;
layers = (
{
anchors = (
{
name = top;
position = "{148, 750}";
},
{
name = bottom;
position = "{200, -20}";
},
{
name = topright;
position = "{270, 750}";
}
);
hints = (
{
place = (64,165);
type = Stem;
},
{
horizontal = 1;
place = (-20,114);
type = Stem;
},
{
horizontal = 1;
place = (750,-20);
target = down;
type = TopGhost;
}
);
layerId = "F681C90F-60C6-46B5-9262-264E5CA00432";
shapes = (
{
closed = 1;
nodes = (
(64,750,l),
(64,132,ls),
(64,33,o),
(115,-20,o),
(224,-20,cs),
(263,-20,o),
(294,-13,o),
(341,3,c),
(317,117,l),
(298,110,o),
(279,107,o),
(268,107,cs),
(238,107,o),
(229,127,o),
(229,193,cs),
(229,750,l)
);
}
);
width = 350;
}
);
leftKerningGroup = b;
rightKerningGroup = l;
unicode = 108;
},
{
glyphname = p;
layers = (
{
anchors = (
{
name = bottom;
position = "{371, -20}";
},
{
name = top;
position = "{362, 520}";
}
);
hints = (
{
place = (54,165);
type = Stem;
},
{
place = (439,166);
type = Stem;
},
{
horizontal = 1;
place = (-20,110);
type = Stem;
},
{
horizontal = 1;
place = (409,111);
type = Stem;
},
{
horizontal = 1;
place = (500,-20);
target = down;
type = TopGhost;
},
{
horizontal = 1;
place = (-200,21);
target = up;
type = BottomGhost;
}
);
layerId = "F681C90F-60C6-46B5-9262-264E5CA00432";
shapes = (
{
closed = 1;
nodes = (
(228,500,l),
(63,500,l),
(63,-200,l),
(228,-200,l)
);
},
{
closed = 1;
nodes = (
(193,90,o),
(265,-20,o),
(374,-20,cs),
(511,-20,o),
(595,99,o),
(595,255,cs),
(595,411,o),
(520,520,o),
(381,520,cs),
(263,520,o),
(193,421,o),
(193,255,cs)
);
},
{
closed = 1;
nodes = (
(430,164,o),
(390,106,o),
(325,106,cs),
(266,106,o),
(228,166,o),
(228,257,cs),
(228,337,o),
(267,393,o),
(324,393,cs),
(392,393,o),
(430,341,o),
(430,256,cs)
);
}
);
width = 635;
}
);
leftKerningGroup = i;
rightKerningGroup = b1;
unicode = 112;
},
{
glyphname = d;
layers = (
{
anchors = (
{
name = bottom;
position = "{295, -20}";
},
{
name = top;
position = "{288, 750}";
},
{
name = topright;
position = "{620, 750}";
}
);
hints = (
{
place = (39,166);
type = Stem;
},
{
place = (426,165);
type = Stem;
},
{
horizontal = 1;
place = (-20,110);
type = Stem;
},
{
horizontal = 1;
place = (409,111);
type = Stem;
},
{
horizontal = 1;
place = (0,21);
target = up;
type = BottomGhost;
},
{
horizontal = 1;
place = (750,-20);
target = down;
type = TopGhost;
}
);
layerId = "F681C90F-60C6-46B5-9262-264E5CA00432";
shapes = (
{
closed = 1;
nodes = (
(416,0,l),
(581,0,l),
(581,750,l),
(416,750,l)
);
},
{
closed = 1;
nodes = (
(448,421,o),
(379,520,o),
(262,520,cs),
(123,520,o),
(49,411,o),
(49,255,cs),
(49,99,o),
(132,-20,o),
(268,-20,cs),
(377,-20,o),
(448,90,o),
(448,255,cs)
);
},
{
closed = 1;
nodes = (
(214,344,o),
(252.189,393,o),
(319.522,393,cs),
(376.806,393,o),
(416,337,o),
(416,257,cs),
(416,166,o),
(377.811,106,o),
(318.517,106,cs),
(255.204,106,o),
(214,165,o),
(214,256,cs)
);
}
);
width = 635;
}
);
leftKerningGroup = a;
unicode = 100;
},
{
glyphname = o;
layers = (
{
anchors = (
{
name = ogonek;
position = "{417, -3}";
},
{
name = top;
position = "{308, 520}";
},
{
name = bottom;
position = "{308, -20}";
},
{
name = topgr;
position = "{308, 520}";
}
);
hints = (
{
place = (29,165);
type = Stem;
},
{
place = (422,165);
type = Stem;
},
{
horizontal = 1;
place = (-20,111);
type = Stem;
},
{
horizontal = 1;
place = (409,111);
type = Stem;
}
);
layerId = "F681C90F-60C6-46B5-9262-264E5CA00432";
shapes = (
{
closed = 1;
nodes = (
(39,89,o),
(147,-20,o),
(308,-20,cs),
(473,-20,o),
(577,80,o),
(577,255,cs),
(577,431,o),
(469,520,o),
(308,520,cs),
(155,520,o),
(39,429,o),
(39,255,cs)
);
},
{
closed = 1;
nodes = (
(412,156,o),
(374,103,o),
(305,103,cs),
(239,103,o),
(204,155,o),
(204,254,cs),
(204,349,o),
(238,396,o),
(306,396,cs),
(376,396,o),
(412,347,o),
(412,252,cs)
);
}
);
width = 616;
}
);
leftKerningGroup = a;
rightKerningGroup = b1;
unicode = 111;
},
{
glyphname = q;
layers = (
{
anchors = (
{
name = bottom;
position = "{290, -20}";
},
{
name = top;
position = "{291, 520}";
}
);
hints = (
{
place = (39,165);
type = Stem;
},
{
place = (426,165);
type = Stem;
},
{
horizontal = 1;
place = (-20,110);
type = Stem;
},
{
horizontal = 1;
place = (409,111);
type = Stem;
},
{
horizontal = 1;
place = (-200,21);
target = up;
type = BottomGhost;
},
{
horizontal = 1;
place = (500,-20);
target = down;
type = TopGhost;
}
);
layerId = "F681C90F-60C6-46B5-9262-264E5CA00432";
shapes = (
{
closed = 1;
nodes = (
(416,-200,l),
(581,-200,l),
(581,500,l),
(416,500,l)
);
},
{
closed = 1;
nodes = (
(448,421,o),
(379.086,520,o),
(262.233,520,cs),
(123.407,520,o),
(49.5,411,o),
(49.5,255,cs),
(49.5,99,o),
(132.396,-20,o),
(268.226,-20,cs),
(377.089,-20,o),
(448,90,o),
(448,255,cs)
);
},
{
closed = 1;
nodes = (
(214.5,346,o),
(250.59,393,o),
(319.761,393,cs),
(376.903,393,o),
(416,337,o),
(416,257,cs),
(416,166,o),
(377.905,106,o),
(318.759,106,cs),
(252.595,106,o),
(214.5,161,o),
(214.5,256,cs)
);
}
);
width = 635;
}
);
leftKerningGroup = a;
unicode = 113;
},
{
glyphname = b;
layers = (
{
anchors = (
{
name = bottom;
position = "{345, -20}";
},
{
name = top;
position = "{353, 750}";
}
);
hints = (
{
place = (54,164);
type = Stem;
},
{
place = (439,166);
type = Stem;
},
{
horizontal = 1;
place = (-20,110);
type = Stem;
},
{
horizontal = 1;
place = (409,111);
type = Stem;
},
{
horizontal = 1;
place = (750,-20);
target = down;
type = TopGhost;
},
{
horizontal = 1;
place = (0,21);
target = up;
type = BottomGhost;
}
);
layerId = "F681C90F-60C6-46B5-9262-264E5CA00432";
shapes = (
{
closed = 1;
nodes = (
(228,0,l),
(228,750,l),
(63,750,l),
(63,0,l)
);
},
{
closed = 1;
nodes = (
(196,90,o),
(267,-20,o),
(387.092,-20,cs),
(512,-20,o),
(595,99,o),
(595,255,cs),
(595,411,o),
(521,520,o),
(382,520,cs),
(265,520,o),
(196,421,o),
(196,255,cs)
);
},
{
closed = 1;
nodes = (
(430,170,o),
(384.776,106,o),
(325.483,106,cs),
(266.189,106,o),
(228,166,o),
(228,257,cs),
(228,337,o),
(267.194,393,o),
(324.478,393,cs),
(387.791,393,o),
(430,339,o),
(430,256,cs)
);
}
);
width = 635;
}
);
leftKerningGroup = b;
rightKerningGroup = b1;
unicode = 98;
},
{
glyphname = c;
layers = (
{
anchors = (
{
name = top;
position = "{303, 520}";
},
{
name = bottom;
position = "{303, -20}";
}
);
hints = (
{
place = (29,165);
type = Stem;
},
{
horizontal = 1;
place = (-20,111);
type = Stem;
},
{
horizontal = 1;
place = (409,111);
type = Stem;
}
);
layerId = "F681C90F-60C6-46B5-9262-264E5CA00432";
shapes = (
{
closed = 1;
nodes = (
(229,104,o),
(194,155,o),
(194,254,cs),
(194,349,o),
(233,396,o),
(307,396,cs),
(354,396,o),
(405,377,o),
(432,342,c),
(517,427,l),
(467,488,o),
(392,520,o),
(293,520,cs),
(140,520,o),
(29,429,o),
(29,255,cs),
(29,89,o),
(130,-20,o),
(291,-20,cs),
(393,-20,o),
(471,12,o),
(521,73,c),
(436,158,l),
(409,123,o),
(359,104,o),
(308,104,cs)
);
}
);
width = 563;
}
);
leftKerningGroup = a;
rightKerningGroup = b1;
unicode = 99;
},
{
glyphname = e;
layers = (
{
anchors = (
{
name = top;
position = "{299, 520}";
},
{
name = bottom;
position = "{299, -20}";
},
{
name = ogonek;
position = "{425, -3}";
}
);
hints = (
{
place = (29,166);
type = Stem;
},
{
horizontal = 1;
place = (-20,111);
type = Stem;
},
{
horizontal = 1;
place = (232,91);
type = Stem;
},
{
horizontal = 1;
place = (410,110);
type = Stem;
}
);
layerId = "F681C90F-60C6-46B5-9262-264E5CA00432";
shapes = (
{
closed = 1;
nodes = (
(198,332,l),
(204,367.896,o),
(242,397,o),
(300.688,397,cs),
(353,397,o),
(397.698,373.875,o),
(403,332,c)
);
},
{
closed = 1;
nodes = (
(242,103,o),
(200,138,o),
(196,212,c),
(571,212,l),
(582.595,404.026,o),
(481.306,520,o),
(302,520,cs),
(143,520,o),
(28,420,o),
(28,254,cs),
(28,85,o),
(147,-20,o),
(315,-20,cs),
(407,-20,o),
(487,12,o),
(537,73,c),
(452,158,l),
(425,123,o),
(379,103,o),
(320,103,cs)
);
}
);
width = 598;
}
);
leftKerningGroup = a;
rightKerningGroup = b1;
unicode = 101;
},
{
glyphname = f;
layers = (
{
anchors = (
{
name = top;
position = "{240, 750}";
},
{
name = bottom;
position = "{183, -20}";
}
);
hints = (
{
place = (99,165);
type = Stem;
},
{
horizontal = 1;
place = (389,111);
type = Stem;
},
{
horizontal = 1;
place = (640,111);
type = Stem;
},
{
horizontal = 1;
place = (0,21);
target = up;
type = BottomGhost;
}
);
layerId = "F681C90F-60C6-46B5-9262-264E5CA00432";
shapes = (
{
closed = 1;
nodes = (
(99,380,l),
(99,0,l),
(264,0,l),
(264,380,l),
(390,380,l),
(390,500,l),
(264,500,l),
(264,547,ls),
(264,593,o),
(280,627,o),
(322,627,cs),
(334,627,o),
(358,624,o),
(376,617,c),
(406,728,l),
(347,746,o),
(317,751,o),
(283,751,cs),
(168,751,o),
(99,694,o),
(99,588,cs),
(99,500,l),
(22,500,l),
(22,380,l)
);
}
);
width = 423;
}
);
leftKerningGroup = f;
rightKerningGroup = f1;
unicode = 102;
},
{
glyphname = r;
layers = (
{
anchors = (
{
name = top;
position = "{235, 520}";
},
{
name = bottom;
position = "{142, -20}";
}
);
hints = (
{
place = (64,165);
type = Stem;
},
{
horizontal = 1;
place = (410,110);
type = Stem;
},
{
horizontal = 1;
place = (0,21);
target = up;
type = BottomGhost;
},
{
horizontal = 1;
place = (500,-20);
target = down;
type = TopGhost;
}
);
layerId = "F681C90F-60C6-46B5-9262-264E5CA00432";
shapes = (
{
closed = 1;
nodes = (
(64,500,l),
(64,0,l),
(229,0,l),
(229,209,ls),
(229,338,o),
(288,397,o),
(405,397,c),
(405,520,l),
(322,519,o),
(274,486,o),
(229,400,c),
(229,500,l)
);
}
);
width = 422;
}
);
leftKerningGroup = i;
rightKerningGroup = r;
unicode = 114;
},
{
glyphname = t;
layers = (
{
anchors = (
{
name = top;
position = "{175, 630}";
},
{
name = bottom;
position = "{220, -20}";
},
{
name = topright;
position = "{283, 700}";
}
);
hints = (
{
place = (98,165);
type = Stem;
},
{
horizontal = 1;
place = (-21,111);
type = Stem;
},
{
horizontal = 1;
place = (390,110);
type = Stem;
},
{
horizontal = 1;
place = (630,-20);
target = down;
type = TopGhost;
}
);
layerId = "F681C90F-60C6-46B5-9262-264E5CA00432";
shapes = (
{
closed = 1;
nodes = (
(19,500,l),
(19,377,l),
(348,377,l),
(348,500,l)
);
},
{
closed = 1;
nodes = (
(256,620,l),
(91,620,l),
(91,132,ls),
(91,35,o),
(146.39,-21,o),
(257.169,-21,cs),
(304.353,-21,o),
(329.996,-11,o),
(370,6,c),
(339,121,l),
(321.526,111,o),
(302.961,105,o),
(288.763,105,cs),
(262.553,105,o),
(256,127,o),
(256,191,cs)
);
}
);
width = 365;
}
);
leftKerningGroup = f;
rightKerningGroup = l;
unicode = 116;
},
{
glyphname = k;
layers = (
{
anchors = (
{
name = bottom;
position = "{297, -20}";
},
{
name = top;
position = "{146, 750}";
}
);
hints = (
{
place = (64,165);
type = Stem;
},
{
horizontal = 1;
place = (500,-20);
target = down;
type = TopGhost;
},
{
horizontal = 1;
place = (0,21);
target = up;
type = BottomGhost;
},
{
horizontal = 1;
place = (750,-20);
target = down;
type = TopGhost;
}
);
layerId = "F681C90F-60C6-46B5-9262-264E5CA00432";
shapes = (
{
closed = 1;
nodes = (
(229,0,l),
(229,750,l),
(64,750,l),
(64,0,l)
);
},
{
closed = 1;
nodes = (
(313,319,l,{name = iv02;}),
(119,319,l),
(120,199,l),
(306,199,l,{name = iv01;}),
(399,0,l,{name = ab02;}),
(587,0,l),
(446,265,l),
(571,500,l,{name = av02;}),
(398,500,l)
);
}
);
width = 594;
}
);
leftKerningGroup = b;
rightKerningGroup = k;
unicode = 107;
},
{
glyphname = a;
layers = (
{
anchors = (
{
name = top;
position = "{329, 520}";
},
{
name = bottom;
position = "{323, -20}";
},
{
name = ogonek;
position = "{584, -3}";
}
);
hints = (
{
place = (39,166);
type = Stem;
},
{
place = (426,165);
type = Stem;
},
{
horizontal = 1;
place = (-20,110);
type = Stem;
},
{
horizontal = 1;
place = (409,111);
type = Stem;
},
{
horizontal = 1;
place = (0,21);
target = up;
type = BottomGhost;
},
{
horizontal = 1;
place = (500,-20);
target = down;
type = TopGhost;
}
);
layerId = "F681C90F-60C6-46B5-9262-264E5CA00432";
shapes = (
{
closed = 1;
nodes = (
(426,0,l),
(591,0,l),
(591,500,l),
(426,500,l)
);
},
{
closed = 1;
nodes = (
(462,421,o),
(390,520,o),
(261,520,cs),
(126,520,o),
(49,411,o),
(49,259,cs),
(49,99,o),
(135,-20,o),
(264,-20,cs),
(388,-20,o),
(462,90,o),
(462,257,cs)
);
},
{
closed = 1;
nodes = (
(214,341,o),
(256.199,393,o),
(319.498,393,cs),
(384.806,393,o),
(426,337,o),
(426,251,cs),
(426,166,o),
(385.81,106,o),
(323.517,106,cs),
(260.218,106,o),
(214,168,o),
(214,256,cs)
);
}
);
width = 645;
}
);
leftKerningGroup = a;
rightKerningGroup = a1;
unicode = 97;
},
{
glyphname = v;
layers = (
{
anchors = (
{
name = top;
position = "{275, 520}";
},
{
name = bottom;
position = "{275, -20}";
}
);
hints = (
{
horizontal = 1;
place = (500,-20);
target = down;
type = TopGhost;
},
{
horizontal = 1;
place = (0,21);
target = up;
type = BottomGhost;
}
);
layerId = "F681C90F-60C6-46B5-9262-264E5CA00432";
shapes = (
{
closed = 1;
nodes = (
(275,215,l),
(181,500,l),
(5,500,l),
(197,0,l),
(353,0,l),
(545,500,l),
(369,500,l)
);
}
);
width = 550;
}
);
leftKerningGroup = v;
rightKerningGroup = v1;
unicode = 118;
},
{
glyphname = w;
layers = (
{
anchors = (
{
name = top;
position = "{427, 520}";
},
{
name = bottom;
position = "{427, -20}";
}
);
hints = (
{
horizontal = 1;
place = (500,-20);
target = down;
type = TopGhost;
},
{
horizontal = 1;
place = (0,21);
target = up;
type = BottomGhost;
}
);
layerId = "F681C90F-60C6-46B5-9262-264E5CA00432";
shapes = (
{
closed = 1;
nodes = (
(657,0,l),
(839,500,l),
(663,500,l),
(579,216,l),
(500,500,l),
(354,500,l),
(275,216,l),
(191,500,l),
(15,500,l),
(197,0,l),
(343,0,l),
(427,313,l),
(511,0,l)
);
}
);
width = 854;
}
);
leftKerningGroup = v;
rightKerningGroup = v1;
unicode = 119;
},
{
glyphname = x;
layers = (
{
anchors = (
{
name = top;
position = "{287, 520}";
},
{
name = bottom;
position = "{287, -20}";
}
);
hints = (
{
horizontal = 1;
place = (500,-20);
target = down;
type = TopGhost;
},
{
horizontal = 1;
place = (0,21);
target = up;
type = BottomGhost;
}
);
layerId = "F681C90F-60C6-46B5-9262-264E5CA00432";
shapes = (
{
closed = 1;
nodes = (
(31,500,l,{name = av01;}),
(183.503,236.012,l),
(173.509,261.985,l),
(22,0,l,{name = ab01;}),
(203,0,l),
(287,170,l,{name = iv01;}),
(371,0,l,{name = ab02;}),
(554,0,l),
(402.491,261.985,l),
(392.497,236.012,l),
(545,500,l,{name = av02;}),
(366,500,l),
(271.199,303.63,l,{name = iv02;}),
(304.801,303.63,l),
(210,500,l)
);
}
);
width = 574;
}
);
leftKerningGroup = x;
rightKerningGroup = k;
unicode = 120;
},
{
glyphname = y;
layers = (
{
anchors = (
{
name = top;
position = "{313, 520}";
},
{
name = bottom;
position = "{557, -69}";
}
);
hints = (
{
place = (59,165);
type = Stem;
},
{
place = (414,164);
type = Stem;
},
{
horizontal = 1;
place = (-220,111);
type = Stem;
},
{
horizontal = 1;
place = (0,111);
type = Stem;
},
{
horizontal = 1;
place = (-220,187);
type = Stem;
},
{
horizontal = 1;
place = (500,-20);
target = down;
type = TopGhost;
}
);
layerId = "F681C90F-60C6-46B5-9262-264E5CA00432";
shapes = (
{
closed = 1;
nodes = (
(408,283,l),
(408,172,o),
(376,124,o),
(307,124,cs),
(244,124,o),
(224,164,o),
(224,287,cs),
(224,500,l),
(59,500,l),
(59,216,ls),
(59,69,o),
(132,0,o),
(253,0,cs),
(364,0,o),
(414,58,o),
(434,130,c)
);
},
{
closed = 1;
nodes = (
(463,-220,o),
(572,-121,o),
(572,52,cs),
(572,500,l),
(408,500,l),
(408,68,ls),
(408,-56,o),
(347,-97,o),
(271,-97,cs),
(218,-97,o),
(172,-77,o),
(145,-42,c),
(60,-127,l),
(110,-188,o),
(190,-220,o),
(289,-220,cs)
);
}
);
width = 626;
}
);
leftKerningGroup = u;
rightKerningGroup = y;
unicode = 121;
},
{
glyphname = z;
layers = (
{
anchors = (
{
name = top;
position = "{241, 520}";
},
{
name = bottom;
position = "{241, -20}";
}
);
hints = (
{
horizontal = 1;
place = (0,110);
type = Stem;
},
{
horizontal = 1;
place = (390,110);
type = Stem;
}
);
layerId = "F681C90F-60C6-46B5-9262-264E5CA00432";
shapes = (
{
closed = 1;
nodes = (
(26,0,l),
(457,0,l),
(457,120,l),
(239,120,l),
(457,389.71,l),
(457,500,l),
(46,500,l),
(46,380,l),
(244,380,l),
(26,110.29,l)
);
}
);
width = 483;
}
);
leftKerningGroup = z1;
rightKerningGroup = z;
unicode = 122;
},
{
glyphname = E;
layers = (
{
anchors = (
{
name = top;
position = "{275, 719}";
},
{
name = bottom;
position = "{286, -20}";
},
{
name = ogonek;
position = "{498, -2}";
},
{
name = topgr;
position = "{-50, 500}";
}
);
hints = (
{
place = (68,166);
type = Stem;
},
{
horizontal = 1;
place = (0,120);
type = Stem;
},
{
horizontal = 1;
place = (307,120);
type = Stem;
},
{
horizontal = 1;
place = (580,120);
type = Stem;
}
);
layerId = "F681C90F-60C6-46B5-9262-264E5CA00432";
shapes = (
{
closed = 1;
nodes = (
(505,0,l),
(505,130,l),
(234,130,l),
(234,300,l),
(465,300,l),
(465,430,l),
(234,430,l),
(234,570,l),
(490,570,l),
(490,700,l),
(68,700,l),
(68,0,l)
);
}
);
width = 550;
}
);
leftKerningGroup = B;
rightKerningGroup = E;
unicode = 69;
},
{
glyphname = g;
layers = (
{
anchors = (
{
name = bottom;
position = "{308, -220}";
},
{
name = top;
position = "{317, 520}";
}
);
hints = (
{
place = (39,166);
type = Stem;
},
{
place = (426,164);
type = Stem;
},
{
horizontal = 1;
place = (-220,111);
type = Stem;
},
{
horizontal = 1;
place = (-20,110);
type = Stem;
},
{
horizontal = 1;
place = (409,111);
type = Stem;
},
{
horizontal = 1;
place = (-220,187);
type = Stem;
},
{
horizontal = 1;
place = (500,-20);
target = down;
type = TopGhost;
}
);
layerId = "F681C90F-60C6-46B5-9262-264E5CA00432";
shapes = (
{
closed = 1;
nodes = (
(447,421,o),
(379,520,o),
(254,520,cs),
(123,520,o),
(49,411,o),
(49,259,cs),
(49,99,o),
(132,-20,o),
(257,-20,cs),
(377,-20,o),
(447,90,o),
(447,257,cs)
);
},
{
closed = 1;
nodes = (
(214,344,o),
(251.184,393,o),
(311.483,393,cs),
(376.806,393,o),
(415,337,o),
(415,251,cs),
(415,166,o),
(377.811,106,o),
(316.507,106,cs),
(255.204,106,o),
(214,165,o),
(214,257,cs)
);
},
{
closed = 1;
nodes = (
(471.787,-220,o),
(580,-121,o),
(580,52,cs),
(580,500,l),
(415,500,l),
(415,68,ls),
(415,-56,o),
(355,-97,o),
(279,-97,cs),
(226,-97,o),
(180,-77,o),
(153,-42,c),
(68,-127,l),
(118.098,-188,o),
(198.254,-220,o),
(297.447,-220,cs)
);
}
);
width = 634;
}
);
leftKerningGroup = a;
unicode = 103;
},
{
glyphname = D;
layers = (
{
anchors = (
{
name = top;
position = "{328, 719}";
},
{
name = bottom;
position = "{328, -20}";
}
);
hints = (
{
place = (68,166);
type = Stem;
},
{
place = (542,167);
type = Stem;
},
{
horizontal = 1;
place = (0,120);
type = Stem;
},
{
horizontal = 1;
place = (580,120);
type = Stem;
}
);
layerId = "F681C90F-60C6-46B5-9262-264E5CA00432";
shapes = (
{
closed = 1;
nodes = (
(233,130,l),
(233,570,l),
(329,570,ls),
(457,570,o),
(536,481,o),
(536,352,cs),
(536,218,o),
(451,130,o),
(329,130,cs)
);
},
{
closed = 1;
nodes = (
(68,0,l),
(350,0,ls),
(561,0,o),
(704,141,o),
(704,350,cs),
(704,558,o),
(560,700,o),
(350,700,cs),
(68,700,l)
);
}
);
width = 742;
}
);
leftKerningGroup = B;
rightKerningGroup = C;
unicode = 68;
},
{
glyphname = F;
layers = (
{
anchors = (
{
name = top;
position = "{270, 719}";
},
{
name = bottom;
position = "{281, -20}";
}
);
hints = (
{
place = (68,166);
type = Stem;
},
{
horizontal = 1;
place = (280,120);
type = Stem;
},
{
horizontal = 1;
place = (580,120);
type = Stem;
},
{
horizontal = 1;
place = (0,21);
target = up;
type = BottomGhost;
}
);
layerId = "F681C90F-60C6-46B5-9262-264E5CA00432";
shapes = (
{
closed = 1;
nodes = (
(234,0,l),
(234,280,l),
(464,280,l),
(464,410,l),
(234,410,l),
(234,570,l),
(494,570,l),
(494,700,l),
(68,700,l),
(68,0,l)
);
}
);
width = 540;
}
);
leftKerningGroup = B;
rightKerningGroup = F;
unicode = 70;
},
{
glyphname = A;
layers = (
{
anchors = (
{
name = top;
position = "{328, 719}";
},
{
name = bottom;
position = "{328, -20}";
},
{
name = ogonek;
position = "{640, -2}";
},
{
name = topgr;
position = "{76, 500}";
}
);
hints = (
{
horizontal = 1;
place = (141,120);
type = Stem;
},
{
horizontal = 1;
place = (0,21);
target = up;
type = BottomGhost;
},
{
horizontal = 1;
place = (700,-20);
target = down;
type = TopGhost;
}
);
layerId = "F681C90F-60C6-46B5-9262-264E5CA00432";
shapes = (
{
closed = 1;
nodes = (
(193,114,l),
(459,114,l),
(415,234,l),
(237,234,l)
);
},
{
closed = 1;
nodes = (
(234,700,l),
(7,0,l),
(181,0,l),
(372,700,l)
);
},
{
closed = 1;
nodes = (
(283,700,l),
(474,0,l),
(648,0,l),
(421,700,l)
);
}
);
width = 655;
}
);
leftKerningGroup = A1;
rightKerningGroup = A;
unicode = 65;
},
{
glyphname = B;
layers = (
{
anchors = (
{
name = top;
position = "{308, 719}";
},
{
name = bottom;
position = "{328, -20}";
}
);
hints = (
{
place = (68,166);
type = Stem;
},
{
place = (391,167);
type = Stem;
},
{
place = (437,167);
type = Stem;
},
{
horizontal = 1;
place = (0,120);
type = Stem;
},
{
horizontal = 1;
place = (310,62);
type = Stem;
},
{
horizontal = 1;
place = (580,120);
type = Stem;
},
{
horizontal = 1;
place = (310,116);
type = Stem;
}
);
layerId = "F681C90F-60C6-46B5-9262-264E5CA00432";
shapes = (
{
closed = 1;
nodes = (
(68,0,l),
(356,0,ls),
(518,0,o),
(604,98,o),
(604,206,cs),
(604,329,o),
(494,372,o),
(365,372,c),
(493,372,o),
(558,426,o),
(558,518,cs),
(558,614,o),
(487,700,o),
(316,700,cs),
(68,700,l)
);
},
{
closed = 1;
nodes = (
(310,305,ls),
(397,305,o),
(437,282,o),
(437,219,cs),
(437,159,o),
(401,130,o),
(325,130,cs),
(234,130,l),
(234,570,l),
(288,570,ls),
(367,570,o),
(391,542,o),
(391,505,cs),
(391,464,o),
(362,431,o),
(306,431,cs),
(100,431,l),
(100,305,l)
);
}
);
width = 634;
}
);
leftKerningGroup = B;
rightKerningGroup = B1;
unicode = 66;
},
{
glyphname = H;
layers = (
{
anchors = (
{
name = bottom;
position = "{368, -20}";
},
{
name = top;
position = "{368, 719}";
},
{
name = topgr;
position = "{-50, 500}";
}
);
hints = (
{
place = (67,166);
type = Stem;
},
{
place = (503,166);
type = Stem;
},
{
horizontal = 1;
place = (290,120);
type = Stem;
},
{
horizontal = 1;
place = (0,21);
target = up;
type = BottomGhost;
},
{
horizontal = 1;
place = (700,-20);
target = down;
type = TopGhost;
}
);
layerId = "F681C90F-60C6-46B5-9262-264E5CA00432";
shapes = (
{
closed = 1;
nodes = (
(67,0,l),
(232,0,l),
(232,305,l),
(504,305,l),
(504,0,l),
(669,0,l),
(669,700,l),
(504,700,l),
(504,435,l),
(232,435,l),
(232,700,l),
(67,700,l)
);
}
);
width = 736;
}
);
leftKerningGroup = B;
rightKerningGroup = H;
unicode = 72;
},
{
glyphname = C;
layers = (
{
anchors = (
{
name = bottom;
position = "{416, -20}";
},
{
name = top;
position = "{386, 719}";
}
);
hints = (
{
place = (33,167);
type = Stem;
},
{
horizontal = 1;
place = (-20,120);
type = Stem;
},
{
horizontal = 1;
place = (599,121);
type = Stem;
}
);
layerId = "F681C90F-60C6-46B5-9262-264E5CA00432";
shapes = (
{
closed = 1;
nodes = (
(516,-20,o),
(591,28,o),
(662,107,c),
(567,202,l),
(518.266,144,o),
(455.609,110,o),
(389.967,110,cs),
(277.582,110,o),
(201,209,o),
(201,358,cs),
(201,499,o),
(269.622,589,o),
(383.992,589,cs),
(450.625,589,o),
(515.268,559,o),
(564,501,c),
(659,596,l),
(598,670,o),
(505,720,o),
(381,720,cs),
(168,720,o),
(33,573,o),
(33,360,cs),
(33,139,o),
(178,-20,o),
(396,-20,cs)
);
}
);
width = 694;
}
);
leftKerningGroup = C1;
rightKerningGroup = C;
unicode = 67;
},
{
glyphname = G;
layers = (
{
anchors = (
{
name = top;
position = "{393, 719}";
},
{
name = bottom;
position = "{393, -20}";
}
);
hints = (
{
place = (23,173);
type = Stem;
},
{
place = (607,121);
type = Stem;
},
{
horizontal = 1;
place = (-20,121);
type = Stem;
},
{
horizontal = 1;
place = (261,121);
type = Stem;
},
{
horizontal = 1;
place = (599,121);
type = Stem;
},
{
horizontal = 1;
place = (0,21);
target = up;
type = BottomGhost;
}
);
layerId = "F681C90F-60C6-46B5-9262-264E5CA00432";
shapes = (
{
closed = 1;
nodes = (
(602,256,l),
(346,256,l),
(346,387,l),
(733,387,l),
(733,0,l),
(602,0,l)
);
},
{
closed = 1;
nodes = (
(518,720,o),
(622,670,o),
(683,596,c),
(588,501,l),
(539.128,559,o),
(474.298,589,o),
(397.499,589,cs),
(283.796,589,o),
(206,524,o),
(206,354,cs),
(206,184,o),
(283.803,111,o),
(397.515,111,cs),
(506.24,111,o),
(601,178,o),
(601,312,c),
(639,220,l),
(635,90,o),
(515,-20,o),
(351,-20,cs),
(177,-20,o),
(38,105,o),
(38,348,cs),
(38,597,o),
(174,720,o),
(384,720,cs)
);
}
);
width = 786;
}
);
leftKerningGroup = C1;
rightKerningGroup = G;
unicode = 71;
},
{
glyphname = L;
layers = (
{
anchors = (
{
name = top;
position = "{151, 719}";
},
{
name = bottom;
position = "{277, -20}";
}
);
hints = (
{
place = (68,166);
type = Stem;
},
{
horizontal = 1;
place = (0,120);
type = Stem;
},
{
horizontal = 1;
place = (700,-20);
target = down;
type = TopGhost;
}
);
layerId = "F681C90F-60C6-46B5-9262-264E5CA00432";
shapes = (
{
closed = 1;
nodes = (
(68,0,l),
(514,0,l),
(514,130,l),
(234,130,l),
(234,700,l),
(68,700,l)
);
}
);
width = 554;
}
);
leftKerningGroup = B;
rightKerningGroup = L;
unicode = 76;
},
{
glyphname = I;
layers = (
{
anchors = (
{
name = top;
position = "{163, 719}";
},
{
name = bottom;
position = "{163, -20}";
},
{
name = ogonek;
position = "{239, -3}";
},
{
name = topgr;
position = "{-33, 500}";
}
);
hints = (
{
place = (80,166);
type = Stem;
},
{
horizontal = 1;
place = (0,21);
target = up;
type = BottomGhost;
},
{
horizontal = 1;
place = (700,-20);
target = down;
type = TopGhost;
}
);
layerId = "F681C90F-60C6-46B5-9262-264E5CA00432";
shapes = (
{
closed = 1;
nodes = (
(80,0,l),
(246,0,l),
(246,700,l),
(80,700,l)
);
}
);
width = 326;
}
);
leftKerningGroup = B;
rightKerningGroup = H;
unicode = 73;
},
{
glyphname = O;
layers = (
{
anchors = (
{
name = top;
position = "{398, 719}";
},
{
name = bottom;
position = "{398, -20}";
},
{
name = ogonek;
position = "{522, -1}";
},
{
name = topgr;
position = "{-4, 500}";
}
);
hints = (
{
place = (23,167);
type = Stem;
},
{
place = (605,167);
type = Stem;
},
{
horizontal = 1;
place = (-20,121);
type = Stem;
},
{
horizontal = 1;
place = (599,121);
type = Stem;
}
);
layerId = "F681C90F-60C6-46B5-9262-264E5CA00432";
shapes = (
{
closed = 1;
nodes = (
(281.605,111,o),
(206,210,o),
(206,353,cs),
(206,498,o),
(275.636,589,o),
(395.013,589,cs),
(515.384,589,o),
(589,493,o),
(589,346,cs),
(589,204,o),
(517.374,111,o),
(398.992,111,cs)
);
},
{
closed = 1;
nodes = (
(38,142,o),
(178,-20,o),
(397,-20,cs),
(621,-20,o),
(757,144,o),
(757,350,cs),
(757,557,o),
(616,720,o),
(398,720,cs),
(180,720,o),
(38,560,o),
(38,350,cs)
);
}
);
width = 795;
}
);
leftKerningGroup = C1;
rightKerningGroup = C;
unicode = 79;
},
{
glyphname = N;
layers = (
{
anchors = (
{
name = top;
position = "{376, 719}";
},
{
name = bottom;
position = "{376, -20}";
}
);
hints = (
{
place = (67,166);
type = Stem;
},
{
place = (519,166);
type = Stem;
},
{
horizontal = 1;
place = (0,21);
target = up;
type = BottomGhost;
},
{
horizontal = 1;
place = (700,-20);
target = down;
type = TopGhost;
}
);
layerId = "F681C90F-60C6-46B5-9262-264E5CA00432";
shapes = (
{
closed = 1;
nodes = (
(233,0,l),
(233,439,l),
(529,0,l),
(685,0,l),
(685,700,l),
(519,700,l),
(519,261,l),
(223,700,l),
(67,700,l),
(67,0,l)
);
}
);
width = 752;
}
);
leftKerningGroup = B;
rightKerningGroup = H;
unicode = 78;
},
{
glyphname = Q;
layers = (
{
anchors = (
{
name = top;
position = "{398, 719}";
},
{
name = bottom;
position = "{398, -20}";
},
{
name = ogonek;
position = "{522, -1}";
}
);
layerId = "F681C90F-60C6-46B5-9262-264E5CA00432";
shapes = (
{
closed = 1;
nodes = (
(281.605,111,o),
(206,210,o),
(206,353,cs),
(206,498,o),
(275.636,589,o),
(395.013,589,cs),
(515.384,589,o),
(589,493,o),
(589,346,cs),
(589,204,o),
(517.374,111,o),
(398.992,111,cs)
);
},
{
closed = 1;
nodes = (
(38,142,o),
(178,-20,o),
(397,-20,cs),
(621,-20,o),
(757,144,o),
(757,350,cs),
(757,557,o),
(616,720,o),
(398,720,cs),
(180,720,o),
(38,560,o),
(38,350,cs)
);
},
{
closed = 1;
nodes = (
(340,-3,l),
(340,-197,o),
(403,-221,o),
(644,-221,c),
(644,-91,l),
(503,-91,o),
(493,-84,o),
(493,-3,c)
);
}
);
width = 795;
}
);
leftKerningGroup = C1;
rightKerningGroup = C;
unicode = 81;
},
{
glyphname = J;
layers = (
{
anchors = (
{
name = bottom;
position = "{278, -20}";
},
{
name = top;
position = "{433, 719}";
}
);
hints = (
{
place = (351,166);
type = Stem;
},
{
horizontal = 1;
place = (-20,120);
type = Stem;
},
{
horizontal = 1;
place = (700,-20);
target = down;
type = TopGhost;
}
);
layerId = "F681C90F-60C6-46B5-9262-264E5CA00432";
shapes = (
{
closed = 1;
nodes = (
(27,122,l),
(86,30,o),
(168,-20,o),
(278,-20,cs),
(424,-20,o),
(517,67,o),
(517,222,cs),
(517,700,l),
(351,700,l),
(351,240,ls),
(351,148,o),
(327,110,o),
(269,110,cs),
(217,110,o),
(178,140,o),
(122,217,c)
);
}
);
width = 580;
}
);
leftKerningGroup = J;
rightKerningGroup = J1;
unicode = 74;
},
{
glyphname = T;
layers = (
{
anchors = (
{
name = top;
position = "{324, 719}";
},
{
name = bottom;
position = "{324, -20}";
}
);
hints = (
{
place = (241,166);
type = Stem;
},
{
horizontal = 1;
place = (580,120);
type = Stem;
},
{
horizontal = 1;
place = (0,21);
target = up;
type = BottomGhost;
}
);
layerId = "F681C90F-60C6-46B5-9262-264E5CA00432";
shapes = (
{
closed = 1;
nodes = (
(21,700,l),
(21,570,l),
(241,570,l),
(241,0,l),
(407,0,l),
(407,570,l),
(627,570,l),
(627,700,l)
);
}
);
width = 648;
}
);
leftKerningGroup = T;
rightKerningGroup = T1;
unicode = 84;
},
{
glyphname = U;
layers = (
{
anchors = (
{
name = top;
position = "{338, 719}";
},
{
name = bottom;
position = "{338, -20}";
},
{
name = ogonek;
position = "{450, -1}";
}
);
hints = (
{
place = (60,166);
type = Stem;
},
{
place = (449,166);
type = Stem;
},
{
horizontal = 1;
place = (-20,120);
type = Stem;
},
{
horizontal = 1;
place = (700,-20);
target = down;
type = TopGhost;
}
);
layerId = "F681C90F-60C6-46B5-9262-264E5CA00432";
shapes = (
{
closed = 1;
nodes = (
(60,700,l),
(60,262,ls),
(60,88,o),
(165,-20,o),
(336,-20,cs),
(507,-20,o),
(615,89,o),
(615,262,cs),
(615,700,l),
(449,700,l),
(449,285,ls),
(449,168,o),
(412,110,o),
(338,110,cs),
(263,110,o),
(226,168,o),
(226,285,cs),
(226,700,l)
);
}
);
width = 675;
}
);
leftKerningGroup = U;
rightKerningGroup = J1;
unicode = 85;
},
{
glyphname = P;
layers = (
{
anchors = (
{
name = top;
position = "{322, 719}";
},
{
name = bottom;
position = "{322, -20}";
}
);
hints = (
{
place = (68,166);
type = Stem;
},
{
place = (438,167);
type = Stem;
},
{
horizontal = 1;
place = (216,121);
type = Stem;
},
{
horizontal = 1;
place = (580,120);
type = Stem;
},
{
horizontal = 1;
place = (0,21);
target = up;
type = BottomGhost;
}
);
layerId = "F681C90F-60C6-46B5-9262-264E5CA00432";
shapes = (
{
closed = 1;
nodes = (
(234,0,l),
(234,216,l),
(334,216,ls),
(524,216,o),
(605,334,o),
(605,460,cs),
(605,585,o),
(524,700,o),
(334,700,cs),
(68,700,l),
(68,0,l)
);
},
{
closed = 1;
nodes = (
(234,347,l),
(234,570,l),
(299,570,ls),
(381,570,o),
(438,537,o),
(438,458,cs),
(438,380,o),
(382,347,o),
(299,347,cs)
);
}
);
width = 644;
}
);
leftKerningGroup = B;
rightKerningGroup = P;
unicode = 80;
},
{
glyphname = R;
layers = (
{
anchors = (
{
name = top;
position = "{324, 719}";
},
{
name = bottom;
position = "{324, -20}";
}
);
hints = (
{
place = (68,166);
type = Stem;
},
{
place = (442,167);
type = Stem;
},
{
horizontal = 1;
place = (244,120);
type = Stem;
},
{
horizontal = 1;
place = (580,120);
type = Stem;
},
{
horizontal = 1;
place = (0,21);
target = up;
type = BottomGhost;
}
);
layerId = "F681C90F-60C6-46B5-9262-264E5CA00432";
shapes = (
{
closed = 1;
nodes = (
(234,0,l),
(234,570,l),
(314,570,ls),
(410,570,o),
(442,537,o),
(442,472,cs),
(442,407,o),
(410,374,o),
(314,374,cs),
(100,374,l),
(100,244,l),
(348,244,ls),
(507,244,o),
(609,334,o),
(609,476,cs),
(609,615,o),
(511,700,o),
(348,700,cs),
(68,700,l),
(68,0,l)
);
},
{
closed = 1;
nodes = (
(306,281,l),
(449,0,l),
(627,0,l),
(457,333,l)
);
}
);
width = 648;
}
);
leftKerningGroup = B;
rightKerningGroup = R;
unicode = 82;
},
{
glyphname = K;
layers = (
{
anchors = (
{
name = top;
position = "{335, 719}";
},
{
name = bottom;
position = "{335, -20}";
}
);
hints = (
{
place = (68,166);
type = Stem;
},
{
horizontal = 1;
place = (0,21);
target = up;
type = BottomGhost;
},
{
horizontal = 1;
place = (700,-20);
target = down;
type = TopGhost;
}
);
layerId = "F681C90F-60C6-46B5-9262-264E5CA00432";
shapes = (
{
closed = 1;
nodes = (
(58,700,l),
(58,0,l),
(224,0,l),
(224,700,l)
);
},
{
closed = 1;
nodes = (
(320,421,l),
(117,421,l),
(106,287,l),
(308,287,l),
(467,0,l),
(659,0,l),
(447,367,l),
(655,700,l),
(481,700,l)
);
}
);
width = 670;
}
);
leftKerningGroup = B;
rightKerningGroup = K;
unicode = 75;
},
{
glyphname = V;
layers = (
{
anchors = (
{
name = top;
position = "{328, 719}";
},
{
name = bottom;
position = "{328, -20}";
}
);
layerId = "F681C90F-60C6-46B5-9262-264E5CA00432";
shapes = (
{
closed = 1;
nodes = (
(421,0,l),
(648,700,l),
(474,700,l),
(283,0,l)
);
},
{
closed = 1;
nodes = (
(372,0,l),
(181,700,l),
(7,700,l),
(234,0,l)
);
}
);
width = 655;
}
);
leftKerningGroup = V1;
rightKerningGroup = V;
unicode = 86;
},
{
glyphname = W;
layers = (
{
anchors = (
{
name = top;
position = "{480, 719}";
},
{
name = bottom;
position = "{480, -20}";
}
);
hints = (
{
horizontal = 1;
place = (700,-20);
target = down;
type = TopGhost;
},
{
horizontal = 1;
place = (0,21);
target = up;
type = BottomGhost;
}
);
layerId = "F681C90F-60C6-46B5-9262-264E5CA00432";
shapes = (
{
closed = 1;
nodes = (
(203,0,l),
(340,0,l),
(175,700,l),
(2,700,l)
);
},
{
closed = 1;
nodes = (
(237,0,l),
(371,0,l),
(536,700,l),
(402,700,l)
);
},
{
closed = 1;
nodes = (
(590,0,l),
(724,0,l),
(559,700,l),
(425,700,l)
);
},
{
closed = 1;
nodes = (
(621,0,l),
(758,0,l),
(959,700,l),
(786,700,l)
);
}
);
width = 960;
}
);
leftKerningGroup = V1;
rightKerningGroup = V;
unicode = 87;
},
{
glyphname = Y;
layers = (
{
anchors = (
{
name = top;
position = "{331, 719}";
},
{
name = bottom;
position = "{331, -20}";
},
{
name = topgr;
position = "{-95, 500}";
}
);
hints = (
{
place = (249,167);
type = Stem;
},
{
horizontal = 1;
place = (700,-20);
target = down;
type = TopGhost;
},
{
horizontal = 1;
place = (0,21);
target = up;
type = BottomGhost;
}
);
layerId = "F681C90F-60C6-46B5-9262-264E5CA00432";
shapes = (
{
closed = 1;
nodes = (
(248,0,l),
(414,0,l),
(414,284,l),
(654,700,l),
(463,700,l),
(331,452,l),
(199,700,l),
(8,700,l),
(248,284,l)
);
}
);
width = 662;
}
);
leftKerningGroup = Y1;
rightKerningGroup = Y;
unicode = 89;
},
{
glyphname = Z;
layers = (
{
anchors = (
{
name = top;
position = "{307, 719}";
},
{
name = bottom;
position = "{297, -20}";
}
);
hints = (
{
horizontal = 1;
place = (0,120);
type = Stem;
},
{
horizontal = 1;
place = (580,120);
type = Stem;
}
);
layerId = "F681C90F-60C6-46B5-9262-264E5CA00432";
shapes = (
{
closed = 1;
nodes = (
(27,120,l),
(27,0,l),
(567,0,l),
(567,130,l),
(238,130,l),
(565,580,l),
(565,700,l),
(55,700,l),
(55,570,l),
(354,570,l)
);
}
);
width = 594;
}
);
leftKerningGroup = Z1;
rightKerningGroup = Z;
unicode = 90;
},
{
glyphname = M;
layers = (
{
anchors = (
{
name = top;
position = "{454, 719}";
},
{
name = bottom;
position = "{454, -20}";
}
);
hints = (
{
place = (67,166);
type = Stem;
},
{
place = (675,166);
type = Stem;
},
{
horizontal = 1;
place = (700,-20);
target = down;
type = TopGhost;
},
{
horizontal = 1;
place = (0,21);
target = up;
type = BottomGhost;
}
);
layerId = "F681C90F-60C6-46B5-9262-264E5CA00432";
shapes = (
{
closed = 1;
nodes = (
(227,382,l,{name = iv01;}),
(411,0,l,{name = ab01;}),
(497,0,l),
(681,382,l,{name = iv02;}),
(681,0,l,{name = ab02;}),
(841,0,l),
(841,700,l,{name = at01;}),
(681,700,l),
(454,226,l,{name = iv03;}),
(227,700,l,{name = at02;}),
(67,700,l),
(67,0,l,{name = ab03;}),
(227,0,l)
);
}
);
width = 908;
}
);
leftKerningGroup = B;
rightKerningGroup = H;
unicode = 77;
},
{
glyphname = X;
layers = (
{
anchors = (
{
name = top;
position = "{324, 719}";
},
{
name = bottom;
position = "{324, -20}";
}
);
hints = (
{
horizontal = 1;
place = (700,-20);
target = down;
type = TopGhost;
},
{
horizontal = 1;
place = (0,21);
target = up;
type = BottomGhost;
}
);
layerId = "F681C90F-60C6-46B5-9262-264E5CA00432";
shapes = (
{
closed = 1;
nodes = (
(10,0,l),
(204,0,l),
(325,218,l),
(446,0,l),
(641,0,l),
(428,354,l),
(636,700,l),
(441,700,l),
(324,489,l),
(207,700,l),
(11,700,l),
(221,351,l)
);
}
);
width = 648;
}
);
leftKerningGroup = X;
rightKerningGroup = K;
unicode = 88;
},
{
glyphname = s;
layers = (
{
anchors = (
{
name = top;
position = "{253, 520}";
},
{
name = bottom;
position = "{253, -20}";
}
);
hints = (
{
place = (36,165);
type = Stem;
},
{
place = (304,165);
type = Stem;
},
{
horizontal = 1;
place = (-20,111);
type = Stem;
},
{
horizontal = 1;
place = (410,110);
type = Stem;
}
);
layerId = "F681C90F-60C6-46B5-9262-264E5CA00432";
shapes = (
{
closed = 1;
nodes = (
(367,-20,o),
(469,45,o),
(469,147,cs),
(469,214,o),
(424,268,o),
(284,307,cs),
(236,321,o),
(201,326,o),
(201,359,cs),
(201,381,o),
(217,397,o),
(257,397,cs),
(301,397,o),
(347,377,o),
(374,342,c),
(459,427,l),
(411,486,o),
(334,520,o),
(237,520,cs),
(121,520,o),
(36,450,o),
(36,357,cs),
(36,283,o),
(91,224,o),
(219,198,cs),
(253,191,o),
(304,184,o),
(304,148,cs),
(304,122,o),
(276,103,o),
(232,103,cs),
(186,103,o),
(140,123,o),
(113,158,c),
(28,73,l),
(76,14,o),
(153,-20,o),
(243,-20,cs)
);
}
);
width = 507;
}
);
leftKerningGroup = s1;
rightKerningGroup = s;
unicode = 115;
},
{
glyphname = S;
layers = (
{
anchors = (
{
name = bottom;
position = "{310, -20}";
},
{
name = top;
position = "{286, 719}";
}
);
hints = (
{
place = (36,163);
type = Stem;
},
{
place = (423,156);
type = Stem;
},
{
horizontal = 1;
place = (-20,120);
type = Stem;
},
{
horizontal = 1;
place = (600,120);
type = Stem;
}
);
layerId = "F681C90F-60C6-46B5-9262-264E5CA00432";
shapes = (
{
closed = 1;
nodes = (
(180,-20,o),
(90,32,o),
(30,104,c),
(125,199,l),
(171.17,144,o),
(232.396,111,o),
(300.648,111,cs),
(362.878,111,o),
(396,138,o),
(396,191,cs),
(396,238,o),
(369.958,257.139,o),
(280.678,277,cs),
(109.23,315.139,o),
(38,386,o),
(38,498,cs),
(38,635,o),
(133,720,o),
(287,720,cs),
(407,720,o),
(497,668,o),
(557,596,c),
(462,501,l),
(415.822,556,o),
(354.585,589,o),
(294.353,589,cs),
(232.112,589,o),
(203,553,o),
(203,501,cs),
(203,442,o),
(240.087,419.922,o),
(336.373,399,cs),
(497.807,363.922,o),
(561,298,o),
(561,197,cs),
(561,61,o),
(473,-20,o),
(310,-20,cs)
);
}
);
width = 600;
}
);
leftKerningGroup = S1;
rightKerningGroup = S;
unicode = 83;
},
{
glyphname = period;
layers = (
{
hints = (
{
place = (41,180);
type = Stem;
},
{
horizontal = 1;
place = (-20,180);
type = Stem;
}
);
layerId = "F681C90F-60C6-46B5-9262-264E5CA00432";
shapes = (
{
closed = 1;
nodes = (
(41,21,o),
(79,-20,o),
(131,-20,cs),
(182,-20,o),
(221,21,o),
(221,71,cs),
(221,121,o),
(182,160,o),
(131,160,cs),
(79,160,o),
(41,121,o),
(41,71,cs)
);
}
);
width = 262;
}
);
unicode = 46;
},
{
glyphname = comma;
layers = (
{
hints = (
{
place = (41,180);
type = Stem;
},
{
horizontal = 1;
place = (-20,180);
type = Stem;
}
);
layerId = "F681C90F-60C6-46B5-9262-264E5CA00432";
shapes = (
{
closed = 1;
nodes = (
(41,21,o),
(79,-20,o),
(135,-20,c),
(128,-52,o),
(86,-106,o),
(45,-137,c),
(55,-178,l),
(166,-111,o),
(221,-35,o),
(221,50,cs),
(221,121,o),
(182,160,o),
(131,160,cs),
(79,160,o),
(41,121,o),
(41,72,cs)
);
}
);
width = 262;
}
);
unicode = 44;
},
{
glyphname = parenleft;
layers = (
{
hints = (
{
place = (50,164);
type = Stem;
}
);
layerId = "F681C90F-60C6-46B5-9262-264E5CA00432";
shapes = (
{
closed = 1;
nodes = (
(365,-135,l),
(278,-103,o),
(214,78,o),
(214,291,cs),
(214,489,o),
(273,648,o),
(365,697,c),
(365,777,l),
(170,741,o),
(50,564,o),
(50,310,cs),
(50,26,o),
(182,-194,o),
(365,-215,c)
);
}
);
width = 391;
}
);
unicode = 40;
},
{
glyphname = parenright;
layers = (
{
hints = (
{
place = (176,165);
type = Stem;
}
);
layerId = "F681C90F-60C6-46B5-9262-264E5CA00432";
shapes = (
{
closed = 1;
nodes = (
(25,709,l),
(114,656,o),
(176,506,o),
(176,289,cs),
(176,70,o),
(113,-112,o),
(25,-147,c),
(25,-215,l),
(220,-177,o),
(341,17,o),
(341,291,cs),
(341,560,o),
(224,740,o),
(25,777,c)
);
}
);
width = 384;
}
);
unicode = 41;
},
{
glyphname = exclam;
layers = (
{
hints = (
{
place = (37,180);
type = Stem;
},
{
place = (50,155);
type = Stem;
},
{
horizontal = 1;
place = (-20,180);
type = Stem;
},
{
horizontal = 1;
place = (750,-20);
target = down;
type = TopGhost;
},
{
place = (44,166);
type = Stem;
},
{
horizontal = 1;
place = (-20,166);
type = Stem;
}
);
layerId = "F681C90F-60C6-46B5-9262-264E5CA00432";
shapes = (
{
closed = 1;
nodes = (
(58,249,l),
(197,249,l),
(213,750,l),
(42,750,l)
);
},
{
alignment = -1;
pos = (6.399,-1.588);
ref = period;
scale = (0.921,0.921);
}
);
width = 255;
}
);
unicode = 33;
},
{
glyphname = bar;
layers = (
{
hints = (
{
place = (40,38);
type = Stem;
},
{
horizontal = 1;
place = (-131,21);
target = up;
type = BottomGhost;
},
{
horizontal = 1;
place = (750,-20);
target = down;
type = TopGhost;
}
);
layerId = "F681C90F-60C6-46B5-9262-264E5CA00432";
shapes = (
{
closed = 1;
nodes = (
(40,-131,l),
(78,-131,l),
(78,750,l),
(40,750,l)
);
}
);
width = 118;
}
);
unicode = 124;
},
{
glyphname = braceright;
layers = (
{
hints = (
{
place = (108,136);
type = Stem;
}
);
layerId = "F681C90F-60C6-46B5-9262-264E5CA00432";
shapes = (
{
closed = 1;
nodes = (
(344,299,l),
(282,310,o),
(244,372,o),
(244,422,cs),
(244,604.027,ls),
(244,700.154,o),
(188,803.439,o),
(52,874,c),
(34,826,l),
(86,794.199,o),
(108,732.649,o),
(108,609.548,cs),
(108,429,ls),
(108,365,o),
(130,315,o),
(224,289,c),
(127,261,o),
(108,203,o),
(108,139,cs),
(108,-82.805,ls),
(108,-202.014,o),
(86,-257.709,o),
(34,-288,c),
(52,-336,l),
(188,-268.35,o),
(244,-174.229,o),
(244,-75.205,cs),
(244,165,ls),
(244,236,o),
(302,272,o),
(344,282,c)
);
}
);
width = 366;
}
);
unicode = 125;
},
{
glyphname = hyphen;
layers = (
{
hints = (
{
horizontal = 1;
place = (261,36);
type = Stem;
}
);
layerId = "F681C90F-60C6-46B5-9262-264E5CA00432";
shapes = (
{
closed = 1;
nodes = (
(50,251,l),
(339.505,251,l),
(339.505,307,l),
(50,307,l)
);
}
);
width = 390;
}
);
unicode = 45;
},
{
glyphname = endash;
layers = (
{
hints = (
{
horizontal = 1;
place = (262,34);
type = Stem;
}
);
layerId = "F681C90F-60C6-46B5-9262-264E5CA00432";
shapes = (
{
closed = 1;
nodes = (
(50,262,l),
(505,262,l),
(505,296,l),
(50,296,l)
);
}
);
width = 555;
}
);
unicode = 8211;
},
{
glyphname = emdash;
layers = (
{
hints = (
{
horizontal = 1;
place = (262,34);
type = Stem;
}
);
layerId = "F681C90F-60C6-46B5-9262-264E5CA00432";
shapes = (
{
closed = 1;
nodes = (
(50,262,l),
(864,262,l),
(864,296,l),
(50,296,l)
);
}
);
width = 914;
}
);
unicode = 8212;
},
{
glyphname = slash;
layers = (
{
hints = (
{
horizontal = 1;
place = (0,21);
target = up;
type = BottomGhost;
},
{
horizontal = 1;
place = (700,-20);
target = down;
type = TopGhost;
}
);
layerId = "F681C90F-60C6-46B5-9262-264E5CA00432";
shapes = (
{
closed = 1;
nodes = (
(-42,0,l),
(-8,0,l),
(364,700,l),
(330,700,l)
);
}
);
width = 315;
}
);
unicode = 47;
},
{
glyphname = greater;
layers = (
{
layerId = "F681C90F-60C6-46B5-9262-264E5CA00432";
shapes = (
{
closed = 1;
nodes = (
(50,6,l),
(509,239,l),
(509,287,l),
(50,510,l),
(50,490,l),
(461,263,l),
(50,26,l)
);
}
);
width = 573;
}
);
unicode = 62;
},
{
glyphname = less;
layers = (
{
layerId = "F681C90F-60C6-46B5-9262-264E5CA00432";
shapes = (
{
closed = 1;
nodes = (
(509,6,l),
(509,26,l),
(98,263,l),
(509,490,l),
(509,510,l),
(50,287,l),
(50,239,l)
);
}
);
width = 544;
}
);
unicode = 60;
},
{
glyphname = cent;
layers = (
{
hints = (
{
place = (29,165);
type = Stem;
},
{
horizontal = 1;
place = (80,111);
type = Stem;
},
{
horizontal = 1;
place = (509,111);
type = Stem;
}
);
layerId = "F681C90F-60C6-46B5-9262-264E5CA00432";
shapes = (
{
closed = 1;
nodes = (
(337,610,l),
(337,730,l),
(287,730,l),
(287,610,l)
);
},
{
closed = 1;
nodes = (
(288,89,l),
(288,-31,l),
(336,-31,l),
(336,90,l)
);
},
{
alignment = -1;
pos = (0,100);
ref = c;
}
);
width = 563;
}
);
unicode = 162;
},
{
glyphname = Euro;
layers = (
{
hints = (
{
horizontal = 1;
place = (-20,120);
type = Stem;
},
{
horizontal = 1;
place = (270,70);
type = Stem;
},
{
horizontal = 1;
place = (364,70);
type = Stem;
},
{
horizontal = 1;
place = (599,121);
type = Stem;
}
);
layerId = "F681C90F-60C6-46B5-9262-264E5CA00432";
shapes = (
{
closed = 1;
nodes = (
(224,720,o),
(112,582,o),
(90,434,c),
(25,434,l),
(15,364,l),
(512,364,l),
(522,434,l),
(259,434,l),
(262,523,o),
(329,589,o),
(431,589,cs),
(498,589,o),
(561,562,o),
(606,504,c),
(701,599,l),
(633,683,o),
(548,720,o),
(425,720,cs)
);
},
{
closed = 1;
nodes = (
(325,110,o),
(262,185,o),
(258,270,c),
(498,270,l),
(508,340,l),
(25,340,l),
(15,270,l),
(89,270,l),
(111,120,o),
(228,-20,o),
(431,-20,cs),
(568,-20,o),
(635,23,o),
(706,102,c),
(611,197,l),
(562,139,o),
(498,110,o),
(431,110,cs)
);
}
);
width = 730;
}
);
unicode = 8364;
},
{
glyphname = infinity;
layers = (
{
hints = (
{
place = (27,20);
type = Stem;
},
{
place = (674,20);
type = Stem;
},
{
horizontal = 1;
place = (214,20);
type = Stem;
},
{
horizontal = 1;
place = (425,48);
type = Stem;
},
{
horizontal = 1;
place = (453,20);
type = Stem;
},
{
horizontal = 1;
place = (214,47);
type = Stem;
}
);
layerId = "F681C90F-60C6-46B5-9262-264E5CA00432";
shapes = (
{
closed = 1;
nodes = (
(78,473,o),
(27,402,o),
(27,330,cs),
(27,241,o),
(92,214,o),
(153,214,cs),
(238,214,o),
(301,266,o),
(328,297,c),
(264,259,o),
(213,234,o),
(153,234,cs),
(96,234,o),
(47,266,o),
(47,326,cs),
(47,389,o),
(86,425,o),
(157,425,cs),
(197,425,o),
(256,384,o),
(316,339,cs),
(443,245,o),
(501,213,o),
(559,213,cs),
(643,213,o),
(694,284,o),
(694,356,cs),
(694,446,o),
(629,473,o),
(568,473,cs),
(483,473,o),
(420,421,o),
(393,390,c),
(457,428,o),
(508,453,o),
(568,453,cs),
(625,453,o),
(674,421,o),
(674,360,cs),
(674,297,o),
(635,261,o),
(564,261,cs),
(503,261,o),
(431,311,o),
(361,365,cs),
(290,420,o),
(220,473,o),
(154,473,cs)
);
}
);
width = 719;
}
);
unicode = 8734;
},
{
glyphname = Delta;
layers = (
{
layerId = "F681C90F-60C6-46B5-9262-264E5CA00432";
shapes = (
{
closed = 1;
nodes = (
(163,0,l),
(489,0,l),
(445,130,l),
(207,130,l)
);
},
{
closed = 1;
nodes = (
(234,700,l),
(7,0,l),
(181,0,l),
(382,700,l)
);
},
{
closed = 1;
nodes = (
(273,700,l),
(474,0,l),
(648,0,l),
(421,700,l)
);
}
);
width = 655;
}
);
leftKerningGroup = A1;
rightKerningGroup = A;
unicode = 916;
},
{
glyphname = Ohm;
layers = (
{
anchors = (
{
name = topgr;
position = "{-20, 500}";
}
);
hints = (
{
place = (38,166);
type = Stem;
},
{
place = (606,166);
type = Stem;
},
{
horizontal = 1;
place = (0,121);
type = Stem;
},
{
horizontal = 1;
place = (599,121);
type = Stem;
}
);
layerId = "F681C90F-60C6-46B5-9262-264E5CA00432";
shapes = (
{
closed = 1;
nodes = (
(56,0,l),
(368,0,l),
(368,130,l),
(257.366,186,o),
(206,267.903,o),
(206,382.381,cs),
(206,499.651,o),
(265.388,589,o),
(395.051,589,cs),
(524.714,589,o),
(594,498.721,o),
(594,381.45,cs),
(594,266.972,o),
(533.739,186,o),
(431,130,c),
(431,0,l),
(742.5,0,l),
(742.5,131,l),
(595,131,l),
(704,178,o),
(762,284,o),
(762,401,cs),
(762,578,o),
(615,720,o),
(400,720,cs),
(180,720,o),
(38,572,o),
(38,396,cs),
(38,278,o),
(95,177,o),
(204,131,c),
(56,131,l)
);
}
);
width = 800;
}
);
leftKerningGroup = C1;
rightKerningGroup = C;
unicode = 8486;
},
{
glyphname = product;
layers = (
{
hints = (
{
place = (67,166);
type = Stem;
},
{
place = (532,167);
type = Stem;
},
{
horizontal = 1;
place = (580,120);
type = Stem;
},
{
horizontal = 1;
place = (-146,21);
target = up;
type = BottomGhost;
}
);
layerId = "F681C90F-60C6-46B5-9262-264E5CA00432";
shapes = (
{
closed = 1;
nodes = (
(232.5,-126.014,l),
(232.5,570,l),
(534,570,l),
(534,-126.014,l),
(699,-126.014,l),
(699,700,l),
(67.5,700,l),
(67.5,-126.014,l)
);
}
);
width = 766;
}
);
unicode = 8719;
},
{
glyphname = guilsinglleft;
layers = (
{
layerId = "F681C90F-60C6-46B5-9262-264E5CA00432";
shapes = (
{
closed = 1;
nodes = (
(275,20,l),
(97,254,l),
(97,266,l),
(275,500,l),
(265,518,l),
(50,284,l),
(50,236,l),
(265,2,l)
);
}
);
width = 305;
}
);
unicode = 8249;
},
{
glyphname = guilsinglright;
layers = (
{
layerId = "F681C90F-60C6-46B5-9262-264E5CA00432";
shapes = (
{
closed = 1;
nodes = (
(30,20,l),
(40,2,l),
(255,236,l),
(255,284,l),
(40,518,l),
(30,500,l),
(208,266,l),
(208,254,l)
);
}
);
width = 305;
}
);
unicode = 8250;
},
{
glyphname = estimated;
layers = (
{
hints = (
{
place = (57,117);
type = Stem;
},
{
place = (681,113);
type = Stem;
},
{
horizontal = 1;
place = (-6,70);
type = Stem;
},
{
horizontal = 1;
place = (363,70);
type = Stem;
},
{
horizontal = 1;
place = (662,70);
type = Stem;
}
);
layerId = "F681C90F-60C6-46B5-9262-264E5CA00432";
shapes = (
{
closed = 1;
nodes = (
(174,363,l),
(794,363,l),
(794,585,o),
(643,732,o),
(425,732,cs),
(207,732,o),
(57,585,o),
(57,363,cs),
(57,141,o),
(205,-6,o),
(425,-6,cs),
(512,-6,o),
(588,17,o),
(648,59,c),
(636,125,l),
(580,87,o),
(505,64,o),
(422,64,cs),
(303,64,o),
(235,111,o),
(174,193,c)
);
},
{
closed = 1;
nodes = (
(681,433,l),
(175,433,l),
(175,540,l),
(237,618,o),
(308,662,o),
(424,662,cs),
(545,662,o),
(620,614,o),
(681,532,c)
);
}
);
width = 850;
}
);
unicode = 8494;
},
{
glyphname = underscore;
layers = (
{
hints = (
{
horizontal = 1;
place = (-63,36);
type = Stem;
}
);
layerId = "F681C90F-60C6-46B5-9262-264E5CA00432";
shapes = (
{
closed = 1;
nodes = (
(0,-63,l),
(500,-63,l),
(500,-27,l),
(0,-27,l)
);
}
);
width = 500;
}
);
unicode = 95;
},
{
glyphname = guillemotleft;
layers = (
{
layerId = "F681C90F-60C6-46B5-9262-264E5CA00432";
shapes = (
{
closed = 1;
nodes = (
(267,27,l),
(79,255,l),
(268,496,l),
(254,510,l),
(32,280,l),
(32,232,l),
(253,13,l)
);
},
{
closed = 1;
nodes = (
(470,27,l),
(282,255,l),
(471,496,l),
(457,510,l),
(235,280,l),
(235,232,l),
(456,13,l)
);
}
);
width = 489;
}
);
unicode = 171;
},
{
glyphname = guillemotright;
layers = (
{
layerId = "F681C90F-60C6-46B5-9262-264E5CA00432";
shapes = (
{
closed = 1;
nodes = (
(230,27,l),
(244,13,l),
(465,232,l),
(465,280,l),
(243,510,l),
(229,496,l),
(418,255,l)
);
},
{
closed = 1;
nodes = (
(27,27,l),
(41,13,l),
(262,232,l),
(262,280,l),
(40,510,l),
(26,496,l),
(215,255,l)
);
}
);
width = 494;
}
);
unicode = 187;
},
{
glyphname = commaaccentcomb;
layers = (
{
anchors = (
{
name = bottom;
position = "{123, -248}";
},
{
name = _bottom;
position = "{123, 0}";
}
);
hints = (
{
place = (52,142);
type = Stem;
},
{
horizontal = 1;
place = (-193,119);
type = Stem;
}
);
layerId = "F681C90F-60C6-46B5-9262-264E5CA00432";
shapes = (
{
closed = 1;
nodes = (
(58,-153.18,o),
(84,-173,o),
(113,-173,cs),
(124,-173,o),
(136,-170,o),
(138,-166,c),
(135,-197,o),
(108,-229,o),
(66,-250,c),
(84,-277,l),
(147,-259.084,o),
(188,-199.363,o),
(188,-138.647,cs),
(188,-97.837,o),
(169,-63,o),
(121,-63,cs),
(84,-63,o),
(58,-83.811,o),
(58,-118.495,cs)
);
}
);
width = 246;
}
);
unicode = 806;
},
{
glyphname = quotesinglbase;
layers = (
{
hints = (
{
place = (64,180);
type = Stem;
},
{
horizontal = 1;
place = (-20,180);
type = Stem;
}
);
layerId = "F681C90F-60C6-46B5-9262-264E5CA00432";
shapes = (
{
closed = 1;
nodes = (
(64,21,o),
(102,-20,o),
(152,-20,cs),
(165,-20,o),
(175,-17,o),
(184,-13,c),
(176,-51,o),
(132,-114,o),
(86,-142,c),
(97,-158,l),
(179,-119,o),
(244,-28,o),
(244,58,cs),
(244,125,o),
(204,160,o),
(154,160,cs),
(102,160,o),
(64,121,o),
(64,71,cs)
);
}
);
width = 308;
}
);
unicode = 8218;
},
{
glyphname = equal;
layers = (
{
hints = (
{
horizontal = 1;
place = (197,36);
type = Stem;
},
{
horizontal = 1;
place = (417,36);
type = Stem;
}
);
layerId = "F681C90F-60C6-46B5-9262-264E5CA00432";
shapes = (
{
closed = 1;
nodes = (
(50,137,l),
(464,137,l),
(464,173,l),
(50,173,l)
);
},
{
closed = 1;
nodes = (
(50,393,l),
(50,357,l),
(464,357,l),
(464,393,l)
);
}
);
width = 514;
}
);
unicode = 61;
},
{
glyphname = notequal;
layers = (
{
hints = (
{
horizontal = 1;
place = (104,116);
type = Stem;
},
{
horizontal = 1;
place = (200,20);
type = Stem;
},
{
horizontal = 1;
place = (430,20);
type = Stem;
},
{
horizontal = 1;
place = (430,96);
type = Stem;
}
);
layerId = "F681C90F-60C6-46B5-9262-264E5CA00432";
shapes = (
{
closed = 1;
nodes = (
(135,44,l),
(183,44,l),
(230,140,l),
(469,140,l),
(469,160,l),
(239,160,l),
(341,370,l),
(469,370,l),
(469,390,l),
(351,390,l),
(388,466,l),
(340,466,l),
(303,390,l),
(55,390,l),
(55,370,l),
(293,370,l),
(191,160,l),
(55,160,l),
(55,140,l),
(182,140,l)
);
}
);
width = 523;
}
);
unicode = 8800;
},
{
glyphname = brokenbar;
layers = (
{
hints = (
{
place = (51,38);
type = Stem;
},
{
horizontal = 1;
place = (751,-20);
target = down;
type = TopGhost;
},
{
horizontal = 1;
place = (-254,21);
target = up;
type = BottomGhost;
}
);
layerId = "F681C90F-60C6-46B5-9262-264E5CA00432";
shapes = (
{
closed = 1;
nodes = (
(51,341,l),
(89,341,l),
(89,751,l),
(51,751,l)
);
},
{
closed = 1;
nodes = (
(51,155,l),
(51,-254,l),
(89,-254,l),
(89,155,l)
);
}
);
width = 140;
}
);
unicode = 166;
},
{
glyphname = micro;
layers = (
{
anchors = (
{
name = topgr;
position = "{300, 520}";
}
);
hints = (
{
place = (57,165);
type = Stem;
},
{
place = (381,165);
type = Stem;
},
{
horizontal = 1;
place = (-20,111);
type = Stem;
},
{
horizontal = 1;
place = (500,-20);
target = down;
type = TopGhost;
},
{
horizontal = 1;
place = (0,21);
target = up;
type = BottomGhost;
}
);
layerId = "F681C90F-60C6-46B5-9262-264E5CA00432";
shapes = (
{
closed = 1;
nodes = (
(57,-200,l),
(222,-200,l),
(222,500,l),
(57,500,l)
);
},
{
closed = 1;
nodes = (
(397,213,l),
(381,283,l),
(381,156.619,o),
(352,100,o),
(288,100,cs),
(239,100,o),
(222,132.161,o),
(222,225.628,cs),
(222,500,l),
(57,500,l),
(57,196,ls),
(57,53,o),
(119,-20,o),
(228,-20,cs),
(319,-20,o),
(372,30,o),
(399,130,c)
);
},
{
closed = 1;
nodes = (
(546,500,l),
(381,500,l),
(381,0,l),
(546,0,l)
);
}
);
width = 600;
}
);
leftKerningGroup = i;
rightKerningGroup = a1;
},
{
glyphname = bracketleft;
layers = (
{
hints = (
{
place = (72,150);
type = Stem;
},
{
horizontal = 1;
place = (-157,70);
type = Stem;
},
{
horizontal = 1;
place = (768,70);
type = Stem;
}
);
layerId = "F681C90F-60C6-46B5-9262-264E5CA00432";
shapes = (
{
closed = 1;
nodes = (
(387,778,l),
(72,778,l),
(72,-217,l),
(387,-217,l),
(387,-117,l),
(222,-117,l),
(222,678,l),
(387,678,l)
);
}
);
width = 420;
}
);
unicode = 91;
},
{
glyphname = bracketright;
layers = (
{
hints = (
{
place = (199,152);
type = Stem;
},
{
horizontal = 1;
place = (-157,70);
type = Stem;
},
{
horizontal = 1;
place = (768,70);
type = Stem;
}
);
layerId = "F681C90F-60C6-46B5-9262-264E5CA00432";
shapes = (
{
closed = 1;
nodes = (
(35,778,l),
(35,678,l),
(199,678,l),
(199,-117,l),
(35,-117,l),
(35,-217,l),
(351,-217,l),
(351,778,l)
);
}
);
width = 418;
}
);
unicode = 93;
},
{
glyphname = minus;
layers = (
{
hints = (
{
horizontal = 1;
place = (323,34);
type = Stem;
}
);
layerId = "F681C90F-60C6-46B5-9262-264E5CA00432";
shapes = (
{
closed = 1;
nodes = (
(50,323,l),
(516,323,l),
(516,357,l),
(50,357,l)
);
}
);
width = 566;
}
);
unicode = 8722;
},
{
glyphname = daggerdbl;
layers = (
{
hints = (
{
place = (284,138);
type = Stem;
},
{
horizontal = 1;
place = (8,61);
type = Stem;
},
{
horizontal = 1;
place = (405,61);
type = Stem;
},
{
horizontal = 1;
place = (-222,21);
target = up;
type = BottomGhost;
},
{
horizontal = 1;
place = (696,-20);
target = down;
type = TopGhost;
}
);
layerId = "F681C90F-60C6-46B5-9262-264E5CA00432";
shapes = (
{
closed = 1;
nodes = (
(269,-222,l),
(435,-222,l),
(427,-15,l),
(650,-29,l),
(650,106,l),
(425,92,l),
(400,237,l),
(425,382,l),
(650,368,l),
(650,503,l),
(427,489,l),
(435,696,l),
(269,696,l),
(278,489,l),
(50,503,l),
(50,368,l),
(280,382,l),
(305,237,l),
(280,92,l),
(50,106,l),
(50,-29,l),
(278,-15,l)
);
}
);
width = 722;
}
);
unicode = 8225;
},
{
glyphname = multiply;
layers = (
{
layerId = "F681C90F-60C6-46B5-9262-264E5CA00432";
shapes = (
{
closed = 1;
nodes = (
(386,110,l),
(411,135,l),
(65,482,l),
(40,457,l)
);
},
{
closed = 1;
nodes = (
(65,110,l),
(411,457,l),
(386,482,l),
(40,135,l)
);
}
);
width = 452;
}
);
unicode = 215;
},
{
glyphname = dagger;
layers = (
{
hints = (
{
place = (282,141);
type = Stem;
},
{
place = (301,103);
type = Stem;
},
{
horizontal = 1;
place = (405,62);
type = Stem;
},
{
horizontal = 1;
place = (696,-20);
target = down;
type = TopGhost;
},
{
horizontal = 1;
place = (-104,21);
target = up;
type = BottomGhost;
}
);
layerId = "F681C90F-60C6-46B5-9262-264E5CA00432";
shapes = (
{
closed = 1;
nodes = (
(396,-104,l),
(425,385,l),
(650,372,l),
(650,502,l),
(427,489,l),
(432,696,l),
(273,696,l),
(277,488,l),
(50,502,l),
(50,372,l),
(279,385,l),
(308,-104,l)
);
}
);
width = 701;
}
);
unicode = 8224;
},
{
glyphname = plus;
layers = (
{
hints = (
{
place = (260,36);
type = Stem;
},
{
horizontal = 1;
place = (322,36);
type = Stem;
},
{
horizontal = 1;
place = (115,21);
target = up;
type = BottomGhost;
},
{
horizontal = 1;
place = (565,-20);
target = down;
type = TopGhost;
}
);
layerId = "F681C90F-60C6-46B5-9262-264E5CA00432";
shapes = (
{
closed = 1;
nodes = (
(260,262,l),
(260,55,l),
(296,55,l),
(296,262,l),
(516,262,l),
(516,298,l),
(296,298,l),
(296,505,l),
(260,505,l),
(260,298,l),
(50,298,l),
(50,262,l)
);
}
);
width = 566;
}
);
unicode = 43;
},
{
glyphname = florin;
layers = (
{
hints = (
{
place = (134,168);
type = Stem;
},
{
horizontal = 1;
place = (-17,111);
type = Stem;
},
{
horizontal = 1;
place = (380,110);
type = Stem;
},
{
horizontal = 1;
place = (608,111);
type = Stem;
}
);
layerId = "F681C90F-60C6-46B5-9262-264E5CA00432";
shapes = (
{
closed = 1;
nodes = (
(137,719,o),
(134,547,o),
(134,406,cs),
(134,191,o),
(141,105,o),
(48,105,cs),
(21,105,o),
(-20,112,o),
(-77,131,c),
(-100,6,l),
(-38,-11,o),
(8,-17,o),
(56,-17,cs),
(325,-17,o),
(302,171,o),
(302,353,cs),
(302,490,o),
(289,597,o),
(389,597,cs),
(420,597,o),
(465,587,o),
(519,569,c),
(544,696,l),
(482,713,o),
(436,719,o),
(389,719,cs)
);
},
{
closed = 1;
nodes = (
(19,494,l),
(19,372,l),
(485,372,l),
(485,494,l)
);
}
);
width = 533;
}
);
unicode = 402;
},
{
glyphname = integral;
layers = (
{
hints = (
{
horizontal = 1;
place = (-223,120);
type = Stem;
},
{
horizontal = 1;
place = (670,120);
type = Stem;
}
);
layerId = "F681C90F-60C6-46B5-9262-264E5CA00432";
shapes = (
{
closed = 1;
nodes = (
(136,83,ls),
(134.625,26.008,o),
(118,-33,o),
(54,-33,cs),
(34,-33,o),
(-9,-27,o),
(-62,20,c),
(-105,-112,l),
(-57,-143,o),
(10,-163,o),
(87,-163,cs),
(227,-163,o),
(289.773,-95.994,o),
(294,59,cs),
(306,499,ls),
(308.345,584.991,o),
(331,630,o),
(399,630,cs),
(416,630,o),
(467,627,o),
(520,580,c),
(557,709,l),
(516,742,o),
(442,760,o),
(369,760,cs),
(227,760,o),
(150.715,692.984,o),
(147,539,cs)
);
}
);
width = 452;
}
);
unicode = 8747;
},
{
glyphname = one;
layers = (
{
hints = (
{
place = (213,166);
type = Stem;
},
{
horizontal = 1;
place = (0,21);
target = up;
type = BottomGhost;
},
{
horizontal = 1;
place = (700,-20);
target = down;
type = TopGhost;
}
);
layerId = "F681C90F-60C6-46B5-9262-264E5CA00432";
shapes = (
{
closed = 1;
nodes = (
(9,378,l),
(127,409,o),
(161,439,o),
(213,493,c),
(213,0,l),
(379,0,l),
(379,700,l),
(236,700,l),
(179,608,o),
(105,535,o),
(9,515,c)
);
}
);
width = 456;
}
);
unicode = 49;
},
{
glyphname = two;
layers = (
{
hints = (
{
place = (415,167);
type = Stem;
},
{
horizontal = 1;
place = (0,120);
type = Stem;
},
{
horizontal = 1;
place = (599,121);
type = Stem;
}
);
layerId = "F681C90F-60C6-46B5-9262-264E5CA00432";
shapes = (
{
closed = 1;
nodes = (
(57,130,l),
(57,0,l),
(571,0,l),
(571,130,l)
);
},
{
closed = 1;
nodes = (
(362,589,o),
(406,558,o),
(406,469,cs),
(406,374,o),
(355,295,o),
(57,235,c),
(57,105,l),
(450,197,o),
(571,285,o),
(571,467,cs),
(571,629,o),
(476,720,o),
(311,720,cs),
(178,720,o),
(104,665,o),
(66,628,c),
(164,530,l),
(216,568,o),
(248,589,o),
(302,589,cs)
);
}
);
width = 632;
}
);
unicode = 50;
},
{
glyphname = quotesingle;
layers = (
{
hints = (
{
place = (36,133);
type = Stem;
},
{
horizontal = 1;
place = (803,-20);
target = down;
type = TopGhost;
},
{
horizontal = 1;
place = (546,21);
target = up;
type = BottomGhost;
}
);
layerId = "F681C90F-60C6-46B5-9262-264E5CA00432";
shapes = (
{
closed = 1;
nodes = (
(43,546,l),
(161,546,l),
(176,803,l),
(28,803,l)
);
}
);
width = 204;
}
);
unicode = 39;
},
{
glyphname = quotedbl;
layers = (
{
hints = (
{
place = (29,149);
type = Stem;
},
{
place = (233,146);
type = Stem;
},
{
horizontal = 1;
place = (803,-20);
target = down;
type = TopGhost;
},
{
horizontal = 1;
place = (546,21);
target = up;
type = BottomGhost;
}
);
layerId = "F681C90F-60C6-46B5-9262-264E5CA00432";
shapes = (
{
closed = 1;
nodes = (
(45,546,l),
(163,546,l),
(178,803,l),
(30,803,l)
);
},
{
closed = 1;
nodes = (
(246,546,l),
(364,546,l),
(379,803,l),
(231,803,l)
);
}
);
width = 409;
}
);
unicode = 34;
},
{
glyphname = logicalnot;
layers = (
{
hints = (
{
place = (435,48);
type = Stem;
},
{
horizontal = 1;
place = (93,229);
type = Stem;
},
{
horizontal = 1;
place = (292,30);
type = Stem;
}
);
layerId = "F681C90F-60C6-46B5-9262-264E5CA00432";
shapes = (
{
closed = 1;
nodes = (
(50,292,l),
(435,292,l),
(435,93,l),
(483,93,l),
(483,322,l),
(50,322,l)
);
}
);
width = 553;
}
);
unicode = 172;
},
{
glyphname = pi;
layers = (
{
anchors = (
{
name = topgr;
position = "{322, 520}";
}
);
hints = (
{
place = (85,165);
type = Stem;
},
{
place = (383,165);
type = Stem;
},
{
place = (383,222);
type = Stem;
},
{
horizontal = 1;
place = (-20,110);
type = Stem;
},
{
horizontal = 1;
place = (390,110);
type = Stem;
},
{
horizontal = 1;
place = (0,21);
target = up;
type = BottomGhost;
}
);
layerId = "F681C90F-60C6-46B5-9262-264E5CA00432";
shapes = (
{
closed = 1;
nodes = (
(383,178.442,ls),
(383,37.045,o),
(429.087,0,o),
(605,0,c),
(605,120,l),
(568,120,o),
(548,132.246,o),
(548,182.174,cs),
(548,380,l),
(616,380,l),
(616,500,l),
(19,500,l),
(19,380,l),
(85,380,l),
(85,0,l),
(250,0,l),
(250,380,l),
(383,380,l)
);
}
);
width = 645;
}
);
leftKerningGroup = i;
unicode = 960;
},
{
glyphname = three;
layers = (
{
hints = (
{
place = (353,167);
type = Stem;
},
{
place = (376,167);
type = Stem;
},
{
horizontal = 1;
place = (-19,120);
type = Stem;
},
{
horizontal = 1;
place = (296,60);
type = Stem;
},
{
horizontal = 1;
place = (362,60);
type = Stem;
},
{
horizontal = 1;
place = (599,121);
type = Stem;
}
);
layerId = "F681C90F-60C6-46B5-9262-264E5CA00432";
shapes = (
{
closed = 1;
nodes = (
(24,84,l),
(87,17,o),
(173,-19,o),
(290,-19,cs),
(473,-19,o),
(542,69,o),
(542,182,cs),
(542,325,o),
(430,388,o),
(192,368,c),
(192,288,l),
(321,288,o),
(377,263,o),
(377,195,cs),
(377,139,o),
(338,111,o),
(274,111,cs),
(217,111,o),
(173,133,o),
(122,182,c)
);
},
{
closed = 1;
nodes = (
(330,589,o),
(355,568,o),
(355,524,cs),
(355,480,o),
(328,439,o),
(192,439,c),
(192,361,l),
(439,351,o),
(520,430,o),
(520,533,cs),
(520,629,o),
(449,720,o),
(286,720,cs),
(155,720,o),
(80,665,o),
(42,628,c),
(140,530,l),
(193,568,o),
(225,589,o),
(280,589,cs)
);
}
);
width = 578;
}
);
unicode = 51;
},
{
glyphname = zero;
layers = (
{
hints = (
{
place = (39,167);
type = Stem;
},
{
place = (421,167);
type = Stem;
},
{
horizontal = 1;
place = (-19,120);
type = Stem;
},
{
horizontal = 1;
place = (598,122);
type = Stem;
}
);
layerId = "F681C90F-60C6-46B5-9262-264E5CA00432";
shapes = (
{
closed = 1;
nodes = (
(40,111,o),
(134.654,-19,o),
(315.991,-19,cs),
(494.339,-19,o),
(587,104,o),
(587,350,cs),
(587,595,o),
(495.335,720,o),
(319.976,720,cs),
(138.639,720,o),
(40,590,o),
(40,348,cs)
);
},
{
closed = 1;
nodes = (
(205,518,o),
(243.353,590,o),
(312.995,590,cs),
(382.637,590,o),
(422,517,o),
(422,349,cs),
(422,172,o),
(378.6,111,o),
(311.986,111,cs),
(243.353,111,o),
(205,174,o),
(205,346,cs)
);
}
);
width = 627;
}
);
unicode = 48;
},
{
glyphname = four;
layers = (
{
hints = (
{
place = (366,166);
type = Stem;
},
{
horizontal = 1;
place = (151,111);
type = Stem;
},
{
horizontal = 1;
place = (700,-20);
target = down;
type = TopGhost;
},
{
horizontal = 1;
place = (0,21);
target = up;
type = BottomGhost;
}
);
layerId = "F681C90F-60C6-46B5-9262-264E5CA00432";
shapes = (
{
closed = 1;
nodes = (
(16,151,l),
(366,151,l),
(366,0,l),
(532,0,l),
(532,151,l),
(658,151,l),
(658,281,l),
(532,281,l),
(532,700,l),
(335,700,l),
(16,227,l)
);
},
{
closed = 1;
nodes = (
(204,281,l),
(366,521,l),
(366,281,l)
);
}
);
width = 685;
}
);
unicode = 52;
},
{
glyphname = five;
layers = (
{
hints = (
{
place = (401,166);
type = Stem;
},
{
horizontal = 1;
place = (-20,120);
type = Stem;
},
{
horizontal = 1;
place = (342,111);
type = Stem;
},
{
horizontal = 1;
place = (580,120);
type = Stem;
}
);
layerId = "F681C90F-60C6-46B5-9262-264E5CA00432";
shapes = (
{
closed = 1;
nodes = (
(243,570,l),
(535,570,l),
(535,700,l),
(113,700,l),
(47,253,l),
(150.145,307,o),
(223.249,333,o),
(289.342,333,cs),
(365.449,333,o),
(401.5,299,o),
(401.5,231,cs),
(401.5,151,o),
(351.411,110,o),
(272.271,110,cs),
(205.152,110,o),
(167.085,140,o),
(119,197,c),
(24,102,l),
(96.933,21,o),
(166.868,-20,o),
(280.763,-20,cs),
(454.603,-20,o),
(566.5,75,o),
(566.5,232,cs),
(566.5,370,o),
(480.625,453,o),
(334.836,453,cs),
(298.888,453,o),
(260.943,448,o),
(222,427,c)
);
}
);
width = 615;
}
);
unicode = 53;
},
{
glyphname = six;
layers = (
{
hints = (
{
place = (28,190);
type = Stem;
},
{
place = (453,146);
type = Stem;
},
{
place = (28,131);
type = Stem;
},
{
horizontal = 1;
place = (-20,120);
type = Stem;
},
{
horizontal = 1;
place = (348,110);
type = Stem;
},
{
horizontal = 1;
place = (599,121);
type = Stem;
}
);
layerId = "F681C90F-60C6-46B5-9262-264E5CA00432";
shapes = (
{
closed = 1;
nodes = (
(400,589,o),
(443.888,567.23,o),
(485,530,c),
(583,628,l),
(545,665,o),
(470,720,o),
(339,720,cs),
(144,720,o),
(28,581,o),
(28,338,cs),
(28,103,o),
(133,-20,o),
(319,-20,cs),
(491,-20,o),
(599,86,o),
(599,228,cs),
(599,372,o),
(493,458,o),
(359,458,cs),
(267.063,458,o),
(187.983,418.001,o),
(163.751,346.555,c),
(179.39,338.906,l),
(173.575,499.134,o),
(232.986,589,o),
(345,589,cs)
);
},
{
closed = 1;
nodes = (
(212,291,o),
(256,338,o),
(327,338,cs),
(395,338,o),
(434,295,o),
(434,228,cs),
(434,155,o),
(389,110,o),
(317,110,cs),
(251,110,o),
(212,148,o),
(212,217,cs)
);
}
);
width = 631;
}
);
unicode = 54;
},
{
glyphname = seven;
layers = (
{
hints = (
{
horizontal = 1;
place = (580,120);
type = Stem;
},
{
horizontal = 1;
place = (0,21);
target = up;
type = BottomGhost;
}
);
layerId = "F681C90F-60C6-46B5-9262-264E5CA00432";
shapes = (
{
closed = 1;
nodes = (
(97,0,l),
(280,0,l),
(560,600,l),
(560,700,l),
(34,700,l),
(34,570,l),
(363,570,l)
);
}
);
width = 565;
}
);
unicode = 55;
},
{
glyphname = eight;
layers = (
{
hints = (
{
place = (26,167);
type = Stem;
},
{
place = (54,167);
type = Stem;
},
{
place = (412,167);
type = Stem;
},
{
place = (383,167);
type = Stem;
},
{
horizontal = 1;
place = (-20,121);
type = Stem;
},
{
horizontal = 1;
place = (313,120);
type = Stem;
},
{
horizontal = 1;
place = (599,121);
type = Stem;
}
);
layerId = "F681C90F-60C6-46B5-9262-264E5CA00432";
shapes = (
{
closed = 1;
nodes = (
(470.391,-20,o),
(578,70,o),
(578,191,cs),
(578,285,o),
(512.363,351,o),
(397,370,c),
(491.379,390,o),
(549,453,o),
(549,537,cs),
(549,650,o),
(442.431,720,o),
(298.016,720,cs),
(151.609,720,o),
(55,648,o),
(55,539,cs),
(55,453,o),
(115.616,391,o),
(213,370,c),
(96.626,351,o),
(27,282,o),
(27,186,cs),
(27,65,o),
(138.595,-20,o),
(302.002,-20,cs)
);
},
{
closed = 1;
nodes = (
(192,268,o),
(235.393,308,o),
(303.005,308,cs),
(368.598,308,o),
(413,270,o),
(413,212,cs),
(413,153,o),
(367.589,111,o),
(301.995,111,cs),
(237.411,111,o),
(192,152,o),
(192,211,cs)
);
},
{
closed = 1;
nodes = (
(353.63,589,o),
(384,563,o),
(384,513,cs),
(384,466,o),
(356.667,438,o),
(304.025,438,cs),
(250.37,438,o),
(220,467,o),
(220,514,cs),
(220,562,o),
(251.383,589,o),
(303.012,589,cs)
);
}
);
width = 605;
}
);
unicode = 56;
},
{
glyphname = question;
layers = (
{
hints = (
{
place = (152,180);
type = Stem;
},
{
place = (158,166);
type = Stem;
},
{
place = (355,166);
type = Stem;
},
{
horizontal = 1;
place = (-20,180);
type = Stem;
},
{
horizontal = 1;
place = (647,120);
type = Stem;
}
);
layerId = "F681C90F-60C6-46B5-9262-264E5CA00432";
shapes = (
{
closed = 1;
nodes = (
(110,551,l),
(159,609,o),
(207,637,o),
(264,637,cs),
(318,637,o),
(355,612,o),
(355,556,cs),
(355,486,o),
(299,434,o),
(158,365,c),
(158,250,l),
(324,250,l),
(324,332,l),
(448,388,o),
(521,475,o),
(521,575,cs),
(521,690,o),
(426,767,o),
(278,767,cs),
(169,767,o),
(80,725,o),
(15,646,c)
);
},
{
closed = 1;
nodes = (
(288.809,-20,o),
(324.605,17.631,o),
(324.605,63.523,cs),
(324.605,109.414,o),
(288.809,145.209,o),
(242,145.209,cs),
(194.273,145.209,o),
(159.395,109.414,o),
(159.395,63.523,cs),
(159.395,17.631,o),
(194.273,-20,o),
(242,-20,cs)
);
}
);
width = 551;
}
);
unicode = 63;
},
{
glyphname = section;
layers = (
{
hints = (
{
horizontal = 1;
place = (-55,70);
type = Stem;
},
{
horizontal = 1;
place = (649,71);
type = Stem;
}
);
layerId = "F681C90F-60C6-46B5-9262-264E5CA00432";
shapes = (
{
closed = 1;
nodes = (
(360,160,l),
(390.077,173,o),
(406,194,o),
(406,222,cs),
(406,268,o),
(381.031,286.132,o),
(295,304,cs),
(121.031,340.132,o),
(50,407,o),
(50,515,cs),
(50,640,o),
(141.332,720,o),
(286.502,720,cs),
(403.792,720,o),
(490.317,668,o),
(548,596,c),
(453,501,l),
(410.566,556,o),
(354.295,589,o),
(298.023,589,cs),
(241.752,589,o),
(215,557,o),
(215,510,cs),
(215,457,o),
(251.915,437.618,o),
(337,421,cs),
(507.917,387.618,o),
(571,328,o),
(571,221,cs),
(571,144,o),
(531.125,81,o),
(455,45,c)
);
},
{
closed = 1;
nodes = (
(221,340,l),
(204,327,o),
(195,306,o),
(195,278,cs),
(195,232,o),
(219.199,213.868,o),
(302.57,196,cs),
(471.166,159.868,o),
(540,93,o),
(540,-15,cs),
(540,-140,o),
(447.017,-220,o),
(299.224,-220,cs),
(179.815,-220,o),
(91.726,-168,o),
(33,-96,c),
(128,-1,l),
(172.039,-56,o),
(230.438,-89,o),
(288.837,-89,cs),
(347.236,-89,o),
(375,-57,o),
(375,-10,cs),
(375,43,o),
(339.221,62.383,o),
(256.77,79,cs),
(91.13,112.383,o),
(30,172,o),
(30,279,cs),
(30,356,o),
(63,419,o),
(126,455,c)
);
}
);
width = 590;
}
);
unicode = 167;
},
{
glyphname = numbersign;
layers = (
{
hints = (
{
horizontal = 1;
place = (0,250);
type = Stem;
},
{
horizontal = 1;
place = (210,40);
type = Stem;
},
{
horizontal = 1;
place = (450,40);
type = Stem;
},
{
horizontal = 1;
place = (450,250);
type = Stem;
}
);
layerId = "F681C90F-60C6-46B5-9262-264E5CA00432";
shapes = (
{
closed = 1;
nodes = (
(74,500,l),
(74,420,l),
(181,420,l),
(152,280,l),
(28,280,l),
(28,200,l),
(136,200,l),
(95,0,l),
(263,0,l),
(304,200,l),
(460,200,l),
(419,0,l),
(587,0,l),
(628,200,l),
(755,200,l),
(755,280,l),
(644,280,l),
(673,420,l),
(802,420,l),
(802,500,l),
(689,500,l),
(730,700,l),
(562,700,l),
(521,500,l),
(365,500,l),
(406,700,l),
(238,700,l),
(198,500,l)
);
},
{
closed = 1;
nodes = (
(320,280,l),
(349,420,l),
(505,420,l),
(476,280,l)
);
}
);
width = 830;
}
);
unicode = 35;
},
{
glyphname = asterisk;
layers = (
{
hints = (
{
place = (260,34);
type = Stem;
},
{
horizontal = 1;
place = (272,21);
target = up;
type = BottomGhost;
},
{
horizontal = 1;
place = (700,-20);
target = down;
type = TopGhost;
}
);
layerId = "F681C90F-60C6-46B5-9262-264E5CA00432";
shapes = (
{
closed = 1;
nodes = (
(253,700,l),
(266,505,l),
(101,621,l),
(78,580,l),
(259,486,l),
(78,393,l),
(101,351,l),
(266,468,l),
(253,272,l),
(300,272,l),
(286,468,l),
(450,353,l),
(472,394,l),
(293,486,l),
(472,579,l),
(449,620,l),
(286,505,l),
(300,700,l)
);
}
);
width = 553;
}
);
unicode = 42;
},
{
glyphname = copyright;
layers = (
{
hints = (
{
place = (227,112);
type = Stem;
},
{
horizontal = 1;
place = (167,75);
type = Stem;
},
{
horizontal = 1;
place = (458,75);
type = Stem;
}
);
layerId = "F681C90F-60C6-46B5-9262-264E5CA00432";
shapes = (
{
closed = 1;
nodes = (
(589,12,o),
(773,138,o),
(773,357,cs),
(773,572,o),
(596,688,o),
(411,688,cs),
(227,688,o),
(44,573,o),
(44,357,cs),
(44,137,o),
(233,12,o),
(411,12,cs)
);
},
{
closed = 1;
nodes = (
(585,628,o),
(713,514,o),
(713,354,cs),
(713,186,o),
(573,72,o),
(411,72,cs),
(243,72,o),
(104,195,o),
(104,358,cs),
(104,513,o),
(231,628,o),
(408,628,cs)
);
},
{
closed = 1;
nodes = (
(352.036,243.304,o),
(325.019,280.775,o),
(325.019,353.514,cs),
(325.019,423.314,o),
(355.148,457.846,o),
(412.317,457.846,cs),
(448.627,457.846,o),
(487.027,443.886,o),
(507.886,418.171,c),
(571.338,480.623,l),
(535.626,525.442,o),
(482.058,548.953,o),
(411.348,548.953,cs),
(302.069,548.953,o),
(222.788,482.092,o),
(222.788,354.249,cs),
(222.788,232.283,o),
(294.943,152.197,o),
(409.963,152.197,cs),
(482.833,152.197,o),
(538.557,175.708,o),
(574.277,220.527,c),
(511.825,282.979,l),
(490.983,257.264,o),
(452.387,243.304,o),
(413.018,243.304,cs)
);
}
);
width = 817;
}
);
unicode = 169;
},
{
glyphname = registered;
layers = (
{
hints = (
{
place = (256,94);
type = Stem;
},
{
place = (467,94);
type = Stem;
},
{
horizontal = 1;
place = (288,68);
type = Stem;
},
{
horizontal = 1;
place = (477,68);
type = Stem;
},
{
horizontal = 1;
place = (141,21);
target = up;
type = BottomGhost;
}
);
layerId = "F681C90F-60C6-46B5-9262-264E5CA00432";
shapes = (
{
closed = 1;
nodes = (
(590,12,o),
(774,138,o),
(774,355,cs),
(774,572,o),
(597,688,o),
(412,688,cs),
(228,688,o),
(45,573,o),
(45,355,cs),
(45,137,o),
(234,12,o),
(412,12,cs)
);
},
{
closed = 1;
nodes = (
(586,628,o),
(714,514,o),
(714,350,cs),
(714,186,o),
(574,72,o),
(410,72,cs),
(244,72,o),
(105,195,o),
(105,354,cs),
(105,513,o),
(232,628,o),
(410,628,cs)
);
},
{
closed = 1;
nodes = (
(356.4,150,l),
(356.4,469.2,l),
(404.4,469.2,ls),
(462,469.2,o),
(481.2,450.72,o),
(481.2,414.32,cs),
(481.2,377.92,o),
(462,359.44,o),
(404.4,359.44,cs),
(276,359.44,l),
(276,286.64,l),
(424.8,286.64,ls),
(520.2,286.64,o),
(581.4,337.04,o),
(581.4,416.56,cs),
(581.4,494.4,o),
(522.6,542,o),
(424.8,542,cs),
(256.8,542,l),
(256.8,150,l)
);
},
{
closed = 1;
nodes = (
(401.6,307.36,l),
(487.4,150,l),
(594.2,150,l),
(492.2,336.48,l)
);
}
);
width = 817;
}
);
unicode = 174;
},
{
glyphname = ordfeminine;
layers = (
{
hints = (
{
place = (53,117);
type = Stem;
},
{
place = (374,117);
type = Stem;
},
{
horizontal = 1;
place = (320,80);
type = Stem;
},
{
horizontal = 1;
place = (641,79);
type = Stem;
},
{
horizontal = 1;
place = (702,-20);
target = down;
type = TopGhost;
}
);
layerId = "F681C90F-60C6-46B5-9262-264E5CA00432";
shapes = (
{
closed = 1;
nodes = (
(380,335,l),
(493,335,l),
(493,702,l),
(380,702,l)
);
},
{
closed = 1;
nodes = (
(406,644,o),
(349.164,720,o),
(243.468,720,cs),
(131.79,720,o),
(59,636,o),
(59,522,cs),
(59,408,o),
(130.793,320,o),
(244.466,320,cs),
(349.164,320,o),
(406,396,o),
(406,520,cs)
);
},
{
closed = 1;
nodes = (
(172,584,o),
(205.32,631,o),
(273.981,631,cs),
(338.602,631,o),
(380,589,o),
(380,521,cs),
(380,453,o),
(337.592,410,o),
(272.971,410,cs),
(204.311,410,o),
(172,458,o),
(172,521,cs)
);
}
);
width = 549;
}
);
unicode = 170;
},
{
glyphname = ordmasculine;
layers = (
{
hints = (
{
place = (54,117);
type = Stem;
},
{
place = (346,117);
type = Stem;
},
{
horizontal = 1;
place = (317,80);
type = Stem;
},
{
horizontal = 1;
place = (640,80);
type = Stem;
}
);
layerId = "F681C90F-60C6-46B5-9262-264E5CA00432";
shapes = (
{
closed = 1;
nodes = (
(54,393,o),
(132,317,o),
(258,317,cs),
(386,317,o),
(463,393,o),
(463,523,cs),
(463,631,o),
(385,720,o),
(258,720,cs),
(131,720,o),
(54,631,o),
(54,523,cs)
);
},
{
closed = 1;
nodes = (
(346,443,o),
(307,407,o),
(257,407,cs),
(208,407,o),
(171,441,o),
(171,525,cs),
(171,597,o),
(207,630,o),
(256,630,cs),
(306,630,o),
(346,602,o),
(346,524,cs)
);
}
);
width = 516;
}
);
unicode = 186;
},
{
glyphname = paragraph;
layers = (
{
hints = (
{
place = (338,48);
type = Stem;
},
{
place = (476,48);
type = Stem;
},
{
horizontal = 1;
place = (731,20);
type = Stem;
},
{
horizontal = 1;
place = (-132,21);
target = up;
type = BottomGhost;
}
);
layerId = "F681C90F-60C6-46B5-9262-264E5CA00432";
shapes = (
{
closed = 1;
nodes = (
(50,383,o),
(108,282,o),
(308,282,cs),
(338,282,l),
(338,-132,l),
(386,-132,l),
(386,731,l),
(476,731,l),
(476,-132,l),
(524,-132,l),
(524,751,l),
(308,751,ls),
(129,751,o),
(50,663,o),
(50,523,cs)
);
}
);
width = 590;
}
);
unicode = 182;
},
{
glyphname = partialdiff;
layers = (
{
hints = (
{
place = (28,150);
type = Stem;
},
{
place = (465,210);
type = Stem;
},
{
place = (558,117);
type = Stem;
},
{
horizontal = 1;
place = (-20,103);
type = Stem;
},
{
horizontal = 1;
place = (365,102);
type = Stem;
},
{
horizontal = 1;
place = (619,101);
type = Stem;
}
);
layerId = "F681C90F-60C6-46B5-9262-264E5CA00432";
shapes = (
{
closed = 1;
nodes = (
(227,546,l),
(269,583,o),
(323,599,o),
(377,599,cs),
(475,599,o),
(554,546,o),
(554,440,cs),
(554,396,o),
(540,322,o),
(524,292,c),
(516,255,l),
(532,256,l),
(542,278,l),
(565,372,o),
(479,467,o),
(327,467,cs),
(165,467,o),
(28,360,o),
(28,206,cs),
(28,73,o),
(131,-20,o),
(278,-20,cs),
(497,-20,o),
(675,188,o),
(675,425,cs),
(675,613,o),
(563,720,o),
(385,720,cs),
(306,720,o),
(201,699,o),
(132,641,c)
);
},
{
closed = 1;
nodes = (
(413,355,o),
(465,311,o),
(465,241,cs),
(465,152,o),
(383,103,o),
(306,103,cs),
(232,103,o),
(178,148,o),
(178,220,cs),
(178,295,o),
(237,355,o),
(332,355,cs)
);
}
);
width = 730;
}
);
unicode = 8706;
},
{
glyphname = sterling;
layers = (
{
hints = (
{
place = (162,166);
type = Stem;
},
{
place = (57,167);
type = Stem;
},
{
horizontal = 1;
place = (-26,88);
type = Stem;
},
{
horizontal = 1;
place = (289,80);
type = Stem;
},
{
horizontal = 1;
place = (599,121);
type = Stem;
}
);
layerId = "F681C90F-60C6-46B5-9262-264E5CA00432";
shapes = (
{
closed = 1;
nodes = (
(21,369,l),
(21,289,l),
(495,289,l),
(495,369,l)
);
},
{
closed = 1;
nodes = (
(378,589,o),
(439,561,o),
(488,504,c),
(583,599,l),
(514,684,o),
(418,720,o),
(317,720,cs),
(163,720,o),
(57,637,o),
(57,518,cs),
(57,462,o),
(81,407,o),
(114,347,cs),
(137,305,o),
(162,265,o),
(162,210,cs),
(162,130,o),
(110,86,o),
(50,46,c),
(50,-44,l),
(109,32,o),
(144,50,o),
(182,50,cs),
(261,50,o),
(294,-26,o),
(408,-26,cs),
(504,-26,o),
(585,27,o),
(614,112,c),
(594,144,l),
(582,119,o),
(529,82,o),
(459,82,cs),
(367,82,o),
(383,145,o),
(295,147,c),
(310,170,o),
(328,199,o),
(328,241,cs),
(328,343,o),
(222,405,o),
(222,502,cs),
(222,565,o),
(266,589,o),
(320,589,cs)
);
}
);
width = 634;
}
);
unicode = 163;
},
{
glyphname = asciitilde;
layers = (
{
hints = (
{
horizontal = 1;
place = (286,51);
type = Stem;
},
{
horizontal = 1;
place = (367,49);
type = Stem;
}
);
layerId = "F681C90F-60C6-46B5-9262-264E5CA00432";
shapes = (
{
closed = 1;
nodes = (
(36,243,l),
(54,286,o),
(104,307,o),
(149,307,cs),
(179,307,o),
(199.968,296.958,o),
(240,266,cs),
(274.968,238.958,o),
(298,226,o),
(340,226,cs),
(395,226,o),
(441,248,o),
(465,329,c),
(455,329,l),
(438,289,o),
(404,277,o),
(365,277,cs),
(329,277,o),
(304.965,286.956,o),
(268,316,cs),
(234.965,341.956,o),
(208,356,o),
(171,356,cs),
(113,356,o),
(52,321,o),
(26,243,c)
);
}
);
width = 496;
}
);
unicode = 126;
},
{
glyphname = approxequal;
layers = (
{
hints = (
{
horizontal = 1;
place = (209,51);
type = Stem;
},
{
horizontal = 1;
place = (290,49);
type = Stem;
},
{
horizontal = 1;
place = (366,51);
type = Stem;
},
{
horizontal = 1;
place = (447,49);
type = Stem;
}
);
layerId = "F681C90F-60C6-46B5-9262-264E5CA00432";
shapes = (
{
closed = 1;
nodes = (
(42,166,l),
(60,209,o),
(110,230,o),
(155,230,cs),
(185,230,o),
(205.968,219.958,o),
(246,189,cs),
(280.968,161.958,o),
(304,149,o),
(346,149,cs),
(401,149,o),
(447,171,o),
(471,252,c),
(461,252,l),
(444,212,o),
(410,200,o),
(371,200,cs),
(335,200,o),
(310.965,209.956,o),
(274,239,cs),
(240.965,264.956,o),
(214,279,o),
(177,279,cs),
(119,279,o),
(58,244,o),
(32,166,c)
);
},
{
closed = 1;
nodes = (
(40,323,l),
(58,366,o),
(108,387,o),
(153,387,cs),
(183,387,o),
(203.968,376.958,o),
(244,346,cs),
(278.968,318.958,o),
(302,306,o),
(344,306,cs),
(399,306,o),
(445,328,o),
(469,409,c),
(459,409,l),
(442,369,o),
(408,357,o),
(369,357,cs),
(333,357,o),
(308.965,366.956,o),
(272,396,cs),
(238.965,421.956,o),
(212,436,o),
(175,436,cs),
(117,436,o),
(56,401,o),
(30,323,c)
);
}
);
width = 542;
}
);
unicode = 8776;
},
{
glyphname = at;
layers = (
{
hints = (
{
place = (44,60);
type = Stem;
},
{
place = (214,100);
type = Stem;
},
{
place = (523,77);
type = Stem;
},
{
place = (781,60);
type = Stem;
},
{
horizontal = 1;
place = (-99,50);
type = Stem;
},
{
horizontal = 1;
place = (81,70);
type = Stem;
},
{
horizontal = 1;
place = (83,60);
type = Stem;
},
{
horizontal = 1;
place = (448,72);
type = Stem;
},
{
horizontal = 1;
place = (671,50);
type = Stem;
}
);
layerId = "F681C90F-60C6-46B5-9262-264E5CA00432";
shapes = (
{
closed = 1;
nodes = (
(44,-6,o),
(199,-159,o),
(423,-159,cs),
(463,-159,o),
(499,-154,o),
(534,-147,c),
(534,-97,l),
(502,-103,o),
(463,-109,o),
(424,-109,cs),
(245,-109,o),
(104,17,o),
(104,247,cs),
(104,491,o),
(264,611,o),
(447,611,cs),
(631,611,o),
(781,490,o),
(781,279,cs),
(781,145,o),
(727.63,83,o),
(669.812,83,cs),
(631.564,83,o),
(620,111,o),
(620,151,cs),
(620,164,l),
(639,422,l),
(593,447,o),
(545,460,o),
(486,460,cs),
(315,460,o),
(234,349,o),
(234,220,cs),
(234,90,o),
(319.306,21,o),
(421.056,21,cs),
(502.25,21,o),
(530,65,o),
(551,128,c),
(546.457,59,o),
(596,23,o),
(666,23,cs),
(791,23,o),
(841,136,o),
(841,282,cs),
(841,507,o),
(680,661,o),
(448,661,cs),
(216,661,o),
(44,507,o),
(44,244,cs)
);
},
{
closed = 1;
nodes = (
(334,316,o),
(389,388,o),
(466,388,cs),
(493,388,o),
(523,379,o),
(544,362,c),
(541,332,o),
(534.948,290.006,o),
(532,262,cs),
(518.948,138.005,o),
(484,91,o),
(420,91,cs),
(357,91,o),
(334,137,o),
(334,207,cs)
);
}
);
width = 885;
}
);
unicode = 64;
},
{
glyphname = ampersand;
layers = (
{
hints = (
{
place = (27,165);
type = Stem;
},
{
place = (87,156);
type = Stem;
},
{
place = (338,162);
type = Stem;
},
{
horizontal = 1;
place = (-20,120);
type = Stem;
},
{
horizontal = 1;
place = (600,120);
type = Stem;
},
{
horizontal = 1;
place = (0,21);
target = up;
type = BottomGhost;
}
);
layerId = "F681C90F-60C6-46B5-9262-264E5CA00432";
shapes = (
{
closed = 1;
nodes = (
(294,419,l),
(253,457,o),
(243,493,o),
(243,526,cs),
(243,568,o),
(260,590,o),
(291,590,cs),
(321,590,o),
(344,569,o),
(344,531,cs),
(344,462,o),
(281,428,o),
(226,395,c)
);
},
{
closed = 1;
nodes = (
(353,359,l),
(460,409,o),
(500,464,o),
(500,541,cs),
(500,653,o),
(417,720,o),
(292,720,cs),
(171,720,o),
(87,657,o),
(87,557,cs),
(87,493,o),
(121,424,o),
(175,377,c),
(83,343,o),
(27,274,o),
(27,182,cs),
(27,59,o),
(126,-20,o),
(275,-20,cs),
(468,-20,o),
(579,114,o),
(642,206,c),
(547,301,l),
(467,178,o),
(386,110,o),
(296,110,cs),
(237,110,o),
(192,139,o),
(192,196,cs),
(192,240,o),
(219,288,o),
(246,305,c),
(494,0,l),
(657,0,l)
);
}
);
width = 664;
}
);
unicode = 38;
},
{
glyphname = degree;
layers = (
{
hints = (
{
place = (57,97);
type = Stem;
},
{
place = (332,96);
type = Stem;
},
{
horizontal = 1;
place = (390,71);
type = Stem;
},
{
horizontal = 1;
place = (648,71);
type = Stem;
}
);
layerId = "F681C90F-60C6-46B5-9262-264E5CA00432";
shapes = (
{
closed = 1;
nodes = (
(57,458,o),
(140,390,o),
(248,390,cs),
(355,390,o),
(428,458,o),
(428,556,cs),
(428,653,o),
(357,719,o),
(248,719,cs),
(139,719,o),
(57,653,o),
(57,556,cs)
);
},
{
closed = 1;
nodes = (
(154,622,o),
(194,648,o),
(244,648,cs),
(294,648,o),
(332,622,o),
(332,555,cs),
(332,488,o),
(295,461,o),
(244,461,cs),
(193,461,o),
(154,488,o),
(154,555,cs)
);
}
);
width = 483;
}
);
unicode = 176;
},
{
glyphname = asciicircum;
layers = (
{
hints = (
{
horizontal = 1;
place = (779,-20);
target = down;
type = TopGhost;
}
);
layerId = "F681C90F-60C6-46B5-9262-264E5CA00432";
shapes = (
{
closed = 1;
nodes = (
(50,520,l),
(98,520,l),
(257,739,l),
(417,519,l),
(465,519,l),
(303,779,l),
(211,779,l)
);
}
);
width = 515;
}
);
unicode = 94;
},
{
glyphname = bullet;
layers = (
{
hints = (
{
horizontal = 1;
place = (458,-20);
target = down;
type = TopGhost;
},
{
horizontal = 1;
place = (179,21);
target = up;
type = BottomGhost;
}
);
layerId = "F681C90F-60C6-46B5-9262-264E5CA00432";
shapes = (
{
closed = 1;
nodes = (
(312,179,o),
(374,240,o),
(374,318,cs),
(374,396,o),
(312,458,o),
(234,458,cs),
(157,458,o),
(95,396,o),
(95,318,cs),
(95,240,o),
(157,179,o),
(234,179,cs)
);
}
);
width = 471;
}
);
unicode = 8226;
},
{
glyphname = summation;
layers = (
{
hints = (
{
horizontal = 1;
place = (-195,120);
type = Stem;
},
{
horizontal = 1;
place = (580,120);
type = Stem;
}
);
layerId = "F681C90F-60C6-46B5-9262-264E5CA00432";
shapes = (
{
closed = 1;
nodes = (
(621,-122,l),
(621,8,l),
(274,8,l),
(550,287,l),
(274,570,l),
(621,570,l),
(621,700,l),
(30,700,l),
(30,600,l),
(333,287,l),
(30,-22,l),
(30,-122,l)
);
}
);
width = 662;
}
);
unicode = 8721;
},
{
glyphname = radical;
layers = (
{
hints = (
{
horizontal = 1;
place = (306,110);
type = Stem;
},
{
horizontal = 1;
place = (749,-20);
target = down;
type = TopGhost;
},
{
horizontal = 1;
place = (0,21);
target = up;
type = BottomGhost;
}
);
layerId = "F681C90F-60C6-46B5-9262-264E5CA00432";
shapes = (
{
closed = 1;
nodes = (
(401,-122.003,l),
(707.446,820,l),
(534.446,820,l),
(317,51.997,l),
(246,297.997,l),
(1,297.997,l),
(1,177.997,l),
(116,177.997,l),
(237,-122.003,l)
);
}
);
width = 660;
}
);
unicode = 8730;
},
{
glyphname = fraction;
layers = (
{
hints = (
{
horizontal = 1;
place = (0,21);
target = up;
type = BottomGhost;
},
{
horizontal = 1;
place = (700,-20);
target = down;
type = TopGhost;
}
);
layerId = "F681C90F-60C6-46B5-9262-264E5CA00432";
shapes = (
{
closed = 1;
nodes = (
(-90,0,l),
(-50,0,l),
(306,700,l),
(266,700,l)
);
}
);
width = 216;
}
);
unicode = 8260;
},
{
glyphname = ampersand.ss09;
layers = (
{
hints = (
{
place = (438,166);
type = Stem;
},
{
horizontal = 1;
place = (580,120);
type = Stem;
},
{
horizontal = 1;
place = (-21,21);
target = up;
type = BottomGhost;
},
{
horizontal = 1;
place = (0,21);
target = up;
type = BottomGhost;
}
);
layerId = "F681C90F-60C6-46B5-9262-264E5CA00432";
shapes = (
{
closed = 1;
nodes = (
(475,570,l),
(475,700,l),
(244,700,ls),
(111,700,o),
(60,622,o),
(60,549,cs),
(60,472,o),
(116,430,o),
(162,379,c),
(69,339,o),
(21,270,o),
(21,177,cs),
(21,53,o),
(118,-20,o),
(283,-20,cs),
(488,-20,o),
(604,122,o),
(604,310,c),
(438,310,l),
(438,184,o),
(375,111,o),
(277,111,cs),
(222,111,o),
(184,150,o),
(184,205,cs),
(184,286,o),
(231,334,o),
(348,378,c),
(240,494,ls),
(206,531,o),
(220,570,o),
(272,570,cs)
);
},
{
closed = 1;
nodes = (
(397,156,l),
(553,0,l),
(655,0,l),
(655,84,l),
(499,240,l)
);
}
);
width = 660;
}
);
},
{
color = (153, 255, 154, 255);
glyphname = g.ss03;
layers = (
{
anchors = (
{
name = top;
position = "{295, 520}";
},
{
name = bottom;
position = "{295, -220}";
}
);
hints = (
{
place = (42,130);
type = Stem;
},
{
place = (59,165);
type = Stem;
},
{
place = (386,165);
type = Stem;
},
{
place = (390,164);
type = Stem;
},
{
horizontal = 1;
place = (-220,110);
type = Stem;
},
{
horizontal = 1;
place = (-14,112);
type = Stem;
},
{
horizontal = 1;
place = (124,110);
type = Stem;
},
{
horizontal = 1;
place = (410,110);
type = Stem;
},
{
horizontal = 1;
place = (462,147);
type = Stem;
},
{
horizontal = 1;
place = (-220,187);
type = Stem;
}
);
layerId = "F681C90F-60C6-46B5-9262-264E5CA00432";
shapes = (
{
closed = 1;
nodes = (
(456,124,o),
(531,224,o),
(531,321,cs),
(531,418,o),
(457,520,o),
(296,520,cs),
(132,520,o),
(59,415,o),
(59,318,cs),
(59,220,o),
(133,124,o),
(293,124,cs)
);
},
{
closed = 1;
nodes = (
(345,400,o),
(366,363.053,o),
(366,319.947,cs),
(366,276.842,o),
(345,244,o),
(297,244,cs),
(249,244,o),
(224,275.816,o),
(224,318.921,cs),
(224,362.026,o),
(249,400,o),
(297,400,cs)
);
},
{
closed = 1;
nodes = (
(609,586,o),
(581,609,o),
(541,609,cs),
(470,609,o),
(414,535,o),
(404,435,c),
(437,422,l),
(442,470,o),
(463,499,o),
(476,510,c),
(487,478,o),
(506,462,o),
(539,462,cs),
(579,462,o),
(609,486,o),
(609,537,cs)
);
},
{
closed = 1;
nodes = (
(243,-100,o),
(213,-76,o),
(208,-33,c),
(46,-33,l),
(53,-160,o),
(150,-220,o),
(307,-220,cs),
(458,-220,o),
(554,-165.35,o),
(554,-56.051,cs),
(554,37.35,o),
(485,92,o),
(296,92,cs),
(204,92,o),
(172,105.271,o),
(172,132.833,cs),
(172,155.292,o),
(193,177.75,o),
(215,190,c),
(194,247,l),
(89,214,o),
(42,167,o),
(42,102,cs),
(42,16,o),
(125,-18,o),
(273,-18,cs),
(349,-18,o),
(390,-27.225,o),
(390,-55.925,cs),
(390,-79.5,o),
(364,-100,o),
(305,-100,cs)
);
}
);
width = 590;
}
);
leftKerningGroup = a;
},
{
color = (153, 255, 154, 255);
glyphname = y.ss04;
layers = (
{
anchors = (
{
name = bottom;
position = "{453, 0}";
},
{
name = top;
position = "{283, 520}";
}
);
hints = (
{
horizontal = 1;
place = (-220,110);
type = Stem;
},
{
horizontal = 1;
place = (500,-20);
target = down;
type = TopGhost;
}
);
layerId = "F681C90F-60C6-46B5-9262-264E5CA00432";
shapes = (
{
closed = 1;
nodes = (
(218,-29,ls),
(203.462,-76.473,o),
(169,-96,o),
(131,-96,cs),
(111,-96,o),
(95,-93,o),
(76,-84,c),
(44,-198,l),
(91,-212,o),
(115,-221,o),
(183,-221,cs),
(269,-221,o),
(322,-178,o),
(356,-78,cs),
(555,500,l),
(380,500,l)
);
},
{
closed = 1;
nodes = (
(329,0,l),
(186,500,l),
(11,500,l),
(173,0,l)
);
}
);
width = 565;
}
);
leftKerningGroup = v;
rightKerningGroup = v1;
},
{
glyphname = n;
layers = (
{
anchors = (
{
name = top;
position = "{318, 520}";
},
{
name = bottom;
position = "{318, -20}";
}
);
hints = (
{
place = (59,165);
type = Stem;
},
{
place = (411,165);
type = Stem;
},
{
horizontal = 1;
place = (409,111);
type = Stem;
},
{
horizontal = 1;
place = (0,21);
target = up;
type = BottomGhost;
},
{
horizontal = 1;
place = (500,-20);
target = down;
type = TopGhost;
}
);
layerId = "F681C90F-60C6-46B5-9262-264E5CA00432";
shapes = (
{
closed = 1;
nodes = (
(212,278,l),
(224,217,l),
(224,312,o),
(260,396,o),
(337,396,cs),
(383,396,o),
(411,367,o),
(411,272,cs),
(411,0,l),
(576,0,l),
(576,304,ls),
(576,448,o),
(515,520,o),
(400,520,cs),
(291,520,o),
(227,428,o),
(210,350,c)
);
},
{
closed = 1;
nodes = (
(59,0,l),
(224,0,l),
(224,500,l),
(59,500,l)
);
}
);
width = 635;
}
);
leftKerningGroup = i;
rightKerningGroup = h;
unicode = 110;
},
{
glyphname = Schwa;
layers = (
{
anchors = (
{
name = top;
position = "{390, 719}";
},
{
name = bottom;
position = "{390, -20}";
}
);
hints = (
{
horizontal = 1;
place = (-20,121);
type = Stem;
},
{
horizontal = 1;
place = (290,120);
type = Stem;
},
{
horizontal = 1;
place = (600,120);
type = Stem;
}
);
layerId = "F681C90F-60C6-46B5-9262-264E5CA00432";
shapes = (
{
closed = 1;
nodes = (
(303,589,o),
(238,559,o),
(189,501,c),
(94,596,l),
(155,670,o),
(248,720,o),
(380,720,cs),
(601,720,o),
(741,581,o),
(741,353,cs),
(741,119,o),
(593,-20,o),
(390,-20,cs),
(178,-20,o),
(38,131,o),
(38,348,cs),
(38,374,o),
(40,397,o),
(42,412,c),
(595,412,l),
(594,288,l),
(210,288,l),
(220,176,o),
(298,111,o),
(396,111,cs),
(509,111,o),
(574,198,o),
(574,350,cs),
(574,517,o),
(495,589,o),
(378,589,cs)
);
}
);
width = 779;
}
);
leftKerningGroup = C1;
rightKerningGroup = C;
unicode = 399;
},
{
glyphname = schwa;
layers = (
{
anchors = (
{
name = top;
position = "{306, 520}";
},
{
name = bottom;
position = "{306, -20}";
}
);
hints = (
{
place = (410,164);
type = Stem;
},
{
horizontal = 1;
place = (-20,111);
type = Stem;
},
{
horizontal = 1;
place = (194,100);
type = Stem;
},
{
horizontal = 1;
place = (409,111);
type = Stem;
}
);
layerId = "F681C90F-60C6-46B5-9262-264E5CA00432";
shapes = (
{
closed = 1;
nodes = (
(408,188,l),
(399,130,o),
(358,104,o),
(309,104,cs),
(257,104,o),
(222,134,o),
(214,188,c)
);
},
{
closed = 1;
nodes = (
(204,520,o),
(124,488,o),
(74,427,c),
(159,342,l),
(186,377,o),
(232,397,o),
(283,397,cs),
(345,397,o),
(401,367,o),
(410,304,c),
(53,304,l),
(51,290,o),
(49,278,o),
(49,255,cs),
(49,90,o),
(154,-20,o),
(312,-20,cs),
(471,-20,o),
(574,92,o),
(574,256,cs),
(574,418,o),
(473,520,o),
(301,520,cs)
);
}
);
width = 613;
}
);
leftKerningGroup = a;
rightKerningGroup = b1;
unicode = 601;
},
{
glyphname = yen;
layers = (
{
hints = (
{
place = (249,167);
type = Stem;
},
{
horizontal = 1;
place = (700,-20);
target = down;
type = TopGhost;
},
{
horizontal = 1;
place = (0,21);
target = up;
type = BottomGhost;
}
);
layerId = "F681C90F-60C6-46B5-9262-264E5CA00432";
shapes = (
{
closed = 1;
nodes = (
(130,172,l),
(130,97,l),
(533,97,l),
(533,172,l)
);
},
{
closed = 1;
nodes = (
(130,303,l),
(130,228,l),
(533,228,l),
(533,303,l)
);
},
{
alignment = -1;
ref = Y;
}
);
width = 662;
}
);
unicode = 165;
},
{
color = (153, 255, 154, 255);
glyphname = G.ss03;
layers = (
{
anchors = (
{
name = bottom;
position = "{398, -19}";
},
{
name = top;
position = "{387, 719}";
}
);
hints = (
{
place = (38,167);
type = Stem;
},
{
place = (583,172);
type = Stem;
},
{
horizontal = 1;
place = (-20,121);
type = Stem;
},
{
horizontal = 1;
place = (260,121);
type = Stem;
},
{
horizontal = 1;
place = (599,121);
type = Stem;
}
);
layerId = "F681C90F-60C6-46B5-9262-264E5CA00432";
shapes = (
{
closed = 1;
nodes = (
(275,589,o),
(205,505,o),
(205,351,cs),
(205,198,o),
(286,111,o),
(409,111,cs),
(505,111,o),
(563,178,o),
(563,265,c),
(381,265,l),
(381,385,l),
(735,385,l),
(735,324.15,ls),
(735,119.655,o),
(597,-20,o),
(396,-20,cs),
(193,-20,o),
(38,139,o),
(38,348,cs),
(38,561,o),
(179,720,o),
(389,720,cs),
(520,720,o),
(623,666,o),
(688,583,c),
(643,424,l),
(571,544,o),
(508,589,o),
(405,589,cs)
);
}
);
width = 773;
}
);
leftKerningGroup = C1;
rightKerningGroup = C;
},
{
glyphname = softhyphen;
layers = (
{
hints = (
{
horizontal = 1;
place = (262,34);
type = Stem;
}
);
layerId = "F681C90F-60C6-46B5-9262-264E5CA00432";
shapes = (
{
closed = 1;
nodes = (
(50,262,l),
(414,262,l),
(414,296,l),
(50,296,l)
);
}
);
width = 464;
}
);
unicode = 173;
},
{
glyphname = lira;
layers = (
{
hints = (
{
place = (120,166);
type = Stem;
},
{
horizontal = 1;
place = (0,120);
type = Stem;
},
{
horizontal = 1;
place = (219,80);
type = Stem;
},
{
horizontal = 1;
place = (339,80);
type = Stem;
},
{
horizontal = 1;
place = (600,120);
type = Stem;
}
);
layerId = "F681C90F-60C6-46B5-9262-264E5CA00432";
shapes = (
{
closed = 1;
nodes = (
(42,419,l),
(42,339,l),
(500,339,l),
(500,419,l)
);
},
{
closed = 1;
nodes = (
(42,299,l),
(42,219,l),
(500,219,l),
(500,299,l)
);
},
{
closed = 1;
nodes = (
(229.397,720,o),
(120.5,631,o),
(120.5,486,cs),
(120.5,252,ls),
(120.5,185,o),
(84.28,118,o),
(38,90,c),
(38,0,l),
(643,0,l),
(643,130,l),
(178,130,l),
(269.574,152,o),
(285.5,208,o),
(285.5,268,cs),
(285.5,452,ls),
(285.5,518,o),
(299.526,590,o),
(390.697,590,cs),
(442.795,590,o),
(487.88,566,o),
(552,504,c),
(647,599,l),
(582.062,679,o),
(498.141,720,o),
(389.245,720,cs)
);
}
);
width = 666;
}
);
unicode = 8356;
},
{
glyphname = austral;
layers = (
{
hints = (
{
horizontal = 1;
place = (0,226);
type = Stem;
},
{
horizontal = 1;
place = (163,63);
type = Stem;
},
{
horizontal = 1;
place = (302,63);
type = Stem;
},
{
horizontal = 1;
place = (700,-20);
target = down;
type = TopGhost;
}
);
layerId = "F681C90F-60C6-46B5-9262-264E5CA00432";
shapes = (
{
closed = 1;
nodes = (
(13,129,l),
(705,129,l),
(705,200,l),
(13,200,l)
);
},
{
closed = 1;
nodes = (
(13,268,l),
(705,268,l),
(705,339,l),
(13,339,l)
);
},
{
alignment = -1;
pos = (31.5,0);
ref = Elcyr.ss08;
}
);
width = 718;
}
);
unicode = 8371;
},
{
glyphname = hryvnia;
layers = (
{
hints = (
{
place = (481,163);
type = Stem;
},
{
place = (101,156);
type = Stem;
},
{
horizontal = 1;
place = (-20,120);
type = Stem;
},
{
horizontal = 1;
place = (600,120);
type = Stem;
}
);
layerId = "F681C90F-60C6-46B5-9262-264E5CA00432";
shapes = (
{
closed = 1;
nodes = (
(21,262,l),
(120.75,262,l),
(113.43,242.2,o),
(110,220.55,o),
(110,197,cs),
(110,61,o),
(198,-20,o),
(361,-20,cs),
(491,-20,o),
(581,32,o),
(641,104,c),
(546,199,l),
(499.82,144,o),
(438.6,111,o),
(370.35,111,cs),
(308.12,111,o),
(275,138,o),
(275,191,cs),
(275,226.4,o),
(289.77,245.99,o),
(335.22,262,c),
(713,262,l),
(713,328,l),
(21,328,l)
);
},
{
closed = 1;
nodes = (
(21,374,l),
(713,374,l),
(713,440,l),
(625.49,440,l),
(630.55,457.96,o),
(633,477.27,o),
(633,498,cs),
(633,635,o),
(538,720,o),
(384,720,cs),
(264,720,o),
(174,668,o),
(114,596,c),
(209,501,l),
(255.17,556,o),
(316.41,589,o),
(376.64,589,cs),
(438.88,589,o),
(468,553,o),
(468,501,cs),
(468,474.13,o),
(460.31,454.93,o),
(442.85,440,c),
(21,440,l)
);
}
);
width = 734;
}
);
unicode = 8372;
},
{
glyphname = turkishlira;
layers = (
{
hints = (
{
place = (124,166);
type = Stem;
},
{
place = (463,143);
type = Stem;
},
{
horizontal = 1;
place = (0,120);
type = Stem;
},
{
horizontal = 1;
place = (700,-20);
target = down;
type = TopGhost;
}
);
layerId = "F681C90F-60C6-46B5-9262-264E5CA00432";
shapes = (
{
closed = 1;
nodes = (
(21,446,l),
(21,384,l),
(443,511,l),
(443,574,l)
);
},
{
closed = 1;
nodes = (
(21,329,l),
(21,267,l),
(443,394,l),
(443,457,l)
);
},
{
closed = 1;
nodes = (
(463,250,l),
(463,190,o),
(442,130,o),
(330,130,cs),
(290,130,l),
(290,700,l),
(124,700,l),
(124,0,l),
(303,0,ls),
(521,0,o),
(606,78,o),
(606,283,c)
);
}
);
width = 640;
}
);
unicode = 8378;
},
{
glyphname = manat;
layers = (
{
hints = (
{
place = (13,165);
type = Stem;
},
{
place = (366,121);
type = Stem;
},
{
place = (673,165);
type = Stem;
},
{
horizontal = 1;
place = (0,21);
target = up;
type = BottomGhost;
}
);
layerId = "F681C90F-60C6-46B5-9262-264E5CA00432";
shapes = (
{
closed = 1;
nodes = (
(366,110,l),
(487,163,l),
(487,756,l),
(366,703,l)
);
},
{
closed = 1;
nodes = (
(195,602,o),
(38,444,o),
(38,214,cs),
(38,143,o),
(54,69,o),
(85,0,c),
(255,0,l),
(221,58,o),
(203,130,o),
(203,198,cs),
(203,362,o),
(291,472,o),
(423,472,cs),
(557,472,o),
(643,364,o),
(643,201,cs),
(643,132,o),
(625,59,o),
(590,0,c),
(756,0,l),
(790,75,o),
(808,154,o),
(808,230,cs),
(808,450,o),
(651,602,o),
(425,602,cs)
);
}
);
width = 846;
}
);
unicode = 8380;
},
{
glyphname = ruble;
layers = (
{
hints = (
{
place = (145,166);
type = Stem;
},
{
place = (514,167);
type = Stem;
},
{
horizontal = 1;
place = (92,60);
type = Stem;
},
{
horizontal = 1;
place = (216,121);
type = Stem;
},
{
horizontal = 1;
place = (580,120);
type = Stem;
},
{
horizontal = 1;
place = (0,21);
target = up;
type = BottomGhost;
}
);
layerId = "F681C90F-60C6-46B5-9262-264E5CA00432";
shapes = (
{
closed = 1;
nodes = (
(311,0,l),
(311,570,l),
(392,570,ls),
(474,570,o),
(514,537,o),
(514,458,cs),
(514,380,o),
(475,347,o),
(392,347,cs),
(45,347,l),
(45,216,l),
(410,216,ls),
(575,216,o),
(681,311,o),
(681,459,cs),
(681,606,o),
(576,700,o),
(410,700,cs),
(145,700,l),
(145,0,l)
);
},
{
closed = 1;
nodes = (
(45,157,l),
(45,87,l),
(619,87,l),
(619,157,l)
);
}
);
width = 720;
}
);
unicode = 8381;
},
{
glyphname = Gecyr;
layers = (
{
anchors = (
{
name = top;
position = "{272, 719}";
},
{
name = bottom;
position = "{283, -20}";
}
);
hints = (
{
place = (68,166);
type = Stem;
},
{
horizontal = 1;
place = (579,121);
type = Stem;
},
{
horizontal = 1;
place = (0,21);
target = up;
type = BottomGhost;
}
);
layerId = "F681C90F-60C6-46B5-9262-264E5CA00432";
shapes = (
{
closed = 1;
nodes = (
(234,0,l),
(234,569,l),
(498,569,l),
(498,700,l),
(68,700,l),
(68,0,l)
);
}
);
width = 544;
}
);
leftKerningGroup = B;
rightKerningGroup = F;
unicode = 1043;
},
{
glyphname = Kacyr;
layers = (
{
anchors = (
{
name = top;
position = "{320, 719}";
},
{
name = bottom;
position = "{320, -20}";
}
);
hints = (
{
place = (57,165);
type = Stem;
},
{
place = (222,193);
type = Stem;
},
{
horizontal = 1;
place = (315,120);
type = Stem;
},
{
horizontal = 1;
place = (0,21);
target = up;
type = BottomGhost;
},
{
horizontal = 1;
place = (700,-20);
target = down;
type = TopGhost;
}
);
layerId = "F681C90F-60C6-46B5-9262-264E5CA00432";
shapes = (
{
closed = 1;
nodes = (
(58,700,l),
(58,0,l),
(223,0,l),
(223,700,l)
);
},
{
closed = 1;
nodes = (
(184,310,l),
(388,310,ls),
(482,310,o),
(549,356,o),
(563,470,c),
(585,700,l),
(420,700,l),
(406,551,l),
(398,466,o),
(378,440,o),
(320,440,cs),
(184,440,l)
);
},
{
closed = 1;
nodes = (
(335,329,l),
(455,0,l),
(629,0,l),
(503,346,l)
);
}
);
width = 640;
}
);
leftKerningGroup = B;
rightKerningGroup = K;
unicode = 1050;
},
{
glyphname = kacyr;
layers = (
{
anchors = (
{
name = top;
position = "{288, 520}";
},
{
name = bottom;
position = "{288, -20}";
}
);
hints = (
{
place = (64,165);
type = Stem;
},
{
place = (229,136);
type = Stem;
},
{
horizontal = 1;
place = (211,110);
type = Stem;
},
{
horizontal = 1;
place = (0,21);
target = up;
type = BottomGhost;
},
{
horizontal = 1;
place = (500,-20);
target = down;
type = TopGhost;
}
);
layerId = "F681C90F-60C6-46B5-9262-264E5CA00432";
shapes = (
{
closed = 1;
nodes = (
(64,500,l),
(64,0,l),
(229,0,l),
(229,500,l)
);
},
{
closed = 1;
nodes = (
(215,205,l),
(381,205,ls),
(461,205,o),
(515,252,o),
(526,334,c),
(543,500,l),
(390,500,l),
(379,392.775,l),
(373,342.197,o),
(359,325,o),
(303,325,cs),
(215,325,l)
);
},
{
closed = 1;
nodes = (
(309,235,l),
(411,0,l),
(581,0,l),
(473,247,l)
);
}
);
width = 588;
}
);
leftKerningGroup = i;
rightKerningGroup = k;
unicode = 1082;
},
{
glyphname = tshecyr;
layers = (
{
layerId = "F681C90F-60C6-46B5-9262-264E5CA00432";
shapes = (
{
closed = 1;
nodes = (
(89,0,l),
(254,0,l),
(254,750,l),
(89,750,l)
);
},
{
closed = 1;
nodes = (
(242,258,l),
(254,197,l),
(254,292,o),
(290,376,o),
(367,376,cs),
(413,376,o),
(441,347,o),
(441,252,cs),
(441,0,l),
(606,0,l),
(606,284,ls),
(606,428,o),
(545,500,o),
(430,500,cs),
(321,500,o),
(257,408,o),
(240,330,c)
);
},
{
closed = 1;
nodes = (
(19,590,l),
(396,590,l),
(396,626,l),
(19,626,l)
);
}
);
width = 665;
}
);
leftKerningGroup = f;
rightKerningGroup = h;
unicode = 1115;
},
{
glyphname = Pecyr;
layers = (
{
anchors = (
{
name = bottom;
position = "{350, -20}";
},
{
name = top;
position = "{350, 719}";
}
);
hints = (
{
place = (67,166);
type = Stem;
},
{
place = (467,166);
type = Stem;
},
{
horizontal = 1;
place = (579,121);
type = Stem;
},
{
horizontal = 1;
place = (0,21);
target = up;
type = BottomGhost;
}
);
layerId = "F681C90F-60C6-46B5-9262-264E5CA00432";
shapes = (
{
closed = 1;
nodes = (
(233,0,l),
(233,569,l),
(467,569,l),
(467,0,l),
(633,0,l),
(633,700,l),
(67,700,l),
(67,0,l)
);
}
);
width = 700;
}
);
leftKerningGroup = B;
rightKerningGroup = H;
unicode = 1055;
},
{
glyphname = djecyr;
layers = (
{
layerId = "F681C90F-60C6-46B5-9262-264E5CA00432";
shapes = (
{
closed = 1;
nodes = (
(89,0,l),
(254,0,l),
(254,750,l),
(89,750,l)
);
},
{
closed = 1;
nodes = (
(242,258,l),
(254,197,l),
(254,292,o),
(290,376,o),
(367,376,cs),
(413,376,o),
(441,347,o),
(441,252,cs),
(441,0,l),
(606,0,l),
(606,284,ls),
(606,428,o),
(545,500,o),
(430,500,cs),
(321,500,o),
(257,408,o),
(240,330,c)
);
},
{
closed = 1;
nodes = (
(19,590,l),
(429,590,l),
(429,626,l),
(19,626,l)
);
},
{
closed = 1;
nodes = (
(606,260,l),
(441,260,l),
(441,-8,ls),
(441,-74,o),
(435,-96,o),
(396,-96,cs),
(376,-96,o),
(360,-93,o),
(341,-84,c),
(309,-198,l),
(356,-212,o),
(380,-221,o),
(448,-221,cs),
(543,-221,o),
(606,-174,o),
(606,-68,cs)
);
}
);
width = 665;
}
);
leftKerningGroup = f;
rightKerningGroup = h;
unicode = 1106;
},
{
glyphname = Yucyr;
layers = (
{
anchors = (
{
name = top;
position = "{545, 719}";
}
);
hints = (
{
place = (318,167);
type = Stem;
},
{
place = (900,167);
type = Stem;
},
{
place = (67,166);
type = Stem;
},
{
horizontal = 1;
place = (-20,121);
type = Stem;
},
{
horizontal = 1;
place = (599,121);
type = Stem;
},
{
horizontal = 1;
place = (0,21);
target = up;
type = BottomGhost;
},
{
horizontal = 1;
place = (700,-20);
target = down;
type = TopGhost;
},
{
horizontal = 1;
place = (680,-20);
target = down;
type = TopGhost;
}
);
layerId = "F681C90F-60C6-46B5-9262-264E5CA00432";
shapes = (
{
closed = 1;
nodes = (
(223,306,l),
(363,306,l),
(363,436,l),
(223,436,l)
);
},
{
alignment = -1;
pos = (295,0);
ref = O;
},
{
alignment = -1;
pos = (-13,0);
ref = I;
}
);
width = 1090;
}
);
leftKerningGroup = B;
rightKerningGroup = C;
unicode = 1070;
},
{
glyphname = Hardcyr;
layers = (
{
hints = (
{
place = (169,166);
type = Stem;
},
{
place = (529,166);
type = Stem;
},
{
horizontal = 1;
place = (0,120);
type = Stem;
},
{
horizontal = 1;
place = (318,121);
type = Stem;
},
{
horizontal = 1;
place = (579,121);
type = Stem;
},
{
horizontal = 1;
place = (680,-20);
target = down;
type = TopGhost;
}
);
layerId = "F681C90F-60C6-46B5-9262-264E5CA00432";
shapes = (
{
closed = 1;
nodes = (
(21,700,l),
(21,569,l),
(194,569,l),
(227,694,l),
(227,700,l)
);
},
{
alignment = -1;
pos = (102,0);
ref = Softcyr;
}
);
width = 735;
}
);
rightKerningGroup = Ljecyr;
unicode = 1066;
},
{
glyphname = Shacyr;
layers = (
{
hints = (
{
place = (67,166);
type = Stem;
},
{
place = (402,166);
type = Stem;
},
{
place = (737,166);
type = Stem;
},
{
horizontal = 1;
place = (0,120);
type = Stem;
},
{
horizontal = 1;
place = (700,-20);
target = down;
type = TopGhost;
}
);
layerId = "F681C90F-60C6-46B5-9262-264E5CA00432";
shapes = (
{
closed = 1;
nodes = (
(903,0,l),
(903,700,l),
(737,700,l),
(737,130,l),
(568,130,l),
(568,700,l),
(402,700,l),
(402,130,l),
(233,130,l),
(233,700,l),
(67,700,l),
(67,0,l)
);
}
);
width = 970;
}
);
leftKerningGroup = B;
rightKerningGroup = H;
unicode = 1064;
},
{
glyphname = Ereversedcyr;
layers = (
{
anchors = (
{
name = top;
position = "{330, 719}";
}
);
hints = (
{
place = (495,167);
type = Stem;
},
{
horizontal = 1;
place = (-20,120);
type = Stem;
},
{
horizontal = 1;
place = (599,121);
type = Stem;
}
);
layerId = "F681C90F-60C6-46B5-9262-264E5CA00432";
shapes = (
{
closed = 1;
nodes = (
(546,293,l),
(201,293,l),
(201,423,l),
(546,423,l)
);
},
{
closed = 1;
nodes = (
(179,-20,o),
(104,28,o),
(33,107,c),
(128,202,l),
(176.734,144,o),
(239.391,110,o),
(305.033,110,cs),
(417.418,110,o),
(494,209,o),
(494,358,cs),
(494,499,o),
(425.378,589,o),
(311.008,589,cs),
(244.375,589,o),
(179.732,559,o),
(131,501,c),
(36,596,l),
(97,670,o),
(190,720,o),
(314,720,cs),
(527,720,o),
(662,573,o),
(662,360,cs),
(662,139,o),
(517,-20,o),
(299,-20,cs)
);
}
);
width = 694;
}
);
leftKerningGroup = C1;
rightKerningGroup = C;
unicode = 1069;
},
{
glyphname = Becyr;
layers = (
{
hints = (
{
place = (67,166);
type = Stem;
},
{
place = (427,166);
type = Stem;
},
{
horizontal = 1;
place = (0,120);
type = Stem;
},
{
horizontal = 1;
place = (318,121);
type = Stem;
},
{
horizontal = 1;
place = (579,121);
type = Stem;
},
{
horizontal = 1;
place = (700,-20);
target = down;
type = TopGhost;
}
);
layerId = "F681C90F-60C6-46B5-9262-264E5CA00432";
shapes = (
{
closed = 1;
nodes = (
(118,569,l),
(545,569,l),
(545,700,l),
(85,700,l),
(85,694,l)
);
},
{
alignment = -1;
ref = Softcyr;
}
);
width = 633;
}
);
leftKerningGroup = B;
unicode = 1041;
},
{
glyphname = gecyr;
layers = (
{
anchors = (
{
name = top;
position = "{241, 520}";
},
{
name = bottom;
position = "{241, -20}";
}
);
hints = (
{
place = (64,165);
type = Stem;
},
{
horizontal = 1;
place = (389,111);
type = Stem;
},
{
horizontal = 1;
place = (0,21);
target = up;
type = BottomGhost;
}
);
layerId = "F681C90F-60C6-46B5-9262-264E5CA00432";
shapes = (
{
closed = 1;
nodes = (
(64,0,l),
(229,0,l),
(229,380,l),
(424,380,l),
(424,500,l),
(64,500,l)
);
}
);
width = 441;
}
);
leftKerningGroup = i;
rightKerningGroup = r;
unicode = 1075;
},
{
glyphname = encyr;
layers = (
{
anchors = (
{
name = bottom;
position = "{306, -20}";
},
{
name = top;
position = "{306, 520}";
}
);
hints = (
{
place = (53,165);
type = Stem;
},
{
place = (397,165);
type = Stem;
},
{
horizontal = 1;
place = (195,110);
type = Stem;
},
{
horizontal = 1;
place = (0,21);
target = up;
type = BottomGhost;
},
{
horizontal = 1;
place = (500,-20);
target = down;
type = TopGhost;
}
);
layerId = "F681C90F-60C6-46B5-9262-264E5CA00432";
shapes = (
{
closed = 1;
nodes = (
(218,0,l),
(218,209,l),
(395,209,l),
(395,0,l),
(560,0,l),
(560,500,l),
(395,500,l),
(395,329,l),
(218,329,l),
(218,500,l),
(53,500,l),
(53,0,l)
);
}
);
width = 613;
}
);
leftKerningGroup = i;
rightKerningGroup = a1;
unicode = 1085;
},
{
glyphname = pecyr;
layers = (
{
anchors = (
{
name = bottom;
position = "{309, -20}";
},
{
name = top;
position = "{309, 520}";
}
);
hints = (
{
place = (53,165);
type = Stem;
},
{
place = (400,165);
type = Stem;
},
{
horizontal = 1;
place = (390,110);
type = Stem;
},
{
horizontal = 1;
place = (0,21);
target = up;
type = BottomGhost;
}
);
layerId = "F681C90F-60C6-46B5-9262-264E5CA00432";
shapes = (
{
closed = 1;
nodes = (
(218,0,l),
(218,380,l),
(400,380,l),
(400,0,l),
(565,0,l),
(565,500,l),
(53,500,l),
(53,0,l)
);
}
);
width = 618;
}
);
leftKerningGroup = i;
rightKerningGroup = a1;
unicode = 1087;
},
{
glyphname = icyr;
layers = (
{
anchors = (
{
name = top;
position = "{315, 520}";
},
{
name = bottom;
position = "{315, -20}";
}
);
hints = (
{
place = (57,165);
type = Stem;
},
{
place = (421,165);
type = Stem;
},
{
horizontal = 1;
place = (0,21);
target = up;
type = BottomGhost;
},
{
horizontal = 1;
place = (500,-20);
target = down;
type = TopGhost;
}
);
layerId = "F681C90F-60C6-46B5-9262-264E5CA00432";
shapes = (
{
closed = 1;
nodes = (
(53,500,l),
(53,0,l),
(203,0,l),
(411,266,l),
(411,0,l),
(576,0,l),
(576,500,l),
(426,500,l),
(218,234,l),
(218,500,l)
);
}
);
width = 629;
}
);
leftKerningGroup = i;
rightKerningGroup = a1;
unicode = 1080;
},
{
glyphname = Njecyr;
layers = (
{
hints = (
{
place = (68,166);
type = Stem;
},
{
place = (504,166);
type = Stem;
},
{
horizontal = 1;
place = (290,120);
type = Stem;
},
{
horizontal = 1;
place = (0,21);
target = up;
type = BottomGhost;
},
{
horizontal = 1;
place = (700,-20);
target = down;
type = TopGhost;
}
);
layerId = "F681C90F-60C6-46B5-9262-264E5CA00432";
shapes = (
{
closed = 1;
nodes = (
(68,0,l),
(234,0,l),
(234,285,l),
(472,285,l),
(472,0,l),
(638,0,l),
(638,700,l),
(472,700,l),
(472,415,l),
(234,415,l),
(234,700,l),
(68,700,l)
);
},
{
closed = 1;
nodes = (
(505,0,l),
(702,0,ls),
(891,0,o),
(951,87,o),
(951,205,cs),
(951,323,o),
(891,415,o),
(702,415,cs),
(506,415,l),
(521,285,l),
(633,285,ls),
(748,285,o),
(785,273,o),
(785,209,cs),
(785,153,o),
(756,130,o),
(633,130,cs),
(617,130,l),
(504,3,l)
);
}
);
width = 990;
}
);
leftKerningGroup = B;
rightKerningGroup = Ljecyr;
unicode = 1034;
},
{
glyphname = yucyr;
layers = (
{
anchors = (
{
name = bottom;
position = "{438, -20}";
},
{
name = top;
position = "{438, 520}";
}
);
hints = (
{
place = (297,165);
type = Stem;
},
{
place = (690,165);
type = Stem;
},
{
place = (53,165);
type = Stem;
},
{
horizontal = 1;
place = (-20,111);
type = Stem;
},
{
horizontal = 1;
place = (409,111);
type = Stem;
},
{
horizontal = 1;
place = (500,-20);
target = down;
type = TopGhost;
},
{
horizontal = 1;
place = (0,21);
target = up;
type = BottomGhost;
}
);
layerId = "F681C90F-60C6-46B5-9262-264E5CA00432";
shapes = (
{
closed = 1;
nodes = (
(199,194,l),
(335,194,l),
(335,314,l),
(199,314,l)
);
},
{
closed = 1;
nodes = (
(295,89,o),
(403,-20,o),
(564,-20,cs),
(729,-20,o),
(833,80,o),
(833,255,cs),
(833,431,o),
(725,520,o),
(564,520,cs),
(411,520,o),
(295,429,o),
(295,255,cs)
);
},
{
closed = 1;
nodes = (
(668,156,o),
(630,103,o),
(561,103,cs),
(495,103,o),
(460,155,o),
(460,254,cs),
(460,349,o),
(494,396,o),
(562,396,cs),
(632,396,o),
(668,347,o),
(668,252,cs)
);
},
{
closed = 1;
nodes = (
(224,0,l),
(224,500,l),
(59,500,l),
(59,0,l)
);
}
);
width = 877;
}
);
leftKerningGroup = i;
rightKerningGroup = b1;
unicode = 1102;
},
{
glyphname = tecyr;
layers = (
{
anchors = (
{
name = bottom;
position = "{262, -20}";
},
{
name = top;
position = "{263, 520}";
}
);
hints = (
{
place = (180,165);
type = Stem;
},
{
horizontal = 1;
place = (391,109);
type = Stem;
},
{
horizontal = 1;
place = (0,21);
target = up;
type = BottomGhost;
}
);
layerId = "F681C90F-60C6-46B5-9262-264E5CA00432";
shapes = (
{
closed = 1;
nodes = (
(22,500,l),
(22,380,l),
(180,380,l),
(180,0,l),
(345,0,l),
(345,380,l),
(503,380,l),
(503,500,l)
);
}
);
width = 525;
}
);
unicode = 1090;
},
{
glyphname = Checyr;
layers = (
{
anchors = (
{
name = top;
position = "{337, 719}";
}
);
hints = (
{
place = (60,166);
type = Stem;
},
{
place = (441,166);
type = Stem;
},
{
horizontal = 1;
place = (223,119);
type = Stem;
},
{
horizontal = 1;
place = (0,21);
target = up;
type = BottomGhost;
},
{
horizontal = 1;
place = (700,-20);
target = down;
type = TopGhost;
}
);
layerId = "F681C90F-60C6-46B5-9262-264E5CA00432";
shapes = (
{
closed = 1;
nodes = (
(441,0,l),
(607,0,l),
(607,700,l),
(441,700,l)
);
},
{
closed = 1;
nodes = (
(60,700,l),
(60,414,ls),
(60,268,o),
(139,193,o),
(271,193,cs),
(391,193,o),
(443,262,o),
(453,355,c),
(441,464,l),
(441,372,o),
(400,322,o),
(325,322,cs),
(266,322,o),
(226,353,o),
(226,470,cs),
(226,700,l)
);
}
);
width = 674;
}
);
rightKerningGroup = H;
unicode = 1063;
},
{
glyphname = checyr;
layers = (
{
anchors = (
{
name = bottom;
position = "{298, -20}";
},
{
name = top;
position = "{298, 520}";
}
);
hints = (
{
place = (57,165);
type = Stem;
},
{
place = (381,165);
type = Stem;
},
{
horizontal = 1;
place = (146,111);
type = Stem;
},
{
horizontal = 1;
place = (0,21);
target = up;
type = BottomGhost;
},
{
horizontal = 1;
place = (500,-20);
target = down;
type = TopGhost;
}
);
layerId = "F681C90F-60C6-46B5-9262-264E5CA00432";
shapes = (
{
closed = 1;
nodes = (
(377,0,l),
(542,0,l),
(542,500,l),
(377,500,l)
);
},
{
closed = 1;
nodes = (
(57,500,l),
(57,340,ls),
(57,207,o),
(158,143,o),
(249.9,143,cs),
(326,143,o),
(396,191,o),
(396,291,c),
(377,359,l),
(377,291,o),
(331,267,o),
(284.572,267,cs),
(241.212,267,o),
(222,287.933,o),
(222,340,cs),
(222,500,l)
);
}
);
width = 595;
}
);
rightKerningGroup = a1;
unicode = 1095;
},
{
glyphname = ereversedcyr;
layers = (
{
anchors = (
{
name = bottom;
position = "{301, -20}";
},
{
name = top;
position = "{281, 520}";
}
);
hints = (
{
place = (356,165);
type = Stem;
},
{
horizontal = 1;
place = (-20,111);
type = Stem;
},
{
horizontal = 1;
place = (409,111);
type = Stem;
}
);
layerId = "F681C90F-60C6-46B5-9262-264E5CA00432";
shapes = (
{
closed = 1;
nodes = (
(422,200,l),
(148,200,l),
(148,304,l),
(422,304,l)
);
},
{
closed = 1;
nodes = (
(321,104,o),
(356,155,o),
(356,254,cs),
(356,349,o),
(317,396,o),
(243,396,cs),
(196,396,o),
(145,377,o),
(118,342,c),
(33,427,l),
(83,488,o),
(158,520,o),
(257,520,cs),
(410,520,o),
(521,429,o),
(521,255,cs),
(521,89,o),
(420,-20,o),
(259,-20,cs),
(157,-20,o),
(79,12,o),
(29,73,c),
(114,158,l),
(141,123,o),
(191,104,o),
(242,104,cs)
);
}
);
width = 563;
}
);
leftKerningGroup = zecyr;
rightKerningGroup = b1;
unicode = 1101;
},
{
glyphname = shacyr;
layers = (
{
hints = (
{
place = (50,165);
type = Stem;
},
{
place = (357,165);
type = Stem;
},
{
place = (663,165);
type = Stem;
},
{
horizontal = 1;
place = (0,111);
type = Stem;
},
{
horizontal = 1;
place = (500,-20);
target = down;
type = TopGhost;
}
);
layerId = "F681C90F-60C6-46B5-9262-264E5CA00432";
shapes = (
{
closed = 1;
nodes = (
(826,0,l),
(826,500,l),
(661,500,l),
(661,122,l),
(522,122,l),
(522,500,l),
(357,500,l),
(357,122,l),
(218,122,l),
(218,500,l),
(53,500,l),
(53,0,l)
);
}
);
width = 879;
}
);
leftKerningGroup = i;
rightKerningGroup = a1;
unicode = 1096;
},
{
glyphname = Shchacyr;
layers = (
{
hints = (
{
place = (68,166);
type = Stem;
},
{
place = (404,166);
type = Stem;
},
{
place = (740,166);
type = Stem;
},
{
place = (902,136);
type = Stem;
},
{
horizontal = 1;
place = (0,120);
type = Stem;
},
{
horizontal = 1;
place = (700,-20);
target = down;
type = TopGhost;
},
{
horizontal = 1;
place = (-140,21);
target = up;
type = BottomGhost;
}
);
layerId = "F681C90F-60C6-46B5-9262-264E5CA00432";
shapes = (
{
closed = 1;
nodes = (
(67,0,l),
(67,700,l),
(233,700,l),
(233,130,l),
(403,130,l),
(403,700,l),
(569,700,l),
(569,130,l),
(739,130,l),
(739,700,l),
(905,700,l),
(905,130,l),
(1005,130,o),
(1039,98,o),
(1039,-140,c),
(906,-140,l),
(906,-42,o),
(914,0,o),
(843,0,cs)
);
}
);
width = 1060;
}
);
leftKerningGroup = B;
unicode = 1065;
},
{
glyphname = Tsecyr;
layers = (
{
hints = (
{
place = (67,166);
type = Stem;
},
{
place = (441,166);
type = Stem;
},
{
place = (603,136);
type = Stem;
},
{
horizontal = 1;
place = (0,120);
type = Stem;
},
{
horizontal = 1;
place = (701,-20);
target = down;
type = TopGhost;
},
{
horizontal = 1;
place = (-140,21);
target = up;
type = BottomGhost;
}
);
layerId = "F681C90F-60C6-46B5-9262-264E5CA00432";
shapes = (
{
closed = 1;
nodes = (
(543,0,ls),
(614,0,o),
(606,-42,o),
(606,-140,c),
(739,-140,l),
(739,98,o),
(707,130,o),
(607,130,c),
(607,701,l),
(441,701,l),
(441,130,l),
(233,130,l),
(233,701,l),
(67,701,l),
(67,0,l)
);
}
);
width = 760;
}
);
leftKerningGroup = B;
unicode = 1062;
},
{
glyphname = shchacyr;
layers = (
{
hints = (
{
place = (46,165);
type = Stem;
},
{
place = (353,165);
type = Stem;
},
{
place = (660,165);
type = Stem;
},
{
place = (830,116);
type = Stem;
},
{
horizontal = 1;
place = (-140,250);
type = Stem;
},
{
horizontal = 1;
place = (0,110);
type = Stem;
},
{
horizontal = 1;
place = (500,-20);
target = down;
type = TopGhost;
}
);
layerId = "F681C90F-60C6-46B5-9262-264E5CA00432";
shapes = (
{
closed = 1;
nodes = (
(774,0,ls),
(842,0,o),
(828,-102,o),
(828,-140,c),
(945,-140,l),
(945,61.226,o),
(924.175,120,o),
(826,120,c),
(826,500,l),
(661,500,l),
(661,120,l),
(522,120,l),
(522,500,l),
(357,500,l),
(357,120,l),
(218,120,l),
(218,500,l),
(53,500,l),
(53,0,l)
);
}
);
width = 954;
}
);
leftKerningGroup = i;
rightKerningGroup = l;
unicode = 1097;
},
{
glyphname = tsecyr;
layers = (
{
hints = (
{
place = (55,165);
type = Stem;
},
{
place = (378,165);
type = Stem;
},
{
place = (548,116);
type = Stem;
},
{
horizontal = 1;
place = (-140,248);
type = Stem;
},
{
horizontal = 1;
place = (0,108);
type = Stem;
},
{
horizontal = 1;
place = (0,110);
type = Stem;
},
{
horizontal = 1;
place = (500,-20);
target = down;
type = TopGhost;
}
);
layerId = "F681C90F-60C6-46B5-9262-264E5CA00432";
shapes = (
{
closed = 1;
nodes = (
(490,0,ls),
(557,0,o),
(544,-72,o),
(544,-140,c),
(661,-140,l),
(661,62,o),
(640.174,120,o),
(541,120,c),
(541,500,l),
(376,500,l),
(376,120,l),
(218,120,l),
(218,500,l),
(53,500,l),
(53,0,l)
);
}
);
width = 686;
}
);
leftKerningGroup = i;
rightKerningGroup = l;
unicode = 1094;
},
{
glyphname = Decyr;
layers = (
{
hints = (
{
place = (233,165);
type = Stem;
},
{
place = (546,166);
type = Stem;
},
{
place = (708,136);
type = Stem;
},
{
horizontal = 1;
place = (0,120);
type = Stem;
},
{
horizontal = 1;
place = (580,120);
type = Stem;
},
{
horizontal = 1;
place = (-140,21);
target = up;
type = BottomGhost;
}
);
layerId = "F681C90F-60C6-46B5-9262-264E5CA00432";
shapes = (
{
closed = 1;
nodes = (
(357,664,l),
(361,570,l),
(546,570,l),
(546,130,l),
(308,130,l),
(391,198,o),
(399,249,o),
(399,682,c)
);
},
{
closed = 1;
nodes = (
(65,131,o),
(20,103,o),
(20,-140,c),
(153,-140,l),
(153,-47,o),
(150,0,o),
(209,0,cs),
(648,0,ls),
(719,0,o),
(711,-42,o),
(711,-140,c),
(844,-140,l),
(844,103,o),
(812,129,o),
(712,129,c),
(712,700,l),
(233,700,l),
(233,671,ls),
(233,252,o),
(226,195,o),
(165,131,c)
);
}
);
width = 864;
}
);
unicode = 1044;
},
{
glyphname = Elcyr;
layers = (
{
hints = (
{
place = (180,165);
type = Stem;
},
{
place = (527,166);
type = Stem;
},
{
horizontal = 1;
place = (-20,122);
type = Stem;
},
{
horizontal = 1;
place = (580,120);
type = Stem;
},
{
horizontal = 1;
place = (0,21);
target = up;
type = BottomGhost;
}
);
layerId = "F681C90F-60C6-46B5-9262-264E5CA00432";
shapes = (
{
closed = 1;
nodes = (
(316,-20,o),
(345,67,o),
(345,570,c),
(528,570,l),
(528,0,l),
(693,0,l),
(693,700,l),
(180,700,l),
(180,244,o),
(178,113,o),
(113,113,cs),
(102,113,o),
(93,117,o),
(59,140,c),
(31,9,l),
(72,-9,o),
(100,-20,o),
(157,-20,cs)
);
}
);
width = 760;
}
);
rightKerningGroup = H;
unicode = 1051;
},
{
glyphname = elcyr;
layers = (
{
hints = (
{
place = (381,165);
type = Stem;
},
{
place = (107,162);
type = Stem;
},
{
horizontal = 1;
place = (-20,112);
type = Stem;
},
{
horizontal = 1;
place = (390,110);
type = Stem;
},
{
horizontal = 1;
place = (0,21);
target = up;
type = BottomGhost;
}
);
layerId = "F681C90F-60C6-46B5-9262-264E5CA00432";
shapes = (
{
closed = 1;
nodes = (
(46,-20,o),
(26,-16,o),
(5,-9,c),
(30,106,l),
(41,104,o),
(49,103,o),
(55,103,cs),
(99,103,o),
(107,180,o),
(107,500,c),
(546,500,l),
(546,0,l),
(381,0,l),
(381,378,l),
(271,378,l),
(271,56,o),
(213,-20,o),
(90,-20,cs)
);
}
);
width = 600;
}
);
rightKerningGroup = a1;
unicode = 1083;
},
{
glyphname = Efcyr;
layers = (
{
hints = (
{
place = (33,167);
type = Stem;
},
{
place = (335,166);
type = Stem;
},
{
place = (636,167);
type = Stem;
},
{
horizontal = 1;
place = (100,120);
type = Stem;
},
{
horizontal = 1;
place = (482,120);
type = Stem;
},
{
horizontal = 1;
place = (722,-20);
target = down;
type = TopGhost;
},
{
horizontal = 1;
place = (-20,21);
target = up;
type = BottomGhost;
}
);
layerId = "F681C90F-60C6-46B5-9262-264E5CA00432";
shapes = (
{
closed = 1;
nodes = (
(335,-20,l),
(501,-20,l),
(501,60,l),
(669,60,o),
(798,179,o),
(798,354,cs),
(798,527,o),
(671,642,o),
(501,642,c),
(501,722,l),
(335,722,l),
(335,642,l),
(165,642,o),
(38,527,o),
(38,354,cs),
(38,179,o),
(167,60,o),
(335,60,c)
);
},
{
closed = 1;
nodes = (
(501,512,l),
(576,512,o),
(631,455,o),
(631,356,cs),
(631,254,o),
(573,190,o),
(501,190,c)
);
},
{
closed = 1;
nodes = (
(335,190,l),
(263,190,o),
(205,254,o),
(205,356,cs),
(205,455,o),
(260,512,o),
(335,512,c)
);
}
);
width = 836;
}
);
leftKerningGroup = C1;
rightKerningGroup = C;
unicode = 1060;
},
{
glyphname = Zecyr;
layers = (
{
anchors = (
{
name = bottom;
position = "{294, -20}";
},
{
name = top;
position = "{294, 719}";
}
);
hints = (
{
place = (392,166);
type = Stem;
},
{
place = (358,167);
type = Stem;
},
{
horizontal = 1;
place = (-20,120);
type = Stem;
},
{
horizontal = 1;
place = (599,121);
type = Stem;
}
);
layerId = "F681C90F-60C6-46B5-9262-264E5CA00432";
shapes = (
{
closed = 1;
nodes = (
(359,452,o),
(315.632,434,o),
(241,424,c),
(241,304,l),
(335.311,314,o),
(392.5,278,o),
(392.5,202,cs),
(392.5,144,o),
(358.439,110,o),
(290.316,110,cs),
(226.2,110,o),
(163.087,140,o),
(115,197,c),
(20,102,l),
(89.935,25,o),
(163.866,-20,o),
(280.757,-20,cs),
(444.605,-20,o),
(557.5,68,o),
(557.5,197,cs),
(557.5,293,o),
(495.661,355,o),
(366,371,c),
(478.289,398,o),
(524,448,o),
(524,533,cs),
(524,649,o),
(437.172,720,o),
(297.45,720,cs),
(185.671,720,o),
(81.877,675,o),
(20,599,c),
(115,504,l),
(162.193,560,o),
(227.461,589,o),
(282.687,589,cs),
(336.909,589,o),
(359,561,o),
(359,516,cs)
);
}
);
width = 588;
}
);
rightKerningGroup = B1;
unicode = 1047;
},
{
glyphname = Ljecyr;
layers = (
{
hints = (
{
place = (180,160);
type = Stem;
},
{
place = (497,166);
type = Stem;
},
{
place = (809,166);
type = Stem;
},
{
horizontal = 1;
place = (-20,122);
type = Stem;
},
{
horizontal = 1;
place = (0,120);
type = Stem;
},
{
horizontal = 1;
place = (290,120);
type = Stem;
},
{
horizontal = 1;
place = (580,120);
type = Stem;
}
);
layerId = "F681C90F-60C6-46B5-9262-264E5CA00432";
shapes = (
{
closed = 1;
nodes = (
(316,-20,o),
(345,67,o),
(345,570,c),
(497,570,l),
(497,0,l),
(663,0,l),
(663,700,l),
(180,700,l),
(180,244,o),
(178,113,o),
(113,113,cs),
(102,113,o),
(93,117,o),
(59,140,c),
(31,9,l),
(72,-9,o),
(100,-20,o),
(157,-20,cs)
);
},
{
closed = 1;
nodes = (
(539,0,l),
(725,0,ls),
(893,0,o),
(975,65,o),
(975,199,cs),
(975,337,o),
(888,410,o),
(725,410,cs),
(549,410,l),
(564,280,l),
(670,280,ls),
(775,280,o),
(809,264,o),
(809,201,cs),
(809,145,o),
(782,130,o),
(670,130,cs),
(620,130,l),
(538,3,l)
);
}
);
width = 1014;
}
);
rightKerningGroup = Ljecyr;
unicode = 1033;
},
{
glyphname = becyr;
layers = (
{
hints = (
{
place = (12,116);
type = Stem;
},
{
place = (416,165);
type = Stem;
},
{
horizontal = 1;
place = (-20,110);
type = Stem;
},
{
horizontal = 1;
place = (369,111);
type = Stem;
}
);
layerId = "F681C90F-60C6-46B5-9262-264E5CA00432";
shapes = (
{
closed = 1;
nodes = (
(527,620,l),
(493.499,594,o),
(436.978,577.462,o),
(355.665,569,cs),
(187.152,551.462,o),
(147,499,o),
(147,353,c),
(182,429,o),
(259.69,480,o),
(359.44,480,cs),
(489.882,480,o),
(581,392,o),
(581,235,cs),
(581,74,o),
(484.041,-20,o),
(316.302,-20,cs),
(133.05,-20,o),
(39,90.844,o),
(39,327.51,cs),
(39,536.215,o),
(112.458,659.906,o),
(351.127,689,cs),
(391.73,693.95,o),
(471.919,707.305,o),
(527,749,c)
);
},
{
closed = 1;
nodes = (
(381.808,100,o),
(416,148.376,o),
(416,232.027,cs),
(416,312.655,o),
(383.656,357,o),
(316.196,357,cs),
(248.737,357,o),
(209,312.655,o),
(209,230.012,cs),
(209,148.376,o),
(246.888,100,o),
(314.348,100,cs)
);
}
);
width = 620;
}
);
leftKerningGroup = germandbls1;
rightKerningGroup = germandbls;
unicode = 1073;
},
{
glyphname = decyr;
layers = (
{
anchors = (
{
name = bottom;
position = "{409, -20}";
},
{
name = top;
position = "{410, 520}";
}
);
hints = (
{
place = (192,165);
type = Stem;
},
{
place = (476,165);
type = Stem;
},
{
place = (646,116);
type = Stem;
},
{
horizontal = 1;
place = (-140,250);
type = Stem;
},
{
horizontal = 1;
place = (0,110);
type = Stem;
},
{
horizontal = 1;
place = (389,111);
type = Stem;
}
);
layerId = "F681C90F-60C6-46B5-9262-264E5CA00432";
shapes = (
{
closed = 1;
nodes = (
(152,-140,l),
(153,-107,o),
(139,0,o),
(198,0,cs),
(578,0,ls),
(649,0,o),
(630,-102,o),
(630,-140,c),
(756,-140,l),
(756,69,o),
(732,121,o),
(635,121,c),
(635,500,l),
(196,500,l),
(196,331,ls),
(196,200,o),
(183,152,o),
(159,123,c),
(56,123,o),
(25,62,o),
(25,-140,c)
);
},
{
closed = 1;
nodes = (
(268,122,l),
(371,154,o),
(361,211,o),
(361,377,c),
(470,377,l),
(470,122,l)
);
}
);
width = 780;
}
);
rightKerningGroup = l;
unicode = 1076;
},
{
glyphname = Tshecyr;
layers = (
{
hints = (
{
place = (162,166);
type = Stem;
},
{
place = (507,166);
type = Stem;
},
{
horizontal = 1;
place = (349,111);
type = Stem;
},
{
horizontal = 1;
place = (580,120);
type = Stem;
}
);
layerId = "F681C90F-60C6-46B5-9262-264E5CA00432";
shapes = (
{
closed = 1;
nodes = (
(21,700,l),
(21,570,l),
(162,570,l),
(162,0,l),
(328,0,l),
(328,570,l),
(562,570,l),
(562,700,l)
);
},
{
closed = 1;
nodes = (
(693,0,l),
(693,271,ls),
(693,417,o),
(607,482,o),
(491,482,cs),
(378,482,o),
(320,420,o),
(310,327,c),
(328,211,l),
(328,303,o),
(369,353,o),
(444,353,cs),
(493,353,o),
(527,332,o),
(527,265,cs),
(527,0,l)
);
}
);
width = 752;
}
);
leftKerningGroup = T;
unicode = 1035;
},
{
glyphname = Djecyr;
layers = (
{
hints = (
{
place = (173,166);
type = Stem;
},
{
place = (564,165);
type = Stem;
},
{
horizontal = 1;
place = (356,110);
type = Stem;
},
{
horizontal = 1;
place = (580,120);
type = Stem;
},
{
horizontal = 1;
place = (0,21);
target = up;
type = BottomGhost;
}
);
layerId = "F681C90F-60C6-46B5-9262-264E5CA00432";
shapes = (
{
closed = 1;
nodes = (
(566,304,o),
(524.544,342,o),
(472.978,342,cs),
(402.2,342,o),
(338.5,271,o),
(338.5,174,cs),
(338.5,0,l),
(173.5,0,l),
(173.5,570,l),
(21,570,l),
(21,700,l),
(565,700,l),
(565,570,l),
(338.5,570,l),
(338.5,362,l),
(370.541,419,o),
(427.614,466,o),
(519.731,466,cs),
(657.907,466,o),
(731,359,o),
(731,220,cs),
(731,78,o),
(654,-21,o),
(521,-21,cs,{name = dv01;}),
(481,-21,o),
(457,-12,o),
(410,2,c),
(442,119,l),
(460.295,111,o),
(477.574,107,o),
(493.836,107,cs),
(543.639,107,o),
(566,146,o),
(566,213,cs)
);
}
);
width = 770;
}
);
leftKerningGroup = T;
unicode = 1026;
},
{
glyphname = zecyr;
layers = (
{
anchors = (
{
name = top;
position = "{250, 520}";
},
{
name = bottom;
position = "{280, -20}";
}
);
hints = (
{
place = (313,163);
type = Stem;
},
{
place = (286,163);
type = Stem;
},
{
horizontal = 1;
place = (-20,117);
type = Stem;
},
{
horizontal = 1;
place = (409,111);
type = Stem;
}
);
layerId = "F681C90F-60C6-46B5-9262-264E5CA00432";
shapes = (
{
closed = 1;
nodes = (
(163,520,o),
(75,496,o),
(29,427,c),
(119,337,l),
(150,378,o),
(188,397,o),
(235,397,cs),
(269,397,o),
(285,387,o),
(285,362,cs),
(285,329,o),
(257,320,o),
(179,315,c),
(179,209,l),
(274,219,o),
(312,207,o),
(312,163,cs),
(312,124,o),
(281,104,o),
(228,104,cs),
(180,104,o),
(143,121,o),
(108,170,c),
(18,80,l),
(58,11,o),
(137,-20,o),
(234,-20,cs),
(377,-20,o),
(475,48,o),
(475,151,cs),
(475,228.806,o),
(415.022,275,o),
(314,275,c),
(398.455,275,o),
(448,315.302,o),
(448,384,cs),
(448,468,o),
(370,520,o),
(247,520,cs)
);
}
);
width = 515;
}
);
leftKerningGroup = s1;
rightKerningGroup = s;
unicode = 1079;
},
{
glyphname = emcyr;
layers = (
{
hints = (
{
place = (50,165);
type = Stem;
},
{
place = (474,165);
type = Stem;
},
{
horizontal = 1;
place = (0,21);
target = up;
type = BottomGhost;
},
{
horizontal = 1;
place = (500,-20);
target = down;
type = TopGhost;
}
);
layerId = "F681C90F-60C6-46B5-9262-264E5CA00432";
shapes = (
{
closed = 1;
nodes = (
(218,0,l),
(218,244,l),
(311,89,l),
(378,89,l),
(471,244,l),
(471,0,l),
(636,0,l),
(636,500,l),
(488,500,l),
(345,262,l),
(202,500,l),
(53,500,l),
(53,0,l)
);
}
);
width = 689;
}
);
leftKerningGroup = i;
rightKerningGroup = a1;
unicode = 1084;
},
{
glyphname = softcyr;
layers = (
{
anchors = (
{
name = bottom;
position = "{268, -20}";
},
{
name = top;
position = "{268, 520}";
}
);
hints = (
{
place = (55,165);
type = Stem;
},
{
place = (332,165);
type = Stem;
},
{
horizontal = 1;
place = (0,111);
type = Stem;
},
{
horizontal = 1;
place = (231,111);
type = Stem;
},
{
horizontal = 1;
place = (500,-20);
target = down;
type = TopGhost;
}
);
layerId = "F681C90F-60C6-46B5-9262-264E5CA00432";
shapes = (
{
closed = 1;
nodes = (
(104,340,l),
(104,220,l),
(252,220,ls),
(308,220,o),
(331,207.755,o),
(331,170,cs),
(331,134.286,o),
(307,120,o),
(252,120,cs),
(218,120,l),
(218,500,l),
(53,500,l),
(53,0,l),
(302,0,ls),
(439,0,o),
(496,80.526,o),
(496,170,cs),
(496,259.474,o),
(436,340,o),
(301,340,cs)
);
}
);
width = 536;
}
);
leftKerningGroup = i;
rightKerningGroup = hardcyr;
unicode = 1100;
},
{
glyphname = hardcyr;
layers = (
{
hints = (
{
place = (118,165);
type = Stem;
},
{
place = (395,165);
type = Stem;
},
{
horizontal = 1;
place = (0,111);
type = Stem;
},
{
horizontal = 1;
place = (231,111);
type = Stem;
},
{
horizontal = 1;
place = (389,111);
type = Stem;
},
{
place = (119,165);
type = Stem;
},
{
place = (396,165);
type = Stem;
},
{
horizontal = 1;
place = (480,-20);
target = down;
type = TopGhost;
}
);
layerId = "F681C90F-60C6-46B5-9262-264E5CA00432";
shapes = (
{
closed = 1;
nodes = (
(21,500,l),
(21,378,l),
(179,378,l),
(212,497,l),
(212,500,l)
);
},
{
alignment = -1;
pos = (64,0);
ref = softcyr;
}
);
width = 600;
}
);
rightKerningGroup = hardcyr;
unicode = 1098;
},
{
glyphname = vecyr;
layers = (
{
anchors = (
{
name = top;
position = "{273, 520}";
},
{
name = bottom;
position = "{273, -20}";
}
);
hints = (
{
place = (53,165);
type = Stem;
},
{
place = (316,156);
type = Stem;
},
{
place = (348,156);
type = Stem;
},
{
horizontal = 1;
place = (0,110);
type = Stem;
},
{
horizontal = 1;
place = (217,74);
type = Stem;
},
{
horizontal = 1;
place = (390,110);
type = Stem;
}
);
layerId = "F681C90F-60C6-46B5-9262-264E5CA00432";
shapes = (
{
closed = 1;
nodes = (
(53,0,l),
(291,0,ls),
(431,0,o),
(506,49,o),
(506,146,cs),
(506,219,o),
(464,254,o),
(353,265,c),
(441,283,o),
(474,314,o),
(474,379,cs),
(474,465,o),
(417,500,o),
(281,500,cs),
(53,500,l)
);
},
{
closed = 1;
nodes = (
(218,120,l),
(218,380,l),
(261,380,ls),
(301,380,o),
(318,370.75,o),
(318,343,cs),
(318,316.278,o),
(303,306,o),
(261,306,cs),
(85,306,l),
(85,202,l),
(288,202,ls),
(323,202,o),
(350,194.825,o),
(350,163.05,cs),
(350,130.25,o),
(320,120,o),
(288,120,cs)
);
}
);
width = 546;
}
);
leftKerningGroup = i;
unicode = 1074;
},
{
glyphname = yacyr;
layers = (
{
anchors = (
{
name = bottom;
position = "{300, -20}";
},
{
name = top;
position = "{300, 520}";
}
);
hints = (
{
place = (56,166);
type = Stem;
},
{
place = (354,165);
type = Stem;
},
{
horizontal = 1;
place = (162,110);
type = Stem;
},
{
horizontal = 1;
place = (390,110);
type = Stem;
},
{
horizontal = 1;
place = (0,21);
target = up;
type = BottomGhost;
}
);
layerId = "F681C90F-60C6-46B5-9262-264E5CA00432";
shapes = (
{
closed = 1;
nodes = (
(517,0,l),
(517,500,l),
(269,500,ls),
(124,500,o),
(54,442,o),
(54,346,cs),
(54,276,o),
(91,227,o),
(145,196,c),
(45,0,l),
(218,0,l),
(300,162,l),
(352,162,l),
(352,0,l)
);
},
{
closed = 1;
nodes = (
(352,282,l),
(301,282,ls),
(257,282,o),
(220,295.553,o),
(220,332.043,cs),
(220,367.489,o),
(257,380,o),
(301,380,cs),
(352,380,l)
);
}
);
width = 570;
}
);
rightKerningGroup = a1;
unicode = 1103;
},
{
glyphname = Geupcyr;
layers = (
{
hints = (
{
place = (67,166);
type = Stem;
},
{
place = (412,135);
type = Stem;
},
{
horizontal = 1;
place = (580,120);
type = Stem;
},
{
horizontal = 1;
place = (580,234);
type = Stem;
},
{
horizontal = 1;
place = (0,21);
target = up;
type = BottomGhost;
}
);
layerId = "F681C90F-60C6-46B5-9262-264E5CA00432";
shapes = (
{
closed = 1;
nodes = (
(67,700,l),
(67,0,l),
(233,0,l),
(233,570,l),
(343,570,ls),
(502,570,o),
(547,624,o),
(547,814,c),
(414,814,l),
(414,720,o),
(397,700,o),
(342,700,cs)
);
}
);
width = 557;
}
);
leftKerningGroup = B;
rightKerningGroup = F;
unicode = 1168;
},
{
glyphname = geupcyr;
layers = (
{
hints = (
{
place = (70,165);
type = Stem;
},
{
place = (377,116);
type = Stem;
},
{
horizontal = 1;
place = (390,110);
type = Stem;
},
{
horizontal = 1;
place = (390,193);
type = Stem;
},
{
horizontal = 1;
place = (0,21);
target = up;
type = BottomGhost;
}
);
layerId = "F681C90F-60C6-46B5-9262-264E5CA00432";
shapes = (
{
closed = 1;
nodes = (
(364,378,ls),
(470,378,o),
(493,436,o),
(493,638,c),
(371,638,l),
(371,601,o),
(373,500,o),
(321,500,cs),
(53,500,l),
(53,0,l),
(218,0,l),
(218,378,l)
);
}
);
width = 510;
}
);
leftKerningGroup = i;
rightKerningGroup = r;
unicode = 1169;
},
{
glyphname = Dzhecyr;
layers = (
{
hints = (
{
place = (67,166);
type = Stem;
},
{
place = (450,166);
type = Stem;
},
{
horizontal = 1;
place = (0,121);
type = Stem;
},
{
horizontal = 1;
place = (700,-20);
target = down;
type = TopGhost;
},
{
horizontal = 1;
place = (-158,21);
target = up;
type = BottomGhost;
}
);
layerId = "F681C90F-60C6-46B5-9262-264E5CA00432";
shapes = (
{
closed = 1;
nodes = (
(275,0,l),
(287,-38,o),
(288,-119,o),
(277,-158,c),
(412,-158,l),
(425,-105,o),
(424,-52,o),
(408,0,c),
(616,0,l),
(616,700,l),
(450,700,l),
(450,131,l),
(233,131,l),
(233,700,l),
(67,700,l),
(67,0,l)
);
}
);
width = 683;
}
);
leftKerningGroup = B;
rightKerningGroup = H;
unicode = 1039;
},
{
glyphname = dzhecyr;
layers = (
{
hints = (
{
place = (50,165);
type = Stem;
},
{
place = (390,165);
type = Stem;
},
{
horizontal = 1;
place = (0,111);
type = Stem;
},
{
horizontal = 1;
place = (500,-20);
target = down;
type = TopGhost;
},
{
horizontal = 1;
place = (-141,21);
target = up;
type = BottomGhost;
}
);
layerId = "F681C90F-60C6-46B5-9262-264E5CA00432";
shapes = (
{
closed = 1;
nodes = (
(247,0,l),
(262,-42,o),
(260,-97,o),
(251,-141,c),
(363,-141,l),
(379,-88,o),
(375,-52,o),
(357,0,c),
(552,0,l),
(552,500,l),
(387,500,l),
(387,122,l),
(218,122,l),
(218,500,l),
(53,500,l),
(53,0,l)
);
}
);
width = 605;
}
);
leftKerningGroup = i;
rightKerningGroup = a1;
unicode = 1119;
},
{
glyphname = tau;
layers = (
{
anchors = (
{
name = topgr;
position = "{210, 520}";
}
);
hints = (
{
place = (128,165);
type = Stem;
},
{
place = (128,221);
type = Stem;
},
{
horizontal = 1;
place = (0,110);
type = Stem;
},
{
horizontal = 1;
place = (500,-20);
target = down;
type = TopGhost;
},
{
horizontal = 1;
place = (480,-20);
target = down;
type = TopGhost;
}
);
layerId = "F681C90F-60C6-46B5-9262-264E5CA00432";
shapes = (
{
closed = 1;
nodes = (
(24,500,l),
(24,376,l),
(390,376,l),
(390,500,l)
);
},
{
alignment = -1;
pos = (71,0);
ref = iota;
}
);
width = 421;
}
);
rightKerningGroup = l;
unicode = 964;
},
{
glyphname = gamma;
layers = (
{
anchors = (
{
name = topgr;
position = "{272, 520}";
}
);
hints = (
{
place = (189,165);
type = Stem;
},
{
horizontal = 1;
place = (500,-20);
target = down;
type = TopGhost;
},
{
horizontal = 1;
place = (-200,21);
target = up;
type = BottomGhost;
}
);
layerId = "F681C90F-60C6-46B5-9262-264E5CA00432";
shapes = (
{
closed = 1;
nodes = (
(189,-200,l),
(354,-200,l),
(354,80,l),
(341,-12,l),
(538,500,l),
(360,500,l),
(272,215,l),
(183,500,l),
(5,500,l),
(202,-12,l),
(189,80,l)
);
}
);
width = 543;
}
);
leftKerningGroup = v;
rightKerningGroup = v1;
unicode = 947;
},
{
glyphname = Sigma;
layers = (
{
hints = (
{
horizontal = 1;
place = (0,120);
type = Stem;
},
{
horizontal = 1;
place = (580,120);
type = Stem;
}
);
layerId = "F681C90F-60C6-46B5-9262-264E5CA00432";
shapes = (
{
closed = 1;
nodes = (
(524,0,l),
(524,130,l),
(265,130,l),
(463,350,l),
(265,570,l),
(524,570,l),
(524,700,l),
(31,700,l),
(31,602,l),
(258,350,l),
(31,98,l),
(31,0,l)
);
}
);
width = 570;
}
);
unicode = 931;
},
{
glyphname = Xi;
layers = (
{
hints = (
{
horizontal = 1;
place = (0,120);
type = Stem;
},
{
horizontal = 1;
place = (291,116);
type = Stem;
},
{
horizontal = 1;
place = (580,120);
type = Stem;
}
);
layerId = "F681C90F-60C6-46B5-9262-264E5CA00432";
shapes = (
{
closed = 1;
nodes = (
(55,570,l),
(548,570,l),
(548,700,l),
(55,700,l)
);
},
{
closed = 1;
nodes = (
(55,130,l),
(55,0,l),
(548,0,l),
(548,130,l)
);
},
{
closed = 1;
nodes = (
(493,286,l),
(493,412,l),
(111,412,l),
(111,286,l)
);
}
);
width = 593;
}
);
rightKerningGroup = E;
unicode = 926;
},
{
glyphname = iota;
layers = (
{
anchors = (
{
name = topgr;
position = "{138, 520}";
}
);
hints = (
{
place = (57,165);
type = Stem;
},
{
place = (57,221);
type = Stem;
},
{
horizontal = 1;
place = (0,110);
type = Stem;
},
{
horizontal = 1;
place = (500,-20);
target = down;
type = TopGhost;
}
);
layerId = "F681C90F-60C6-46B5-9262-264E5CA00432";
shapes = (
{
closed = 1;
nodes = (
(57,500,l),
(222,500,l),
(222,197.407,ls),
(222,135.079,o),
(241,120,o),
(278,120,c),
(278,0,l),
(230,0,ls),
(111,0,o),
(57,47,o),
(57,153,cs)
);
}
);
width = 310;
}
);
leftKerningGroup = i;
rightKerningGroup = l;
unicode = 953;
},
{
glyphname = Psi;
layers = (
{
anchors = (
{
name = topgr;
position = "{442, 720}";
}
);
hints = (
{
place = (60,166);
type = Stem;
},
{
place = (359,164);
type = Stem;
},
{
place = (657,166);
type = Stem;
},
{
horizontal = 1;
place = (701,-20);
target = down;
type = TopGhost;
},
{
horizontal = 1;
place = (0,21);
target = up;
type = BottomGhost;
}
);
layerId = "F681C90F-60C6-46B5-9262-264E5CA00432";
shapes = (
{
closed = 1;
nodes = (
(359,0,l),
(523,0,l),
(523,700,l),
(359,700,l)
);
},
{
closed = 1;
nodes = (
(60,701,l),
(60,432,ls),
(60,262,o),
(207,159,o),
(441,159,cs),
(675,159,o),
(823,261,o),
(823,432,cs),
(823,701,l),
(657,701,l),
(657,437,ls),
(657,331,o),
(591,289,o),
(444,289,cs),
(296,289,o),
(226,333,o),
(226,437,cs),
(226,701,l)
);
}
);
width = 883;
}
);
unicode = 936;
},
{
glyphname = ae.ss02;
layers = (
{
anchors = (
{
name = top;
position = "{486, 520}";
},
{
name = bottom;
position = "{486, -20}";
}
);
layerId = "F681C90F-60C6-46B5-9262-264E5CA00432";
shapes = (
{
closed = 1;
nodes = (
(219.54,397,o),
(174.46,377,o),
(148,342,c),
(64.7,427,l),
(113.7,488,o),
(192.1,520,o),
(293.04,520,cs),
(367.96,520,o),
(422.24,502.21,o),
(458.32,473.42,c),
(501.67,503.72,o),
(556.35,520,o),
(617.91,520,cs),
(790.05,520,o),
(887.29,404.02,o),
(876.15,212,c),
(516.15,212,l),
(520,138,o),
(560.3,103,o),
(635.19,103,cs),
(691.83,103,o),
(736,123,o),
(761.91,158,c),
(843.51,73,l),
(795.51,12,o),
(718.71,-20,o),
(630.39,-20,cs),
(530.473,-20,o),
(448.64,20.296,o),
(400.807,91.134,c),
(363.762,15.451,o),
(283.979,-20,o),
(215.833,-20,cs),
(120.762,-20,o),
(49.02,49,o),
(49.02,146,cs),
(49.02,243,o),
(118.6,312,o),
(216.6,312,cs),
(277.82,312,o),
(326.82,284.48,o),
(352.88,235.88,c),
(352.88,325,ls),
(352.88,375,o),
(313.62,397,o),
(265.6,397,cs)
);
},
{
closed = 1;
nodes = (
(714.87,332,l),
(709.79,373.87,o),
(666.87,397,o),
(616.66,397,cs),
(560.3,397,o),
(523.83,367.89,o),
(518.07,332,c)
);
},
{
closed = 1;
nodes = (
(211.7,120,o),
(232.28,104,o),
(266.58,104,cs),
(305.95,104,o),
(341.72,124.49,o),
(352.24,157.63,c),
(336.39,178.82,o),
(305.76,192,o),
(271.48,192,cs),
(234.24,192,o),
(211.7,177,o),
(211.7,148,cs)
);
}
);
width = 904;
}
);
leftKerningGroup = a.ss02;
},
{
glyphname = upsilon;
layers = (
{
anchors = (
{
name = topgr;
position = "{283, 520}";
}
);
hints = (
{
place = (57,165);
type = Stem;
},
{
place = (408,165);
type = Stem;
},
{
horizontal = 1;
place = (-20,110);
type = Stem;
},
{
horizontal = 1;
place = (500,-20);
target = down;
type = TopGhost;
}
);
layerId = "F681C90F-60C6-46B5-9262-264E5CA00432";
shapes = (
{
closed = 1;
nodes = (
(57,500,l),
(57,185,ls),
(57,57,o),
(155,-20,o),
(306,-20,cs),
(480,-20,o),
(569,81,o),
(569,256,cs),
(569,349,o),
(544,434,o),
(502,500,c),
(343,500,l),
(378,430,o),
(404,355,o),
(404,249,cs),
(404,150,o),
(381,103,o),
(311,103,cs),
(249,103,o),
(222,141,o),
(222,237,cs),
(222,500,l)
);
}
);
width = 608;
}
);
leftKerningGroup = i;
rightKerningGroup = b1;
unicode = 965;
},
{
glyphname = delta;
layers = (
{
anchors = (
{
name = topgr;
position = "{308, 721}";
}
);
hints = (
{
place = (29,165);
type = Stem;
},
{
place = (78,156);
type = Stem;
},
{
place = (422,165);
type = Stem;
},
{
horizontal = 1;
place = (-20,110);
type = Stem;
},
{
horizontal = 1;
place = (590,110);
type = Stem;
}
);
layerId = "F681C90F-60C6-46B5-9262-264E5CA00432";
shapes = (
{
closed = 1;
nodes = (
(412,144,o),
(376,103,o),
(305,103,cs),
(235,103,o),
(204,143,o),
(204,220,cs),
(204,304,o),
(240,345,o),
(309,345,cs),
(378,345,o),
(412,305,o),
(412,226,cs)
);
},
{
closed = 1;
nodes = (
(39,82,o),
(143,-20,o),
(309,-20,cs),
(470,-20,o),
(577,75,o),
(577,226,cs),
(577,376,o),
(471,467,o),
(310,467,cs),
(142,467,o),
(39,369,o),
(39,226,cs)
);
},
{
closed = 1;
nodes = (
(275,581,o),
(291,597,o),
(332,597,cs),
(375,597,o),
(421,579,o),
(448,552,c),
(533,637,l),
(485,688,o),
(408,720,o),
(318,720,cs),
(195,720,o),
(110,660,o),
(110,574,cs),
(110,493,o),
(185,445,o),
(302,438,c),
(439,443,l),
(376.359,467.782,o),
(275,507,o),
(275,559,cs)
);
}
);
width = 616;
}
);
leftKerningGroup = germandbls1;
rightKerningGroup = germandbls;
unicode = 948;
},
{
glyphname = sigmafinal;
layers = (
{
anchors = (
{
name = topgr;
position = "{295, 520}";
}
);
hints = (
{
place = (29,165);
type = Stem;
},
{
place = (383,165);
type = Stem;
},
{
horizontal = 1;
place = (409,111);
type = Stem;
},
{
horizontal = 1;
place = (-205,21);
target = up;
type = BottomGhost;
}
);
layerId = "F681C90F-60C6-46B5-9262-264E5CA00432";
shapes = (
{
closed = 1;
nodes = (
(241,397,o),
(194,354,o),
(194,248,cs),
(194,154,o),
(231,103,o),
(338,103,cs),
(472,103,o),
(548,24,o),
(548,-71,cs),
(548,-131,o),
(520.133,-175,o),
(499.697,-200,c),
(352,-200,l),
(377,-166,o),
(398,-143,o),
(398,-97,cs),
(398,-50,o),
(376.11,-20,o),
(285.424,-20,cs),
(90.5,-20,o),
(29,118,o),
(29,254,cs),
(29,426,o),
(124,520,o),
(296,520,cs),
(383,520,o),
(478,496,o),
(527,427,c),
(442,342,l),
(415,377,o),
(369,397,o),
(317,397,cs)
);
}
);
width = 590;
}
);
leftKerningGroup = a;
unicode = 962;
},
{
glyphname = theta;
layers = (
{
anchors = (
{
name = topgr;
position = "{322, 721}";
}
);
hints = (
{
place = (39,167);
type = Stem;
},
{
place = (439,166);
type = Stem;
},
{
horizontal = 1;
place = (-20,110);
type = Stem;
},
{
horizontal = 1;
place = (299,100);
type = Stem;
},
{
horizontal = 1;
place = (610,110);
type = Stem;
}
);
layerId = "F681C90F-60C6-46B5-9262-264E5CA00432";
shapes = (
{
closed = 1;
nodes = (
(39,115,o),
(143,-20,o),
(324,-20,cs),
(503,-20,o),
(605,114,o),
(605,348,cs),
(605,581,o),
(500,720,o),
(324,720,cs),
(146,720,o),
(39,580,o),
(39,348,cs)
);
},
{
closed = 1;
nodes = (
(245,103,o),
(205,184,o),
(205,347,cs),
(205,517,o),
(243,597,o),
(324,597,cs),
(404,597,o),
(440,518,o),
(440,347,cs),
(440,179,o),
(404,103,o),
(324,103,cs)
);
},
{
closed = 1;
nodes = (
(191,294,l),
(454,294,l),
(454,410,l),
(191,410,l)
);
}
);
width = 644;
}
);
leftKerningGroup = germandbls1;
rightKerningGroup = germandbls;
unicode = 952;
},
{
glyphname = sigma;
layers = (
{
anchors = (
{
name = ogonek;
position = "{417, -3}";
},
{
name = bottom;
position = "{308, -20}";
},
{
name = topgr;
position = "{308, 520}";
}
);
layerId = "F681C90F-60C6-46B5-9262-264E5CA00432";
shapes = (
{
closed = 1;
nodes = (
(39,84.963,o),
(147,-20,o),
(308,-20,cs),
(473,-20,o),
(577,76.296,o),
(577,244.815,cs),
(577,414.296,o),
(469,500,o),
(308,500,cs),
(155,500,o),
(39,412.37,o),
(39,244.815,cs)
);
},
{
closed = 1;
nodes = (
(412,150.648,o),
(374,100,o),
(305,100,cs),
(239,100,o),
(204,149.693,o),
(204,244.3,cs),
(204,335.085,o),
(238,380,o),
(306,380,cs),
(376,380,o),
(412,333.174,o),
(412,242.389,cs)
);
},
{
closed = 1;
nodes = (
(306,500,l),
(375,376,l),
(631,376,l),
(631,500,l)
);
}
);
width = 648;
}
);
leftKerningGroup = a;
unicode = 963;
},
{
glyphname = chi;
layers = (
{
anchors = (
{
name = topgr;
position = "{323, 520}";
}
);
hints = (
{
horizontal = 1;
place = (-220,110);
type = Stem;
},
{
horizontal = 1;
place = (410,110);
type = Stem;
},
{
horizontal = 1;
place = (-200,21);
target = up;
type = BottomGhost;
},
{
horizontal = 1;
place = (500,-20);
target = down;
type = TopGhost;
}
);
layerId = "F681C90F-60C6-46B5-9262-264E5CA00432";
shapes = (
{
closed = 1;
nodes = (
(619,-96,l),
(500.136,-96,o),
(442.975,-28.184,o),
(388.003,178.052,cs),
(320.515,431.246,o),
(233.044,520,o),
(51,520,c),
(51,397,l),
(146.327,397,o),
(191.961,338.548,o),
(245.284,148.145,cs),
(320.631,-120.9,o),
(420.487,-219,o),
(619,-219,c)
);
},
{
closed = 1;
nodes = (
(24,-200,l,{name = ab01;}),
(207,-200,l),
(621,500,l,{name = at01;}),
(438,500,l)
);
}
);
width = 646;
}
);
unicode = 967;
},
{
glyphname = lambda;
layers = (
{
anchors = (
{
name = topgr;
position = "{300, 721}";
}
);
layerId = "F681C90F-60C6-46B5-9262-264E5CA00432";
shapes = (
{
closed = 1;
nodes = (
(157,625,o),
(178.096,575.028,o),
(201,495,cs),
(286,198,ls),
(339.479,11.137,o),
(406,-21,o),
(481,-21,cs),
(519,-21,o),
(548,-13,o),
(590,2,c),
(566,115,l),
(548,106,o),
(536,104,o),
(526,104,cs),
(503,104,o),
(473,115,o),
(451,190,cs),
(354,529,ls),
(310,683,o),
(257,751,o),
(146,751,cs),
(113,751,o),
(77,745,o),
(21,728,c),
(51,617,l),
(71,623,o),
(96,625,o),
(106,625,cs)
);
},
{
closed = 1;
nodes = (
(287,276,l),
(206,500,l),
(14,0,l),
(181,0,l)
);
}
);
width = 600;
}
);
unicode = 955;
},
{
glyphname = zeta;
layers = (
{
anchors = (
{
name = topgr;
position = "{280, 721}";
}
);
hints = (
{
place = (24,165);
type = Stem;
},
{
place = (337,165);
type = Stem;
},
{
horizontal = 1;
place = (590,110);
type = Stem;
},
{
horizontal = 1;
place = (-200,21);
target = up;
type = BottomGhost;
}
);
layerId = "F681C90F-60C6-46B5-9262-264E5CA00432";
shapes = (
{
closed = 1;
nodes = (
(443,103,o),
(521,26,o),
(521,-71,cs),
(521,-131,o),
(493.133,-175,o),
(472.697,-200,c),
(325,-200,l),
(350,-166,o),
(371,-143,o),
(371,-97,cs),
(371,-50,o),
(352.106,-20,o),
(270.232,-20,cs),
(127.477,-20,o),
(54,78,o),
(54,213,cs),
(54,349,o),
(122,451,o),
(319,577,c),
(39,577,l),
(39,700,l),
(502,700,l),
(502,587,l),
(280,422,o),
(219,343,o),
(219,224,cs),
(219,145,o),
(245,103,o),
(338,103,cs)
);
}
);
width = 560;
}
);
leftKerningGroup = germandbls1;
rightKerningGroup = germandbls;
unicode = 950;
},
{
glyphname = xi;
layers = (
{
hints = (
{
place = (29,166);
type = Stem;
},
{
place = (65,166);
type = Stem;
},
{
place = (342,165);
type = Stem;
},
{
horizontal = 1;
place = (627,109);
type = Stem;
},
{
horizontal = 1;
place = (-205,21);
target = up;
type = BottomGhost;
}
);
layerId = "F681C90F-60C6-46B5-9262-264E5CA00432";
shapes = (
{
closed = 1;
nodes = (
(62,581,l),
(62,701,l),
(435,701,l),
(435,581,l)
);
},
{
closed = 1;
nodes = (
(440.882,103,o),
(517,24,o),
(517,-71,cs),
(517,-131,o),
(489.133,-175,o),
(468.697,-200,c),
(321,-200,l),
(346,-166,o),
(367,-143,o),
(367,-97,cs),
(367,-50,o),
(345.057,-20,o),
(255.197,-20,cs),
(115.181,-20,o),
(29.5,55.21,o),
(29.5,177.922,cs),
(29.5,291.727,o),
(105.317,328,o),
(237,333,c),
(124.328,350,o),
(65.5,392.583,o),
(65.5,456.458,cs),
(65.5,557.847,o),
(220.28,638.958,o),
(418,642,c),
(434,581,l),
(288.643,560,o),
(230.5,532,o),
(230.5,478,cs),
(230.5,419,o),
(300.673,385,o),
(433,385,c),
(433,269,l),
(249.616,269,o),
(194.5,255,o),
(194.5,178,cs),
(194.5,129,o),
(233.561,103,o),
(307.675,103,cs)
);
}
);
width = 529;
}
);
leftKerningGroup = germandbls1;
rightKerningGroup = germandbls;
unicode = 958;
},
{
glyphname = f_f;
layers = (
{
layerId = "F681C90F-60C6-46B5-9262-264E5CA00432";
shapes = (
{
closed = 1;
nodes = (
(99,380,l),
(99,0,l),
(264,0,l),
(264,380,l),
(390,380,l),
(390,500,l),
(264,500,l),
(264,547,ls),
(264,593,o),
(280,627,o),
(322,627,cs),
(334,627,o),
(358,624,o),
(376,617,c),
(406,728,l),
(347,746,o),
(317,751,o),
(283,751,cs),
(168,751,o),
(99,694,o),
(99,588,cs),
(99,500,l),
(22,500,l),
(22,380,l)
);
},
{
closed = 1;
nodes = (
(476,380,l),
(476,0,l),
(641,0,l),
(641,380,l),
(767,380,l),
(767,500,l),
(641,500,l),
(641,547,ls),
(641,593,o),
(657,627,o),
(699,627,cs),
(711,627,o),
(735,624,o),
(753,617,c),
(783,728,l),
(724,746,o),
(694,751,o),
(660,751,cs),
(545,751,o),
(476,694,o),
(476,588,cs),
(476,500,l),
(362.057,500.313,l),
(362.057,380,l)
);
}
);
width = 800;
}
);
leftKerningGroup = f;
rightKerningGroup = f1;
unicode = 64256;
},
{
glyphname = dieresistonos;
layers = (
{
anchors = (
{
name = topgr;
position = "{166, 688}";
},
{
name = _topgr;
position = "{166, 500}";
}
);
hints = (
{
place = (-3,116);
type = Stem;
},
{
place = (222,116);
type = Stem;
},
{
horizontal = 1;
place = (583,117);
type = Stem;
},
{
horizontal = 1;
place = (583,170);
type = Stem;
}
);
layerId = "F681C90F-60C6-46B5-9262-264E5CA00432";
shapes = (
{
closed = 1;
nodes = (
(145,713,l),
(114,543,l),
(188,543,l),
(239,713,l)
);
},
{
closed = 1;
nodes = (
(324.841,553.23,o),
(343.093,578.782,o),
(343.093,607.071,cs),
(343.093,635.361,o),
(324.841,660,o),
(291.076,660,cs),
(255.486,660,o),
(237.235,631.71,o),
(237.235,607.071,cs),
(237.235,582.432,o),
(255.486,553.23,o),
(291.076,553.23,cs)
);
},
{
closed = 1;
nodes = (
(79.514,553.23,o),
(97.765,578.782,o),
(97.765,607.071,cs),
(97.765,635.361,o),
(79.514,660,o),
(45.749,660,cs),
(10.159,660,o),
(-8.093,631.71,o),
(-8.093,607.071,cs),
(-8.093,582.432,o),
(10.159,553.23,o),
(45.749,553.23,cs)
);
}
);
width = 333;
}
);
unicode = 901;
},
{
glyphname = anoteleia;
layers = (
{
hints = (
{
place = (29,117);
type = Stem;
},
{
horizontal = 1;
place = (383,116);
type = Stem;
}
);
layerId = "F681C90F-60C6-46B5-9262-264E5CA00432";
shapes = (
{
closed = 1;
nodes = (
(41,402,o),
(79,361,o),
(131,361,cs),
(182,361,o),
(221,402,o),
(221,452,cs),
(221,502,o),
(182,541,o),
(131,541,cs),
(79,541,o),
(41,502,o),
(41,452,cs)
);
}
);
width = 262;
}
);
unicode = 903;
},
{
glyphname = caron.salt;
layers = (
{
anchors = (
{
name = _topright;
position = "{0, 700}";
}
);
hints = (
{
horizontal = 1;
place = (540,160);
type = Stem;
}
);
layerId = "F681C90F-60C6-46B5-9262-264E5CA00432";
shapes = (
{
closed = 1;
nodes = (
(0,540,l),
(80,540,l),
(135,700,l),
(35,700,l)
);
}
);
width = 135;
}
);
},
{
glyphname = dotlessi;
layers = (
{
anchors = (
{
name = top;
position = "{136, 520}";
},
{
name = bottom;
position = "{136, -20}";
},
{
name = ogonek;
position = "{212, -3}";
}
);
hints = (
{
place = (54,165);
type = Stem;
},
{
horizontal = 1;
place = (500,-20);
target = down;
type = TopGhost;
},
{
horizontal = 1;
place = (0,21);
target = up;
type = BottomGhost;
}
);
layerId = "F681C90F-60C6-46B5-9262-264E5CA00432";
shapes = (
{
closed = 1;
nodes = (
(219,0,l),
(219,500,l),
(54,500,l),
(54,0,l)
);
}
);
width = 272;
}
);
leftKerningGroup = i;
unicode = 305;
},
{
glyphname = trademark;
layers = (
{
hints = (
{
place = (160,131);
type = Stem;
},
{
place = (468,131);
type = Stem;
},
{
place = (852,131);
type = Stem;
},
{
horizontal = 1;
place = (620,80);
type = Stem;
},
{
horizontal = 1;
place = (248,21);
target = up;
type = BottomGhost;
}
);
layerId = "F681C90F-60C6-46B5-9262-264E5CA00432";
shapes = (
{
closed = 1;
nodes = (
(21,700,l),
(21,610,l),
(168,610,l),
(168,248,l),
(283,248,l),
(283,610,l),
(430,610,l),
(430,700,l)
);
},
{
closed = 1;
nodes = (
(588,476,l),
(685,248,l),
(770,248,l),
(862,476,l),
(862,248,l),
(977,248,l),
(977,700,l),
(872,700,l),
(728,360,l),
(579,700,l),
(473,700,l),
(473,248,l),
(588,248,l)
);
}
);
width = 1016;
}
);
unicode = 8482;
},
{
color = (153, 255, 154, 255);
glyphname = M.ss01;
layers = (
{
anchors = (
{
name = top;
position = "{435, 719}";
},
{
name = bottom;
position = "{435, -20}";
}
);
hints = (
{
place = (67,165);
type = Stem;
},
{
place = (638,165);
type = Stem;
},
{
horizontal = 1;
place = (700,-20);
target = down;
type = TopGhost;
},
{
horizontal = 1;
place = (0,21);
target = up;
type = BottomGhost;
}
);
layerId = "F681C90F-60C6-46B5-9262-264E5CA00432";
shapes = (
{
closed = 1;
nodes = (
(232,427,l),
(413,137,l),
(457,137,l),
(638,427,l),
(638,0,l),
(803,0,l),
(803,700,l),
(648,700,l),
(435,359,l),
(222,700,l),
(67,700,l),
(67,0,l),
(232,0,l)
);
}
);
width = 870;
}
);
leftKerningGroup = B;
rightKerningGroup = H;
},
{
color = (153, 255, 154, 255);
glyphname = a.ss02;
layers = (
{
anchors = (
{
name = top;
position = "{290, 520}";
},
{
name = bottom;
position = "{280, -20}";
},
{
name = ogonek;
position = "{514, -3}";
}
);
hints = (
{
place = (45,165);
type = Stem;
},
{
place = (358,165);
type = Stem;
},
{
horizontal = 1;
place = (-20,110);
type = Stem;
},
{
horizontal = 1;
place = (410,110);
type = Stem;
},
{
horizontal = 1;
place = (0,21);
target = up;
type = BottomGhost;
}
);
layerId = "F681C90F-60C6-46B5-9262-264E5CA00432";
shapes = (
{
closed = 1;
nodes = (
(215,120,o),
(236,104,o),
(271,104,cs),
(322,104,o),
(364,137,o),
(358,187,c),
(371,110,l),
(354,28,o),
(298,-20,o),
(217,-20,cs),
(120,-20,o),
(49,49,o),
(49,146,cs),
(49,243,o),
(120,312,o),
(220,312,cs),
(299,312,o),
(355,268,o),
(372,193,c),
(367,124,l),
(367,164,o),
(327,192,o),
(276,192,cs),
(238,192,o),
(215,177,o),
(215,148,cs)
);
},
{
closed = 1;
nodes = (
(223,397,o),
(177,377,o),
(150,342,c),
(65,427,l),
(115,488,o),
(195,520,o),
(298,520,cs),
(456,520,o),
(521,444,o),
(521,352,cs),
(521,0,l),
(356,0,l),
(356,325,ls),
(356,375,o),
(319,397,o),
(270,397,cs)
);
}
);
width = 580;
}
);
leftKerningGroup = a.ss02;
rightKerningGroup = a.ss021;
},
{
color = (153, 255, 154, 255);
glyphname = u.ss05;
layers = (
{
anchors = (
{
name = bottom;
position = "{300, -20}";
},
{
name = top;
position = "{300, 520}";
},
{
name = ogonek;
position = "{539, -3}";
}
);
hints = (
{
place = (57,165);
type = Stem;
},
{
place = (382,165);
type = Stem;
},
{
horizontal = 1;
place = (-20,111);
type = Stem;
},
{
horizontal = 1;
place = (500,-20);
target = down;
type = TopGhost;
},
{
horizontal = 1;
place = (0,21);
target = up;
type = BottomGhost;
}
);
layerId = "F681C90F-60C6-46B5-9262-264E5CA00432";
shapes = (
{
closed = 1;
nodes = (
(397,213,l),
(381,283,l),
(381,156.619,o),
(352,100,o),
(288,100,cs),
(239,100,o),
(222,132.161,o),
(222,225.628,cs),
(222,500,l),
(57,500,l),
(57,196,ls),
(57,53,o),
(119,-20,o),
(228,-20,cs),
(319,-20,o),
(372,30,o),
(399,130,c)
);
},
{
closed = 1;
nodes = (
(546,500,l),
(381,500,l),
(381,0,l),
(546,0,l)
);
}
);
width = 600;
}
);
leftKerningGroup = u;
rightKerningGroup = a1;
},
{
color = (153, 255, 154, 255);
glyphname = Q.ss06;
layers = (
{
anchors = (
{
name = top;
position = "{398, 719}";
},
{
name = bottom;
position = "{398, -20}";
},
{
name = ogonek;
position = "{522, -1}";
}
);
hints = (
{
place = (23,167);
type = Stem;
},
{
place = (605,167);
type = Stem;
},
{
horizontal = 1;
place = (-20,121);
type = Stem;
},
{
horizontal = 1;
place = (599,121);
type = Stem;
}
);
layerId = "F681C90F-60C6-46B5-9262-264E5CA00432";
shapes = (
{
closed = 1;
nodes = (
(306,115,l),
(324,157,o),
(351,172,o),
(373.677,172,cs),
(410.262,172,o),
(426.865,127.419,o),
(447.716,71.433,cs),
(482.903,-23.044,o),
(530.185,-150,o),
(706,-150,c),
(706,-20,l),
(626.93,-20,o),
(605.982,35.064,o),
(584.411,91.77,cs),
(561.513,151.96,o),
(537.913,214,o),
(443.35,214,cs),
(352,214,o),
(320,166,o),
(299,119,c)
);
},
{
alignment = -1;
ref = O;
}
);
width = 795;
}
);
leftKerningGroup = C1;
rightKerningGroup = C;
},
{
color = (153, 255, 154, 255);
glyphname = J.ss07;
layers = (
{
anchors = (
{
name = top;
position = "{254, 719}";
},
{
name = bottom;
position = "{164, -89}";
}
);
hints = (
{
place = (171,166);
type = Stem;
},
{
horizontal = 1;
place = (-144,120);
type = Stem;
},
{
horizontal = 1;
place = (700,-20);
target = down;
type = TopGhost;
}
);
layerId = "F681C90F-60C6-46B5-9262-264E5CA00432";
shapes = (
{
closed = 1;
nodes = (
(20,-144,l),
(254,-144,o),
(337,-67,o),
(337,148,cs),
(336.5,700,l),
(171.5,700,l),
(171.5,142,ls),
(171.5,16,o),
(125,-14,o),
(20,-14,c)
);
}
);
width = 400;
}
);
leftKerningGroup = J;
rightKerningGroup = J1;
},
{
color = (153, 255, 154, 255);
glyphname = R.ss08;
layers = (
{
anchors = (
{
name = top;
position = "{323, 719}";
},
{
name = bottom;
position = "{323, -20}";
}
);
hints = (
{
place = (69,166);
type = Stem;
},
{
place = (423,167);
type = Stem;
},
{
horizontal = 1;
place = (244,120);
type = Stem;
},
{
horizontal = 1;
place = (580,120);
type = Stem;
},
{
horizontal = 1;
place = (0,21);
target = up;
type = BottomGhost;
}
);
layerId = "F681C90F-60C6-46B5-9262-264E5CA00432";
shapes = (
{
closed = 1;
nodes = (
(234,0,l),
(234,244,l),
(326,244,ls),
(482,244,o),
(590,337,o),
(590,474,cs),
(590,615,o),
(495,700,o),
(338,700,cs),
(68,700,l),
(68,0,l)
);
},
{
closed = 1;
nodes = (
(234,374,l),
(234,570,l),
(294,570,ls),
(387,570,o),
(423,543,o),
(423,469,cs),
(423,398,o),
(388,374,o),
(294,374,cs)
);
},
{
closed = 1;
nodes = (
(286,244,l),
(339,242,o),
(390,232,o),
(411,183,cs),
(428,143,o),
(411,60,o),
(426,0,c),
(595,0,l),
(575,56,o),
(595,171,o),
(570,222,cs),
(545,273,o),
(503,279,o),
(407,305,c)
);
}
);
width = 645;
}
);
leftKerningGroup = B;
rightKerningGroup = R;
},
{
color = (153, 255, 154, 255);
glyphname = C.ss09;
layers = (
{
anchors = (
{
name = bottom;
position = "{407, -19}";
},
{
name = top;
position = "{387, 719}";
}
);
hints = (
{
place = (38,167);
type = Stem;
},
{
horizontal = 1;
place = (-20,121);
type = Stem;
},
{
horizontal = 1;
place = (485,235);
type = Stem;
},
{
horizontal = 1;
place = (599,121);
type = Stem;
}
);
layerId = "F681C90F-60C6-46B5-9262-264E5CA00432";
shapes = (
{
closed = 1;
nodes = (
(38,146,o),
(190,-20,o),
(402,-20,cs),
(585,-20,o),
(703,103,o),
(735,261,c),
(569,261,l),
(557,164,o),
(485,111,o),
(395,111,cs),
(276,111,o),
(205,203,o),
(205,353,cs),
(205,500,o),
(273,589,o),
(399,589,cs),
(483,589,o),
(533,550,o),
(559,485,c),
(725,485,l),
(682,623,o),
(568,720,o),
(399,720,cs),
(186,720,o),
(38,565,o),
(38,357,cs)
);
}
);
width = 773;
}
);
leftKerningGroup = C1;
rightKerningGroup = C;
},
{
color = (153, 255, 154, 255);
glyphname = c.ss09;
layers = (
{
anchors = (
{
name = top;
position = "{316, 520}";
},
{
name = bottom;
position = "{336, -20}";
}
);
hints = (
{
place = (39,166);
type = Stem;
},
{
place = (205,203);
type = Stem;
},
{
horizontal = 1;
place = (-20,111);
type = Stem;
},
{
horizontal = 1;
place = (331,189);
type = Stem;
},
{
horizontal = 1;
place = (409,111);
type = Stem;
},
{
horizontal = 1;
place = (-20,187);
type = Stem;
}
);
layerId = "F681C90F-60C6-46B5-9262-264E5CA00432";
shapes = (
{
closed = 1;
nodes = (
(453,-20,o),
(560,51,o),
(570,167,c),
(408,167,l),
(404.985,132,o),
(373.832,100,o),
(319.566,100,cs),
(245.202,100,o),
(204,155.743,o),
(204,247.973,cs),
(204,338.176,o),
(245.2,400,o),
(318.556,400,cs),
(373.824,400,o),
(403.971,367.957,o),
(410,333,c),
(572,333,l),
(554,451.73,o),
(454,520,o),
(314,520,cs),
(142,520,o),
(39,401,o),
(39,255,cs),
(39,100,o),
(142,-20,o),
(313,-20,cs)
);
}
);
width = 611;
}
);
leftKerningGroup = a;
rightKerningGroup = b1;
},
{
color = (153, 255, 154, 255);
glyphname = C.ss10;
layers = (
{
anchors = (
{
name = bottom;
position = "{407, -19}";
},
{
name = top;
position = "{387, 719}";
}
);
hints = (
{
place = (38,166);
type = Stem;
},
{
horizontal = 1;
place = (-20,121);
type = Stem;
},
{
horizontal = 1;
place = (599,121);
type = Stem;
}
);
layerId = "F681C90F-60C6-46B5-9262-264E5CA00432";
shapes = (
{
closed = 1;
nodes = (
(280.4,111,o),
(204,209,o),
(204,356,cs),
(204,495.8,o),
(277.2,589,o),
(402,589,cs),
(492,589,o),
(568,544,o),
(643,424,c),
(688,583,l),
(624,666,o),
(522,720,o),
(395,720,cs),
(180.8,720,o),
(38,574.8,o),
(38,357,cs),
(38,130.8,o),
(184.4,-20,o),
(404,-20,cs),
(529,-20,o),
(633,34,o),
(697,117,c),
(652,276,l),
(577,156,o),
(499,111,o),
(410,111,cs)
);
}
);
width = 735;
}
);
leftKerningGroup = C1;
rightKerningGroup = C;
},
{
color = (153, 255, 154, 255);
glyphname = c.ss10;
layers = (
{
anchors = (
{
name = top;
position = "{316, 520}";
},
{
name = bottom;
position = "{316, -20}";
}
);
hints = (
{
place = (39,166);
type = Stem;
},
{
horizontal = 1;
place = (-20,110);
type = Stem;
},
{
horizontal = 1;
place = (410,110);
type = Stem;
}
);
layerId = "F681C90F-60C6-46B5-9262-264E5CA00432";
shapes = (
{
closed = 1;
nodes = (
(413,-20,o),
(503,17,o),
(546,73,c),
(507,203,l),
(463,136,o),
(404,104,o),
(326,104,cs),
(246,104,o),
(205,170,o),
(205,256,cs),
(205,341,o),
(246,396,o),
(326,396,cs),
(401,396,o),
(456,366,o),
(507,297,c),
(546,426,l),
(503,483,o),
(414,520,o),
(319,520,cs),
(145,520,o),
(39,414,o),
(39,255,cs),
(39,85,o),
(146,-20,o),
(319,-20,cs)
);
}
);
width = 585;
}
);
leftKerningGroup = a;
rightKerningGroup = b1;
},
{
color = (153, 255, 154, 255);
glyphname = S.ss09;
layers = (
{
anchors = (
{
name = top;
position = "{280, 719}";
},
{
name = bottom;
position = "{295, -20}";
}
);
hints = (
{
place = (30,164);
type = Stem;
},
{
place = (402,160);
type = Stem;
},
{
horizontal = 1;
place = (-20,120);
type = Stem;
},
{
horizontal = 1;
place = (502,218);
type = Stem;
},
{
horizontal = 1;
place = (599,121);
type = Stem;
},
{
horizontal = 1;
place = (-20,218);
type = Stem;
}
);
layerId = "F681C90F-60C6-46B5-9262-264E5CA00432";
shapes = (
{
closed = 1;
nodes = (
(30,198,l),
(56.05,55,o),
(145.221,-20,o),
(295.51,-20,cs),
(456.819,-20,o),
(551,66,o),
(551,194,cs),
(551,339.004,o),
(439.992,372.679,o),
(343.731,401.88,cs),
(270.047,424.232,o),
(204,443.963,o),
(204,509,cs),
(204,556,o),
(230,589,o),
(285,589,cs),
(331,589,o),
(360,565,o),
(373,502,c),
(539,502,l),
(514,639,o),
(430,720,o),
(283,720,cs),
(131,720,o),
(39,634,o),
(39,506,cs),
(39,361.412,o),
(149.371,327.835,o),
(245.439,298.608,cs),
(319.464,276.088,o),
(386,256.151,o),
(386,190,cs),
(386,144,o),
(358.857,111,o),
(296.529,111,cs),
(244.254,111,o),
(210.074,135,o),
(196,198,c)
);
}
);
width = 590;
}
);
leftKerningGroup = S1;
rightKerningGroup = S;
},
{
color = (153, 255, 154, 255);
glyphname = s.ss09;
layers = (
{
anchors = (
{
name = bottom;
position = "{265, -20}";
},
{
name = top;
position = "{245, 520}";
}
);
hints = (
{
place = (18,166);
type = Stem;
},
{
place = (326,166);
type = Stem;
},
{
horizontal = 1;
place = (-20,111);
type = Stem;
},
{
horizontal = 1;
place = (351,169);
type = Stem;
},
{
horizontal = 1;
place = (409,111);
type = Stem;
},
{
horizontal = 1;
place = (-20,177);
type = Stem;
}
);
layerId = "F681C90F-60C6-46B5-9262-264E5CA00432";
shapes = (
{
closed = 1;
nodes = (
(232,181,o),
(309,174.926,o),
(309,133.42,cs),
(309,112.16,o),
(290,99,o),
(258,99,cs),
(223,99,o),
(192,115.312,o),
(190,149,c),
(28,149,l),
(41,39.355,o),
(134,-21,o),
(260,-21,cs),
(392,-21,o),
(472,45,o),
(472,154,cs),
(472,245,o),
(417,303,o),
(302,315,cs),
(276,318,o),
(194,324.074,o),
(194,366.593,cs),
(194,385.827,o),
(212,400,o),
(244,400,cs),
(280,400,o),
(302,381.633,o),
(310,350,c),
(472,350,l),
(459,459.645,o),
(376,520,o),
(250,520,cs),
(116,520,o),
(28,453,o),
(28,347,cs),
(28,257,o),
(91,196,o),
(208,184,cs)
);
}
);
width = 510;
}
);
leftKerningGroup = s1;
rightKerningGroup = s;
},
{
color = (153, 255, 154, 255);
glyphname = s.ss10;
layers = (
{
anchors = (
{
name = top;
position = "{250, 520}";
},
{
name = bottom;
position = "{265, -20}";
}
);
hints = (
{
place = (36,166);
type = Stem;
},
{
place = (321,166);
type = Stem;
},
{
horizontal = 1;
place = (-20,110);
type = Stem;
},
{
horizontal = 1;
place = (410,110);
type = Stem;
}
);
layerId = "F681C90F-60C6-46B5-9262-264E5CA00432";
shapes = (
{
closed = 1;
nodes = (
(318,113,o),
(294,100,o),
(249,100,cs),
(175,100,o),
(120,136,o),
(69,213,c),
(28,87,l),
(70,26,o),
(142,-20,o),
(261,-20,cs),
(400,-20,o),
(484,43,o),
(484,146,cs),
(484,259.779,o),
(380.71,284.553,o),
(299.154,304.114,cs),
(245.953,316.874,o),
(202,327.417,o),
(202,359,cs),
(202,385,o),
(231,400,o),
(277,400,cs),
(341,400,o),
(386,370,o),
(435,301,c),
(472,430,l),
(447,470,o),
(370,520,o),
(255,520,cs),
(120,520,o),
(36,452,o),
(36,352,cs),
(36,243.626,o),
(135.99,217.868,o),
(216.89,197.028,cs),
(271.851,182.869,o),
(318,170.981,o),
(318,137,cs)
);
}
);
width = 522;
}
);
leftKerningGroup = s1;
rightKerningGroup = s;
},
{
color = (153, 255, 154, 255);
glyphname = S.ss10;
layers = (
{
anchors = (
{
name = top;
position = "{275, 719}";
},
{
name = bottom;
position = "{290, -20}";
}
);
hints = (
{
place = (22,166);
type = Stem;
},
{
place = (389,166);
type = Stem;
},
{
horizontal = 1;
place = (-20,121);
type = Stem;
},
{
horizontal = 1;
place = (599,121);
type = Stem;
}
);
layerId = "F681C90F-60C6-46B5-9262-264E5CA00432";
shapes = (
{
closed = 1;
nodes = (
(30,116,l),
(90,35,o),
(180,-21,o),
(296,-21,cs),
(442,-21,o),
(541,57,o),
(541,197,cs),
(541,335.096,o),
(431.587,372.896,o),
(337.632,405.356,cs),
(266.941,429.779,o),
(205,451.178,o),
(205,510,cs),
(205,558,o),
(241,589,o),
(298,589,cs),
(372,589,o),
(419,541,o),
(486,424,c),
(531,583,l),
(476,664,o),
(386,720,o),
(271,720,cs),
(125,720,o),
(40,631,o),
(40,497,cs),
(40,357.078,o),
(151.479,316.796,o),
(246.581,282.432,cs),
(317.321,256.871,o),
(379,234.584,o),
(379,177,cs),
(379,135,o),
(344,110,o),
(285,110,cs),
(204,110,o),
(146,158,o),
(75,275,c)
);
}
);
width = 580;
}
);
leftKerningGroup = S1;
rightKerningGroup = S;
},
{
color = (153, 255, 154, 255);
glyphname = G.ss10;
layers = (
{
anchors = (
{
name = bottom;
position = "{394, -19}";
},
{
name = top;
position = "{394, 719}";
}
);
hints = (
{
place = (38,167);
type = Stem;
},
{
horizontal = 1;
place = (-20,121);
type = Stem;
},
{
horizontal = 1;
place = (251,111);
type = Stem;
},
{
horizontal = 1;
place = (599,121);
type = Stem;
},
{
horizontal = 1;
place = (0,21);
target = up;
type = BottomGhost;
}
);
layerId = "F681C90F-60C6-46B5-9262-264E5CA00432";
shapes = (
{
closed = 1;
nodes = (
(620,248,l),
(682,0,l),
(732,0,l),
(732,368,l),
(358,368,l),
(358,248,l),
(575,248,l)
);
},
{
closed = 1;
nodes = (
(170,720,o),
(38,562,o),
(38,356,cs),
(38,130.4,o),
(171.6,-20,o),
(372,-20,cs),
(528,-20,o),
(628,85,o),
(651,229,c),
(647,315,l),
(574,344,l),
(574,340,o),
(575,329,o),
(575,313,cs),
(575,186,o),
(501,111,o),
(396,111,cs),
(275.429,111,o),
(205,199.866,o),
(205,352,cs),
(205,501.795,o),
(277.854,589,o),
(403,589,cs),
(494,589,o),
(564,544,o),
(643,424,c),
(688,583,l),
(620,666,o),
(512,720,o),
(386,720,cs)
);
}
);
width = 770;
}
);
leftKerningGroup = C1;
rightKerningGroup = G;
},
{
color = (153, 255, 154, 255);
glyphname = G.ss09;
layers = (
{
anchors = (
{
name = bottom;
position = "{390, -19}";
},
{
name = top;
position = "{390, 719}";
}
);
hints = (
{
place = (38,167);
type = Stem;
},
{
horizontal = 1;
place = (-20,121);
type = Stem;
},
{
horizontal = 1;
place = (251,111);
type = Stem;
},
{
horizontal = 1;
place = (485,235);
type = Stem;
},
{
horizontal = 1;
place = (599,121);
type = Stem;
},
{
horizontal = 1;
place = (0,21);
target = up;
type = BottomGhost;
}
);
layerId = "F681C90F-60C6-46B5-9262-264E5CA00432";
shapes = (
{
closed = 1;
nodes = (
(182,720,o),
(38,563,o),
(38,352,cs),
(38,128.8,o),
(174.8,-20,o),
(380,-20,cs),
(512,-20,o),
(600,57,o),
(646,226,c),
(577,343,l),
(577,339,o),
(577,329,o),
(575,310,cs),
(561,192,o),
(505,111,o),
(393,111,cs),
(279,111,o),
(205,195,o),
(205,347,cs),
(205,494,o),
(274,589,o),
(394,589,cs),
(479,589,o),
(536,542,o),
(556,485,c),
(723,485,l),
(692,623,o),
(567,720,o),
(398,720,cs)
);
},
{
closed = 1;
nodes = (
(629,248,l),
(691,0,l),
(742,0,l),
(742,366,l),
(330,366,l),
(330,246,l),
(580,246,l)
);
}
);
width = 780;
}
);
leftKerningGroup = C1;
rightKerningGroup = G;
},
{
color = (153, 255, 154, 255);
glyphname = G.ss13;
layers = (
{
anchors = (
{
name = bottom;
position = "{392, -19}";
},
{
name = top;
position = "{392, 719}";
}
);
hints = (
{
place = (38,167);
type = Stem;
},
{
place = (591,174);
type = Stem;
},
{
horizontal = 1;
place = (-20,121);
type = Stem;
},
{
horizontal = 1;
place = (250,121);
type = Stem;
},
{
horizontal = 1;
place = (485,235);
type = Stem;
},
{
horizontal = 1;
place = (599,121);
type = Stem;
}
);
layerId = "F681C90F-60C6-46B5-9262-264E5CA00432";
shapes = (
{
closed = 1;
nodes = (
(192,720,o),
(38,574,o),
(38,355,cs),
(38,150,o),
(174,-20,o),
(398,-20,cs),
(614,-20,o),
(745,138.603,o),
(745,329.127,cs),
(745,380,l),
(391,380,l),
(391,260,l),
(574,260,l),
(562,170,o),
(509,111,o),
(406,111,cs),
(280,111,o),
(205,199,o),
(205,354,cs),
(205,504,o),
(270,589,o),
(399,589,cs),
(487,589,o),
(536,550,o),
(559,485,c),
(725,485,l),
(683,620,o),
(572,720,o),
(400,720,cs)
);
}
);
width = 783;
}
);
leftKerningGroup = C1;
rightKerningGroup = C;
},
{
color = (153, 255, 154, 255);
glyphname = G.ss14;
layers = (
{
anchors = (
{
name = bottom;
position = "{388, -19}";
},
{
name = top;
position = "{388, 719}";
}
);
hints = (
{
place = (38,167);
type = Stem;
},
{
horizontal = 1;
place = (-20,121);
type = Stem;
},
{
horizontal = 1;
place = (251,121);
type = Stem;
},
{
horizontal = 1;
place = (599,121);
type = Stem;
}
);
layerId = "F681C90F-60C6-46B5-9262-264E5CA00432";
shapes = (
{
closed = 1;
nodes = (
(636,376,l),
(365,376,l),
(365,246,l),
(591,246,l),
(574,153,o),
(499,111,o),
(401,111,cs),
(290,111,o),
(205,215,o),
(205,351,cs),
(205,497,o),
(285,589,o),
(412,589,cs),
(512,589,o),
(575,544,o),
(643,424,c),
(688,583,l),
(625,665,o),
(526,720,o),
(398,720,cs),
(178,720,o),
(38,570,o),
(38,358,cs),
(38,155,o),
(168,-20,o),
(383,-20,cs),
(543,-20,o),
(636,120,o),
(636,324,cs)
);
},
{
closed = 1;
nodes = (
(592,0,l),
(722,0,l),
(722,376,l),
(592,376,l)
);
}
);
width = 775;
}
);
leftKerningGroup = C1;
rightKerningGroup = G;
},
{
color = (153, 255, 154, 255);
glyphname = J.ss09;
layers = (
{
anchors = (
{
name = bottom;
position = "{275, -20}";
},
{
name = top;
position = "{444, 719}";
}
);
hints = (
{
place = (355,166);
type = Stem;
},
{
horizontal = 1;
place = (-20,121);
type = Stem;
},
{
horizontal = 1;
place = (68,215);
type = Stem;
},
{
horizontal = 1;
place = (700,-20);
target = down;
type = TopGhost;
}
);
layerId = "F681C90F-60C6-46B5-9262-264E5CA00432";
shapes = (
{
closed = 1;
nodes = (
(31,195,l),
(55.974,55,o),
(127.901,-20,o),
(270.755,-20,cs),
(443.579,-20,o),
(520.5,75,o),
(520.5,252,cs),
(520.5,700,l),
(355.5,700,l),
(355.5,249,ls),
(355.5,147,o),
(333.433,111,o),
(274.252,111,cs),
(224.098,111,o),
(200.025,136,o),
(192,195,c)
);
}
);
width = 584;
}
);
leftKerningGroup = J;
rightKerningGroup = J1;
},
{
color = (153, 255, 154, 255);
glyphname = J.ss10;
layers = (
{
anchors = (
{
name = top;
position = "{437, 719}";
},
{
name = bottom;
position = "{258, -20}";
}
);
hints = (
{
place = (349,166);
type = Stem;
},
{
horizontal = 1;
place = (-20,121);
type = Stem;
},
{
horizontal = 1;
place = (700,-20);
target = down;
type = TopGhost;
}
);
layerId = "F681C90F-60C6-46B5-9262-264E5CA00432";
shapes = (
{
closed = 1;
nodes = (
(514.5,700,l),
(349.5,700,l),
(349.5,239,ls),
(349.5,144,o),
(326.46,111,o),
(258.34,111,cs),
(180.204,111,o),
(131.118,168,o),
(64,275,c),
(19,117,l),
(73.945,38,o),
(159.858,-20,o),
(272.744,-20,cs),
(423.592,-20,o),
(514.5,57,o),
(514.5,225,cs)
);
}
);
width = 578;
}
);
leftKerningGroup = J;
rightKerningGroup = J1;
},
{
color = (153, 255, 154, 255);
glyphname = a.ss10;
layers = (
{
anchors = (
{
name = top;
position = "{284, 520}";
},
{
name = bottom;
position = "{284, -20}";
},
{
name = ogonek;
position = "{496, -3}";
}
);
hints = (
{
place = (35,165);
type = Stem;
},
{
place = (337,166);
type = Stem;
},
{
horizontal = 1;
place = (-20,107);
type = Stem;
},
{
horizontal = 1;
place = (192,93);
type = Stem;
},
{
horizontal = 1;
place = (410,110);
type = Stem;
},
{
horizontal = 1;
place = (0,21);
target = up;
type = BottomGhost;
}
);
layerId = "F681C90F-60C6-46B5-9262-264E5CA00432";
shapes = (
{
closed = 1;
nodes = (
(314.826,396,o),
(337,378.694,o),
(337,347.135,cs),
(337,307.432,o),
(304,283,o),
(226,283,cs),
(109,283,o),
(35,229.354,o),
(35,135.97,cs),
(35,43.58,o),
(108,-20,o),
(198,-20,cs),
(290,-20,o),
(340,47,o),
(356,127,c),
(338,208,l),
(338,159.094,o),
(298,100,o),
(244,100,cs),
(219,100,o),
(200,112.338,o),
(200,134.958,cs),
(200,157.577,o),
(219,173,o),
(254,173,cs),
(291,173,o),
(324,190,o),
(338,214,c),
(338,77,l),
(503,-10,l),
(503,352,ls),
(503,444,o),
(436.826,520,o),
(285.572,520,cs),
(180.534,520,o),
(86,483,o),
(43,426,c),
(82,297,l),
(133,366,o),
(193.978,396,o),
(262.717,396,cs)
);
}
);
width = 568;
}
);
leftKerningGroup = a.ss02;
rightKerningGroup = a.ss021;
},
{
color = (153, 255, 154, 255);
glyphname = a.ss09;
layers = (
{
anchors = (
{
name = top;
position = "{290, 520}";
},
{
name = ogonek;
position = "{504, -3}";
},
{
name = bottom;
position = "{285, -20}";
}
);
hints = (
{
place = (36,165);
type = Stem;
},
{
place = (349,166);
type = Stem;
},
{
horizontal = 1;
place = (-20,101);
type = Stem;
},
{
horizontal = 1;
place = (186,100);
type = Stem;
},
{
horizontal = 1;
place = (331,189);
type = Stem;
},
{
horizontal = 1;
place = (409,111);
type = Stem;
},
{
horizontal = 1;
place = (0,21);
target = up;
type = BottomGhost;
}
);
layerId = "F681C90F-60C6-46B5-9262-264E5CA00432";
shapes = (
{
closed = 1;
nodes = (
(205,120,o),
(226,104,o),
(266,104,cs),
(312,104,o),
(355,125,o),
(346,187,c),
(361,110,l),
(344,28,o),
(288,-20,o),
(207,-20,cs),
(110,-20,o),
(39,49,o),
(39,146,cs),
(39,243,o),
(110,312,o),
(210,312,cs),
(289,312,o),
(345,268,o),
(362,193,c),
(357,124,l),
(357,164,o),
(317,192,o),
(266,192,cs),
(228,192,o),
(205,177,o),
(205,148,cs)
);
},
{
closed = 1;
nodes = (
(437,520,o),
(511,444,o),
(511,352,cs),
(511,0,l),
(346,0,l),
(346,333.668,ls),
(346,382.915,o),
(324,400,o),
(288,400,cs),
(248,400,o),
(219,377,o),
(215,341,c),
(53,341,l),
(67,460,o),
(164,520,o),
(292,520,cs)
);
}
);
width = 570;
}
);
leftKerningGroup = a.ss02;
rightKerningGroup = a.ss021;
},
{
glyphname = Schwa.ss09;
layers = (
{
anchors = (
{
name = top;
position = "{390, 719}";
},
{
name = bottom;
position = "{390, -20}";
}
);
hints = (
{
horizontal = 1;
place = (-20,121);
type = Stem;
},
{
horizontal = 1;
place = (290,110);
type = Stem;
},
{
horizontal = 1;
place = (485,235);
type = Stem;
},
{
horizontal = 1;
place = (599,121);
type = Stem;
}
);
layerId = "F681C90F-60C6-46B5-9262-264E5CA00432";
shapes = (
{
closed = 1;
nodes = (
(219,720,o),
(88,623,o),
(55,485,c),
(223,485,l),
(245,542,o),
(306,589,o),
(392,589,cs),
(509,589,o),
(574,505,o),
(574,350,cs),
(574,194,o),
(509,111,o),
(392,111,cs),
(294,111,o),
(221,168,o),
(210,288,c),
(594,288,l),
(595,412,l),
(42,412,l),
(40,397,o),
(38,374,o),
(38,360,cs),
(38,131,o),
(178,-20,o),
(390,-20,cs),
(593,-20,o),
(741,111,o),
(741,350,cs),
(741,573,o),
(608,720,o),
(393,720,cs)
);
}
);
width = 779;
}
);
leftKerningGroup = C1;
rightKerningGroup = C;
},
{
glyphname = schwa.ss09;
layers = (
{
anchors = (
{
name = bottom;
position = "{302, -20}";
},
{
name = top;
position = "{302, 520}";
}
);
hints = (
{
horizontal = 1;
place = (-20,110);
type = Stem;
},
{
horizontal = 1;
place = (189,100);
type = Stem;
},
{
horizontal = 1;
place = (331,189);
type = Stem;
},
{
horizontal = 1;
place = (409,111);
type = Stem;
}
);
layerId = "F681C90F-60C6-46B5-9262-264E5CA00432";
shapes = (
{
closed = 1;
nodes = (
(42,295,l),
(40,281,o),
(39,267,o),
(39,250,cs),
(39,82,o),
(146,-20,o),
(304,-20,cs),
(469,-20,o),
(565,92,o),
(565,249,cs),
(565,398,o),
(480,520,o),
(303,520,cs),
(168,520,o),
(70,449,o),
(43,339,c),
(208,339,l),
(219,364,o),
(250,400,o),
(303,400,cs),
(351,400,o),
(393,367.692,o),
(400,295,c)
);
},
{
closed = 1;
nodes = (
(398,188,l),
(394,142,o),
(353,100,o),
(300,100,cs),
(245,100,o),
(205,142,o),
(203,188,c)
);
}
);
width = 604;
}
);
leftKerningGroup = a;
rightKerningGroup = b1;
},
{
glyphname = Schwa.ss10;
layers = (
{
anchors = (
{
name = top;
position = "{390, 719}";
},
{
name = bottom;
position = "{390, -20}";
}
);
hints = (
{
horizontal = 1;
place = (-20,120);
type = Stem;
},
{
horizontal = 1;
place = (285,115);
type = Stem;
},
{
horizontal = 1;
place = (599,121);
type = Stem;
}
);
layerId = "F681C90F-60C6-46B5-9262-264E5CA00432";
shapes = (
{
closed = 1;
nodes = (
(267,589,o),
(201.205,553.876,o),
(129.205,433.876,c),
(87,583,l),
(152,666,o),
(255,720,o),
(386,720,cs),
(601,720,o),
(741,581,o),
(741,358,cs),
(741,119,o),
(593,-20,o),
(390,-20,cs),
(178,-20,o),
(38,131,o),
(38,360,cs),
(38,374,o),
(40,397,o),
(42,412,c),
(595,412,l),
(594,288,l),
(210,288,l),
(221,168,o),
(294,111,o),
(392,111,cs),
(509,111,o),
(574,198,o),
(574,354,cs),
(574,509,o),
(489,589,o),
(370,589,cs)
);
}
);
width = 779;
}
);
leftKerningGroup = C1;
rightKerningGroup = C;
},
{
glyphname = schwa.ss10;
layers = (
{
anchors = (
{
name = bottom;
position = "{300, -20}";
},
{
name = top;
position = "{300, 520}";
}
);
hints = (
{
place = (49,165);
type = Stem;
},
{
place = (405,165);
type = Stem;
},
{
horizontal = 1;
place = (-20,110);
type = Stem;
},
{
horizontal = 1;
place = (189,100);
type = Stem;
},
{
horizontal = 1;
place = (410,110);
type = Stem;
}
);
layerId = "F681C90F-60C6-46B5-9262-264E5CA00432";
shapes = (
{
closed = 1;
nodes = (
(396,189,l),
(389,135,o),
(356,104,o),
(307,104,cs),
(257,104,o),
(221,135,o),
(214,189,c)
);
},
{
closed = 1;
nodes = (
(356,396,o),
(391,351,o),
(396,289,c),
(52,289,l),
(50,277,o),
(49,267,o),
(49,251,cs),
(49,89,o),
(150,-20,o),
(300,-20,cs),
(455,-20,o),
(561,95,o),
(561,253,cs),
(561,410,o),
(457,520,o),
(293,520,cs),
(199,520,o),
(107,484,o),
(64,427,c),
(103,298,l),
(154,367,o),
(212,396,o),
(276,396,cs)
);
}
);
width = 600;
}
);
leftKerningGroup = a;
rightKerningGroup = b1;
},
{
color = (153, 255, 154, 255);
glyphname = e.ss10;
layers = (
{
anchors = (
{
name = top;
position = "{298, 520}";
},
{
name = bottom;
position = "{298, -20}";
},
{
name = ogonek;
position = "{427, -3}";
}
);
hints = (
{
place = (28,166);
type = Stem;
},
{
place = (391,168);
type = Stem;
},
{
horizontal = 1;
place = (-20,110);
type = Stem;
},
{
horizontal = 1;
place = (238,90);
type = Stem;
},
{
horizontal = 1;
place = (410,110);
type = Stem;
}
);
layerId = "F681C90F-60C6-46B5-9262-264E5CA00432";
shapes = (
{
closed = 1;
nodes = (
(391,324,l),
(391,362,o),
(353,400,o),
(296,400,cs),
(236,400,o),
(195,363.027,o),
(195,324,c)
);
},
{
closed = 1;
nodes = (
(403,104,o),
(462,136,o),
(506,203,c),
(545,73,l),
(502,17,o),
(412,-20,o),
(310.331,-20,cs),
(128,-20,o),
(28,99,o),
(28,255,cs),
(28,401,o),
(128,520,o),
(297,520,cs),
(468,520,o),
(559,387,o),
(559,228,c),
(194,228,l),
(194,157,o),
(250,104,o),
(325,104,cs)
);
}
);
width = 585;
}
);
leftKerningGroup = a;
rightKerningGroup = b1;
},
{
color = (153, 255, 154, 255);
glyphname = e.ss09;
layers = (
{
anchors = (
{
name = top;
position = "{298, 520}";
},
{
name = bottom;
position = "{298, -20}";
},
{
name = ogonek;
position = "{415, -3}";
}
);
hints = (
{
place = (28,167);
type = Stem;
},
{
place = (411,157);
type = Stem;
},
{
horizontal = 1;
place = (-20,111);
type = Stem;
},
{
horizontal = 1;
place = (238,90);
type = Stem;
},
{
horizontal = 1;
place = (410,110);
type = Stem;
},
{
horizontal = 1;
place = (-20,187);
type = Stem;
}
);
layerId = "F681C90F-60C6-46B5-9262-264E5CA00432";
shapes = (
{
closed = 1;
nodes = (
(411,322,l),
(411,371,o),
(366,400,o),
(306,400,cs),
(246,400,o),
(195,371,o),
(195,322,c)
);
},
{
closed = 1;
nodes = (
(360,100,o),
(394,124,o),
(399,167,c),
(561,167,l),
(541,51,o),
(445,-20,o),
(305,-20,cs),
(137,-20,o),
(28,99,o),
(28,255,cs),
(28,401,o),
(135,520,o),
(306,520,cs),
(477,520,o),
(570,406,o),
(568,228,c),
(195,228,l),
(195,137.291,o),
(232,100,o),
(304,100,cs)
);
}
);
width = 595;
}
);
leftKerningGroup = a;
rightKerningGroup = b1;
},
{
color = (153, 255, 154, 255);
glyphname = b.ss11;
layers = (
{
anchors = (
{
name = bottom;
position = "{345, -20}";
},
{
name = top;
position = "{330, 750}";
}
);
hints = (
{
place = (64,164);
type = Stem;
},
{
place = (439,166);
type = Stem;
},
{
horizontal = 1;
place = (-20,110);
type = Stem;
},
{
horizontal = 1;
place = (409,111);
type = Stem;
},
{
horizontal = 1;
place = (700,-20);
target = down;
type = TopGhost;
}
);
layerId = "F681C90F-60C6-46B5-9262-264E5CA00432";
shapes = (
{
closed = 1;
nodes = (
(228.5,85,l),
(228.5,700,l),
(63.5,700,l),
(63.5,-10,l)
);
},
{
closed = 1;
nodes = (
(196,93,o),
(257.921,-20,o),
(383.612,-20,cs),
(512.597,-20,o),
(588.5,99,o),
(588.5,255,cs),
(588.5,411,o),
(513.595,520,o),
(384.665,520,cs),
(256.922,520,o),
(196,413,o),
(196,255,cs)
);
},
{
closed = 1;
nodes = (
(423.5,158.194,o),
(389.5,100,o),
(334.5,100,cs),
(264.5,100,o),
(228.5,167.224,o),
(228.5,256.522,cs),
(228.5,343.813,o),
(274.5,400,o),
(326.5,400,cs),
(388.5,400,o),
(423.5,347.826,o),
(423.5,255.518,cs)
);
}
);
width = 629;
}
);
leftKerningGroup = b;
rightKerningGroup = b1;
},
{
color = (153, 255, 154, 255);
glyphname = d.ss11;
layers = (
{
anchors = (
{
name = bottom;
position = "{305, -20}";
},
{
name = top;
position = "{318, 750}";
},
{
name = topright;
position = "{613, 700}";
}
);
hints = (
{
place = (39,166);
type = Stem;
},
{
place = (427,164);
type = Stem;
},
{
horizontal = 1;
place = (-20,110);
type = Stem;
},
{
horizontal = 1;
place = (409,111);
type = Stem;
},
{
horizontal = 1;
place = (700,-20);
target = down;
type = TopGhost;
}
);
layerId = "F681C90F-60C6-46B5-9262-264E5CA00432";
shapes = (
{
closed = 1;
nodes = (
(417,89,l),
(581,-10,l),
(581,700,l),
(417,700,l)
);
},
{
closed = 1;
nodes = (
(449,416,o),
(383,520,o),
(255.574,520,cs),
(130,520,o),
(49,419,o),
(49,255,cs),
(49,88,o),
(133,-20,o),
(256.804,-20,cs),
(384,-20,o),
(449,94,o),
(449,255,cs)
);
},
{
closed = 1;
nodes = (
(215,345,o),
(246,395,o),
(306,395,cs),
(370,395,o),
(417,339,o),
(417,254,cs),
(417,169,o),
(367,103,o),
(305,103,cs),
(247,103,o),
(215,158,o),
(215,253,cs)
);
}
);
width = 635;
}
);
leftKerningGroup = a;
},
{
color = (153, 255, 154, 255);
glyphname = f.ss11;
layers = (
{
anchors = (
{
name = top;
position = "{250, 750}";
},
{
name = bottom;
position = "{183, -20}";
}
);
hints = (
{
place = (99,165);
type = Stem;
},
{
horizontal = 1;
place = (390,110);
type = Stem;
},
{
horizontal = 1;
place = (608,112);
type = Stem;
},
{
horizontal = 1;
place = (0,21);
target = up;
type = BottomGhost;
}
);
layerId = "F681C90F-60C6-46B5-9262-264E5CA00432";
shapes = (
{
closed = 1;
nodes = (
(99,380,l),
(99,0,l),
(264,0,l),
(264,380,l),
(390,380,l),
(390,500,l),
(264,500,l),
(264,517,ls),
(264,558,o),
(270,596,o),
(319,596,cs),
(334,596,o),
(365,592,o),
(406,585,c),
(406,707,l),
(359,716,o),
(325,720,o),
(277,720,cs),
(174,720,o),
(99,673,o),
(99,577,cs),
(99,500,l),
(22,500,l),
(22,380,l)
);
}
);
width = 423;
}
);
leftKerningGroup = f;
rightKerningGroup = f1;
},
{
color = (153, 255, 154, 255);
glyphname = h.ss11;
layers = (
{
anchors = (
{
name = top;
position = "{144, 750}";
},
{
name = bottom;
position = "{318, -20}";
}
);
hints = (
{
place = (59,165);
type = Stem;
},
{
place = (413,165);
type = Stem;
},
{
horizontal = 1;
place = (409,111);
type = Stem;
},
{
horizontal = 1;
place = (0,21);
target = up;
type = BottomGhost;
},
{
horizontal = 1;
place = (700,-20);
target = down;
type = TopGhost;
}
);
layerId = "F681C90F-60C6-46B5-9262-264E5CA00432";
shapes = (
{
closed = 1;
nodes = (
(59,0,l),
(224,0,l),
(224,700,l),
(59,700,l)
);
},
{
closed = 1;
nodes = (
(212,278,l),
(224,217,l),
(224,312,o),
(260,396,o),
(337,396,cs),
(383,396,o),
(411,367,o),
(411,272,cs),
(411,0,l),
(576,0,l),
(576,304,ls),
(576,448,o),
(515,520,o),
(400,520,cs),
(291,520,o),
(227,428,o),
(210,350,c)
);
}
);
width = 635;
}
);
leftKerningGroup = b;
rightKerningGroup = h;
},
{
color = (153, 255, 154, 255);
glyphname = l.ss11;
layers = (
{
anchors = (
{
name = bottom;
position = "{136, -20}";
},
{
name = top;
position = "{136, 750}";
},
{
name = topright;
position = "{262, 700}";
}
);
hints = (
{
place = (54,165);
type = Stem;
},
{
horizontal = 1;
place = (700,-20);
target = down;
type = TopGhost;
},
{
horizontal = 1;
place = (0,21);
target = up;
type = BottomGhost;
}
);
layerId = "F681C90F-60C6-46B5-9262-264E5CA00432";
shapes = (
{
closed = 1;
nodes = (
(219,700,l),
(54,700,l),
(54,0,l),
(219,0,l)
);
}
);
width = 272;
}
);
leftKerningGroup = b;
},
{
color = (153, 255, 154, 255);
glyphname = t.ss11;
layers = (
{
anchors = (
{
name = top;
position = "{158, 630}";
},
{
name = bottom;
position = "{161, -20}";
},
{
name = topright;
position = "{267, 700}";
}
);
hints = (
{
place = (74,165);
type = Stem;
},
{
horizontal = 1;
place = (390,110);
type = Stem;
},
{
horizontal = 1;
place = (620,-20);
target = down;
type = TopGhost;
},
{
horizontal = 1;
place = (0,21);
target = up;
type = BottomGhost;
}
);
layerId = "F681C90F-60C6-46B5-9262-264E5CA00432";
shapes = (
{
closed = 1;
nodes = (
(239,0,l),
(239,380,l),
(339,380,l),
(339,500,l),
(239,500,l),
(239,620,l),
(74,620,l),
(74,500,l),
(14,500,l),
(14,380,l),
(74,380,l),
(74,0,l)
);
}
);
width = 353;
}
);
leftKerningGroup = f;
},
{
color = (153, 255, 154, 255);
glyphname = k.ss11;
layers = (
{
anchors = (
{
name = top;
position = "{149, 750}";
},
{
name = bottom;
position = "{296, -20}";
}
);
hints = (
{
place = (64,165);
type = Stem;
},
{
horizontal = 1;
place = (500,-20);
target = down;
type = TopGhost;
},
{
horizontal = 1;
place = (0,21);
target = up;
type = BottomGhost;
},
{
horizontal = 1;
place = (700,-20);
target = down;
type = TopGhost;
}
);
layerId = "F681C90F-60C6-46B5-9262-264E5CA00432";
shapes = (
{
closed = 1;
nodes = (
(229,0,l),
(229,700,l),
(64,700,l),
(64,0,l)
);
},
{
closed = 1;
nodes = (
(327,360,l,{name = iv02;}),
(120,360,l),
(121,240,l),
(308,240,l,{name = iv01;}),
(400,0,l,{name = ab02;}),
(585,0,l),
(447,283,l),
(572,500,l,{name = av02;}),
(409,500,l)
);
}
);
width = 592;
}
);
leftKerningGroup = b;
rightKerningGroup = k;
},
{
glyphname = AE;
layers = (
{
anchors = (
{
name = top;
position = "{480, 719}";
},
{
name = bottom;
position = "{480, -20}";
}
);
hints = (
{
place = (464,166);
type = Stem;
},
{
horizontal = 1;
place = (0,120);
type = Stem;
},
{
horizontal = 1;
place = (307,120);
type = Stem;
},
{
horizontal = 1;
place = (580,120);
type = Stem;
}
);
layerId = "F681C90F-60C6-46B5-9262-264E5CA00432";
shapes = (
{
closed = 1;
nodes = (
(835,0,l),
(835,130,l),
(564,130,l),
(564,300,l),
(795,300,l),
(795,430,l),
(564,430,l),
(564,570,l),
(820,570,l),
(820,700,l),
(398,700,l),
(398,0,l)
);
},
{
closed = 1;
nodes = (
(213,570,l),
(499,570,l),
(500,700,l),
(257,700,l)
);
},
{
closed = 1;
nodes = (
(193,111,l),
(527,111,l),
(483,241,l),
(237,241,l)
);
},
{
closed = 1;
nodes = (
(234,700,l),
(7,0,l),
(181,0,l),
(382,700,l)
);
}
);
width = 880;
}
);
leftKerningGroup = A1;
rightKerningGroup = E;
unicode = 198;
},
{
glyphname = ae;
layers = (
{
anchors = (
{
name = top;
position = "{516, 520}";
},
{
name = bottom;
position = "{508, -20}";
}
);
hints = (
{
place = (39,166);
type = Stem;
},
{
place = (426,165);
type = Stem;
},
{
place = (436,166);
type = Stem;
},
{
horizontal = 1;
place = (-20,110);
type = Stem;
},
{
horizontal = 1;
place = (409,111);
type = Stem;
},
{
horizontal = 1;
place = (0,21);
target = up;
type = BottomGhost;
},
{
horizontal = 1;
place = (500,-20);
target = down;
type = TopGhost;
},
{
horizontal = 1;
place = (-20,111);
type = Stem;
},
{
horizontal = 1;
place = (232,91);
type = Stem;
},
{
horizontal = 1;
place = (410,110);
type = Stem;
}
);
layerId = "F681C90F-60C6-46B5-9262-264E5CA00432";
shapes = (
{
closed = 1;
nodes = (
(426,0,l),
(591,0,l),
(591,500,l),
(426,500,l)
);
},
{
closed = 1;
nodes = (
(462,421,o),
(390,520,o),
(261,520,cs),
(126,520,o),
(49,411,o),
(49,259,cs),
(49,99,o),
(135,-20,o),
(264,-20,cs),
(388,-20,o),
(462,90,o),
(462,257,cs)
);
},
{
closed = 1;
nodes = (
(215,341,o),
(257,393,o),
(320,393,cs),
(385,393,o),
(426,337,o),
(426,251,cs),
(426,166,o),
(386,106,o),
(324,106,cs),
(261,106,o),
(215,168,o),
(215,256,cs)
);
},
{
closed = 1;
nodes = (
(591,330,l),
(599,367,o),
(630,397,o),
(696,397,cs),
(761,397,o),
(796,367,o),
(801,330,c)
);
},
{
closed = 1;
nodes = (
(638,103,o),
(595,138,o),
(591,212,c),
(969,212,l),
(972,417,o),
(869,520,o),
(718,520,cs),
(569,520,o),
(456,420,o),
(456,254,cs),
(456,85,o),
(568,-20,o),
(726,-20,cs),
(813,-20,o),
(888,12,o),
(935,73,c),
(850,158,l),
(823,123,o),
(776,103,o),
(716,103,cs)
);
}
);
width = 996;
}
);
leftKerningGroup = a;
rightKerningGroup = b1;
unicode = 230;
},
{
glyphname = hbar;
layers = (
{
layerId = "F681C90F-60C6-46B5-9262-264E5CA00432";
shapes = (
{
closed = 1;
nodes = (
(65,0,l),
(230,0,l),
(230,750,l),
(65,750,l)
);
},
{
closed = 1;
nodes = (
(218,258,l),
(230,197,l),
(230,292,o),
(266,376,o),
(343,376,cs),
(389,376,o),
(417,347,o),
(417,252,cs),
(417,0,l),
(582,0,l),
(582,284,ls),
(582,428,o),
(521,500,o),
(406,500,cs),
(297,500,o),
(233,408,o),
(216,330,c)
);
},
{
closed = 1;
nodes = (
(8.8,631,l),
(400.464,631,l),
(400.464,665,l),
(8.8,665,l)
);
}
);
width = 641;
}
);
leftKerningGroup = f;
rightKerningGroup = h;
unicode = 295;
},
{
glyphname = kgreenlandic;
layers = (
{
hints = (
{
place = (64,165);
type = Stem;
},
{
horizontal = 1;
place = (500,-20);
target = down;
type = TopGhost;
},
{
horizontal = 1;
place = (0,21);
target = up;
type = BottomGhost;
}
);
layerId = "F681C90F-60C6-46B5-9262-264E5CA00432";
shapes = (
{
closed = 1;
nodes = (
(64,0,l),
(64,500,l),
(229,500,l),
(229,0,l)
);
},
{
closed = 1;
nodes = (
(323,318,l,{name = iv02;}),
(408,500,l),
(571,500,l,{name = av02;}),
(446,265,l),
(587,0,l),
(399,0,l,{name = ab02;}),
(306,199,l,{name = iv01;}),
(120,199,l),
(119,318,l)
);
}
);
width = 594;
}
);
leftKerningGroup = i;
rightKerningGroup = k;
unicode = 312;
},
{
glyphname = Lslash;
layers = (
{
hints = (
{
place = (68,166);
type = Stem;
},
{
horizontal = 1;
place = (0,120);
type = Stem;
},
{
horizontal = 1;
place = (700,-20);
target = down;
type = TopGhost;
}
);
layerId = "F681C90F-60C6-46B5-9262-264E5CA00432";
shapes = (
{
closed = 1;
nodes = (
(0,280,l),
(0,231,l),
(399,500,l),
(399,549,l)
);
},
{
alignment = -1;
ref = L;
}
);
width = 554;
}
);
leftKerningGroup = Eth;
rightKerningGroup = L;
unicode = 321;
},
{
glyphname = lslash;
layers = (
{
hints = (
{
place = (64,165);
type = Stem;
},
{
horizontal = 1;
place = (-21,114);
type = Stem;
},
{
horizontal = 1;
place = (750,-20);
target = down;
type = TopGhost;
},
{
horizontal = 1;
place = (-20,114);
type = Stem;
}
);
layerId = "F681C90F-60C6-46B5-9262-264E5CA00432";
shapes = (
{
closed = 1;
nodes = (
(6,291,l),
(6,250,l),
(328,470,l),
(328,511,l)
);
},
{
alignment = -1;
ref = l;
}
);
width = 350;
}
);
leftKerningGroup = f;
rightKerningGroup = l;
unicode = 322;
},
{
glyphname = OE;
layers = (
{
anchors = (
{
name = top;
position = "{484, 719}";
},
{
name = bottom;
position = "{484, -20}";
}
);
layerId = "F681C90F-60C6-46B5-9262-264E5CA00432";
shapes = (
{
closed = 1;
nodes = (
(413,130,ls),
(291,130,o),
(206,218,o),
(206,352,cs),
(206,481,o),
(285,570,o),
(413,570,cs),
(485.17,570,l),
(485.17,130,l)
);
},
{
closed = 1;
nodes = (
(646.17,700,l),
(392,700,ls),
(182,700,o),
(38,558,o),
(38,350,cs),
(38,141,o),
(181,0,o),
(392,0,cs),
(646.17,0,l)
);
},
{
closed = 1;
nodes = (
(922.17,0,l),
(922.17,130,l),
(651.17,130,l),
(651.17,300,l),
(882.17,300,l),
(882.17,430,l),
(651.17,430,l),
(651.17,570,l),
(907.17,570,l),
(907.17,700,l),
(491.17,700,l),
(491.17,0,l)
);
}
);
width = 968;
}
);
leftKerningGroup = C1;
rightKerningGroup = E;
unicode = 338;
},
{
glyphname = oe;
layers = (
{
anchors = (
{
name = top;
position = "{479, 520}";
},
{
name = bottom;
position = "{479, -20}";
}
);
layerId = "F681C90F-60C6-46B5-9262-264E5CA00432";
shapes = (
{
closed = 1;
nodes = (
(39.83,89,o),
(144.59,-20,o),
(300.76,-20,cs),
(460.81,-20,o),
(561.69,80,o),
(561.69,255,cs),
(561.69,431,o),
(456.93,520,o),
(300.76,520,cs),
(152.35,520,o),
(39.83,429,o),
(39.83,255,cs)
);
},
{
closed = 1;
nodes = (
(401.64,156,o),
(364.78,103,o),
(297.85,103,cs),
(233.83,103,o),
(199.88,155,o),
(199.88,254,cs),
(199.88,349,o),
(232.86,396,o),
(298.82,396,cs),
(366.72,396,o),
(401.64,347,o),
(401.64,252,cs)
);
},
{
closed = 1;
nodes = (
(568.06,332,l),
(573.88,367.896,o),
(610.74,397,o),
(667.667,397,cs),
(718.41,397,o),
(761.767,373.875,o),
(766.91,332,c)
);
},
{
closed = 1;
nodes = (
(610.74,103,o),
(570,138,o),
(566.12,212,c),
(929.87,212,l),
(941.117,404.026,o),
(842.867,520,o),
(668.94,520,cs),
(514.71,520,o),
(403.16,420,o),
(403.16,254,cs),
(403.16,85,o),
(518.59,-20,o),
(681.55,-20,cs),
(770.79,-20,o),
(848.39,12,o),
(896.89,73,c),
(814.44,158,l),
(788.25,123,o),
(743.63,103,o),
(686.4,103,cs)
);
}
);
width = 957;
}
);
leftKerningGroup = a;
rightKerningGroup = b1;
unicode = 339;
},
